<?xml version="1.0" encoding="UTF-8"?>
<svg xmlns="http://www.w3.org/2000/svg" xmlns:xlink="http://www.w3.org/1999/xlink" viewBox="0 0 1366 768">
  <defs>
    <style>
      .cls-1 {
        fill: #ed1113;
      }

      .cls-1, .cls-2, .cls-3, .cls-4, .cls-5, .cls-6, .cls-7, .cls-8, .cls-9, .cls-10, .cls-11, .cls-12, .cls-13, .cls-14, .cls-15, .cls-16, .cls-17, .cls-18, .cls-19 {
        mix-blend-mode: lighten;
      }

      .cls-20 {
        fill: #fff;
      }

      .cls-2 {
        fill: #449747;
      }

      .cls-3 {
        fill: #c01576;
      }

      .cls-21 {
        clip-path: url(#clippath-2);
      }

      .cls-22 {
        isolation: isolate;
      }

      .cls-4 {
        fill: #0f4c85;
      }

      .cls-23 {
        clip-path: url(#clippath-6);
      }

      .cls-5 {
        fill: #3ea091;
      }

      .cls-24 {
        clip-path: url(#clippath-7);
      }

      .cls-25 {
        clip-path: url(#clippath-1);
      }

      .cls-26 {
        clip-path: url(#clippath-4);
      }

      .cls-6 {
        fill: #900023;
      }

      .cls-7 {
        fill: #387424;
      }

      .cls-8 {
        fill: #2842a4;
      }

      .cls-9 {
        fill: #f77d0e;
      }

      .cls-10 {
        fill: #6800a6;
      }

      .cls-27 {
        clip-path: url(#clippath);
      }

      .cls-28 {
        fill: none;
      }

      .cls-11 {
        fill: #ffc003;
      }

      .cls-29 {
        clip-path: url(#clippath-3);
      }

      .cls-12 {
        fill: #f7840f;
      }

      .cls-13 {
        fill: #0072a3;
      }

      .cls-14 {
        fill: #d11844;
      }

      .cls-30 {
        clip-path: url(#clippath-5);
      }

      .cls-31 {
        fill: #070707;
      }

      .cls-15 {
        fill: #075d6c;
      }

      .cls-16 {
        fill: #ffc300;
      }

      .cls-17 {
        fill: #0094dc;
      }

      .cls-18 {
        fill: #f5800e;
      }

      .cls-19 {
        fill: #87407c;
      }

      .cls-32 {
        fill: #bfbfbf;
        mix-blend-mode: soft-light;
      }

      .cls-33 {
        fill: #fcfcfc;
      }
    </style>
    <clipPath id="clippath">
      <path class="cls-28" d="m422.01,387.1c1.57.86,2.78,1.52,3.61,1.99.83.47,2.05,1.17,3.67,2.1,1.62.93,2.9,1.77,3.85,2.51.95.74,2.15,1.66,3.61,2.75,1.45,1.09,2.61,2.16,3.48,3.21s1.82,2.26,2.86,3.62c1.04,1.36,1.8,2.75,2.3,4.15.5,1.4.93,2.92,1.31,4.56.37,1.64.54,3.39.5,5.26-.04,1.87-.27,3.82-.68,5.84-1.33,5.61-5.06,10.16-11.19,13.67-5.72,3.35-12.68,5.02-20.89,5.02-5.97,0-12.43-.9-19.39-2.69-3.07-.78-5.41-2.49-7.02-5.14-1.62-2.65-1.99-5.43-1.12-8.35.87-2.92,2.69-5.12,5.47-6.6,2.78-1.48,5.74-1.83,8.89-1.05,4.31,1.09,8.18,1.69,11.62,1.81,3.44.12,5.95-.04,7.52-.47,1.57-.43,2.74-.95,3.48-1.58.08-1.17-.19-2.22-.81-3.15-.62-.93-1.89-2.04-3.79-3.33-1.91-1.28-4.85-2.98-8.83-5.08-2.73-1.48-4.85-2.65-6.34-3.5-1.49-.86-3.5-2.16-6.03-3.91-2.53-1.75-4.54-3.41-6.03-4.96-1.49-1.56-2.94-3.52-4.35-5.9-1.41-2.38-2.45-4.85-3.11-7.42-.91-4.36-.58-8.64,1-12.85,1.57-4.21,4.14-7.83,7.71-10.86,1.66-1.32,3.5-2.49,5.53-3.5,2.03-1.01,4.6-1.93,7.71-2.75,3.11-.82,6.84-1.09,11.19-.82,4.35.27,8.93,1.19,13.74,2.75,3.06,1.01,5.32,2.86,6.78,5.55,1.45,2.69,1.66,5.47.62,8.35-1.04,2.88-3,4.98-5.91,6.31-2.9,1.33-5.89,1.52-8.95.58-7.29-2.34-12.39-2.34-15.29,0-1.08.93-1.54,1.79-1.37,2.57.33,1.25,1.3,2.59,2.92,4.03,1.62,1.44,3.19,2.61,4.72,3.5,1.53.9,3.87,2.16,7.02,3.8Z"/>
    </clipPath>
    <clipPath id="clippath-1">
      <path class="cls-28" d="m493.5,410.23c3.23-.23,6.07.62,8.52,2.57,2.44,1.95,3.79,4.44,4.04,7.48.17,1.95-.21,3.8-1.12,5.55-.91,1.75-2.22,3.19-3.92,4.32-1.7,1.13-3.59,1.77-5.66,1.93-8.79.62-16.04.93-21.76.93-7.79,0-13.18-.7-16.16-2.1-2.98-1.4-5.24-4.5-6.78-9.29-1.54-4.79-2.38-10.03-2.55-15.71-.17-5.68-.08-11.37.25-17.06.33-5.68.75-10.34,1.24-13.96.5-3.62.79-5.55.87-5.78.33-.86.64-1.54.93-2.04.29-.51.87-1.25,1.74-2.22.87-.97,1.84-1.77,2.92-2.39,1.08-.62,2.65-1.32,4.72-2.1,2.07-.78,4.43-1.38,7.09-1.81,2.65-.43,5.99-.8,10.01-1.11,4.02-.31,8.47-.43,13.37-.35,3.15.08,5.86,1.19,8.14,3.33,2.28,2.14,3.38,4.73,3.29,7.77,0,1.48-.31,2.9-.93,4.26-.62,1.36-1.47,2.51-2.55,3.45-1.08.93-2.34,1.69-3.79,2.28-1.45.58-2.96.88-4.54.88-7.46-.08-13.76.27-18.9,1.05-.08,1.01-.17,2.38-.25,4.09h21.88c3.23,0,5.99,1.07,8.27,3.21,2.28,2.14,3.42,4.73,3.42,7.77s-1.14,5.61-3.42,7.71c-2.28,2.1-5.04,3.15-8.27,3.15h-22.13c.08,2.1.21,3.78.37,5.02,5.97.08,13.18-.19,21.63-.82Z"/>
    </clipPath>
    <clipPath id="clippath-2">
      <path class="cls-28" d="m571.57,429.62c.41,3.04-.35,5.76-2.3,8.18-1.95,2.41-4.54,3.81-7.77,4.21-.5.08-1,.12-1.49.12-2.9,0-5.45-.92-7.65-2.75-2.2-1.83-3.5-4.11-3.92-6.83l-.87-5.72c-4.39,1.64-8.66,2.45-12.81,2.45-5.97,0-11.23-1.63-15.79-4.91-5.8-4.13-9.53-10.2-11.19-18.22-1.66-8.02-.79-15.89,2.61-23.6,3.65-8.25,9.37-14.44,17.16-18.57,7.79-4.13,16.62-5.61,26.48-4.44,3.15.39,5.72,1.79,7.71,4.21,1.99,2.41,2.78,5.1,2.36,8.06-.33,2.03-1.12,3.8-2.36,5.32-1.24,1.52-2.82,2.67-4.72,3.45-1.91.78-3.9,1.01-5.97.7-9.45-1.09-15.79,2.1-19.02,9.58-1.41,3.66-1.95,7.01-1.62,10.05.33,3.04,1.24,5.06,2.74,6.07.5.62,1.8.66,3.92.12,2.11-.54,4.54-1.64,7.27-3.27l-1-7.24c-.42-2.96.35-5.65,2.3-8.06,1.95-2.41,4.52-3.81,7.71-4.21,3.19-.39,6.05.33,8.58,2.16,2.53,1.83,4.04,4.23,4.54,7.18l5.1,35.98Z"/>
    </clipPath>
    <clipPath id="clippath-3">
      <path class="cls-28" d="m633.86,370.4c.08,1.87.14,3.93.19,6.19.04,2.26-.08,5.57-.37,9.93-.29,4.36-.85,8.45-1.68,12.27-.83,3.82-2.2,7.85-4.1,12.09-1.91,4.25-4.23,7.77-6.96,10.57-5.55,5.61-12.39,8.41-20.51,8.41s-15.17-2.96-20.39-8.88c-2.49-2.8-4.48-6.31-5.97-10.51-1.49-4.21-2.45-8.2-2.86-11.97-.42-3.78-.56-7.81-.43-12.09.12-4.28.33-7.53.62-9.75.29-2.22.64-4.22,1.06-6.02.5-3.04,2.07-5.41,4.72-7.13,2.65-1.71,5.55-2.32,8.7-1.81,3.15.51,5.66,2.01,7.52,4.5,1.86,2.49,2.51,5.22,1.93,8.18-1.08,4.98-1.45,11.06-1.12,18.22.33,7.17,1.57,11.96,3.73,14.37.58.62,1.41.93,2.49.93,1.32,0,2.49-.47,3.48-1.4,2.65-2.73,4.54-7.59,5.66-14.6,1.12-7.01,1.47-13.67,1.06-19.97-.17-1.95.21-3.8,1.12-5.55.91-1.75,2.22-3.17,3.92-4.26,1.7-1.09,3.61-1.69,5.72-1.81,2.11-.12,4.1.25,5.97,1.11,1.87.86,3.38,2.08,4.54,3.68,1.16,1.6,1.82,3.37,1.99,5.32Z"/>
    </clipPath>
    <clipPath id="clippath-4">
      <path class="cls-28" d="m648.78,375.23c3.23.08,5.97,1.21,8.21,3.39,2.24,2.18,3.31,4.79,3.23,7.83l-.87,34.81c0,3.04-1.14,5.59-3.42,7.65-2.28,2.06-4.99,3.1-8.14,3.1h-.25c-3.23-.08-5.97-1.21-8.21-3.39-2.24-2.18-3.32-4.75-3.23-7.71l.75-34.93c.08-3.04,1.26-5.61,3.54-7.71,2.28-2.1,5.08-3.11,8.39-3.04Zm-8.21-9.23c-1.58-2.65-1.95-5.43-1.12-8.35.83-2.92,2.65-5.12,5.47-6.6l1.37-.7c2.82-1.48,5.78-1.83,8.89-1.05,3.11.78,5.45,2.47,7.02,5.08,1.57,2.61,1.95,5.37,1.12,8.29-.83,2.92-2.65,5.16-5.47,6.72l-1.37.7c-1.82.93-3.75,1.4-5.78,1.4s-3.96-.49-5.78-1.46c-1.82-.97-3.28-2.32-4.35-4.03Z"/>
    </clipPath>
    <clipPath id="clippath-5">
      <path class="cls-28" d="m729.96,388.62c.33,4.36-.42,8.7-2.24,13.03-1.82,4.32-4.71,8.45-8.64,12.38-3.94,3.93-9.3,7.4-16.1,10.4-6.8,3-14.59,5.08-23.37,6.25h-.12c-.08.08-.19.12-.31.12h-.31c-.58.08-1.12.12-1.62.12h-.12c-1.16,0-2.4-.19-3.73-.58l-.12-.12h-.25c-1.08-.39-2.11-.97-3.11-1.75-.25-.23-.42-.35-.5-.35-.83-.7-1.58-1.56-2.24-2.57-.08-.08-.17-.23-.25-.47-.58-1.09-.96-2.22-1.12-3.39-.08,0-.12-.04-.12-.12v-.82c0-.08-.02-.19-.06-.35-.04-.15-.06-.31-.06-.47l.25-51.52v-.93l.12-1.17c.08-.08.21-.43.37-1.05.17-.62.29-.97.37-1.05,0-.08.17-.39.5-.93.33-.54.5-.86.5-.93.08-.08.33-.35.75-.82.41-.47.64-.72.68-.76.04-.04.31-.25.81-.64.5-.39.79-.62.87-.7.08-.08.19-.14.31-.18.12-.04.25-.1.37-.18.12-.08.23-.16.31-.23.5-.23.83-.39,1-.47.08,0,.43-.1,1.06-.29.62-.19,1.01-.33,1.18-.41l1.12-.12c.58-.08.95-.12,1.12-.12h.25c7.13-.08,13.61.49,19.46,1.69,5.84,1.21,10.71,2.84,14.61,4.91,3.9,2.06,7.21,4.48,9.95,7.24,2.73,2.76,4.74,5.59,6.03,8.47,1.28,2.88,2.09,5.84,2.42,8.88Zm-41.03,17.52c5.88-2.02,10.36-4.52,13.43-7.48,3.07-2.96,4.52-5.72,4.35-8.29-.25-2.26-1.91-4.34-4.97-6.25-3.07-1.91-7.29-3.25-12.68-4.03l-.12,26.05Z"/>
    </clipPath>
    <clipPath id="clippath-6">
      <path class="cls-28" d="m777.08,363.04c6.38,1.56,11.91,4.58,16.6,9.05,4.68,4.48,7.91,9.77,9.7,15.89,1.78,6.11,1.84,12.32.19,18.63-2.24,8.18-6.84,14.82-13.8,19.92-6.96,5.1-14.67,7.65-23.12,7.65-2.9,0-5.76-.31-8.58-.93-6.46-1.63-12.06-4.67-16.78-9.11-4.72-4.44-7.98-9.73-9.76-15.89-1.78-6.15-1.84-12.38-.19-18.69,1.74-6.31,4.97-11.78,9.7-16.41,4.72-4.63,10.26-7.87,16.6-9.7,6.34-1.83,12.74-2,19.21-.53.08,0,.12.02.12.06,0,.04.04.06.12.06Zm3.85,38.2c1-3.74.54-7.28-1.37-10.63-1.91-3.35-4.68-5.49-8.33-6.42-.99-.23-1.99-.35-2.98-.35-2.16,0-4.21.47-6.15,1.4-1.95.93-3.65,2.24-5.1,3.91-1.45,1.68-2.47,3.6-3.05,5.78-.99,3.74-.54,7.28,1.37,10.63,1.91,3.35,4.72,5.49,8.45,6.42,3.65.86,7.17.23,10.57-1.87,3.4-2.1,5.59-5.06,6.59-8.88Z"/>
    </clipPath>
    <clipPath id="clippath-7">
      <path class="cls-28" d="m863.86,414.09c2.57,1.79,4.06,4.19,4.48,7.18.41,3-.33,5.71-2.24,8.12-2.32,2.88-5.43,4.32-9.32,4.32-2.57,0-4.89-.74-6.96-2.22l-19.52-13.78v5.37c0,3.04-1.12,5.63-3.36,7.77-2.24,2.14-4.97,3.21-8.21,3.21s-5.99-1.07-8.27-3.21c-2.28-2.14-3.42-4.73-3.42-7.77v-58.06c.08-.39.12-.78.12-1.17.08-.39.16-.74.25-1.05.08-.23.21-.58.37-1.05.17-.39.29-.7.37-.93.08-.23.25-.54.5-.93.25-.39.45-.7.62-.93.16-.23.41-.51.75-.82.33-.31.58-.54.75-.7.16-.16.45-.39.87-.7.33-.23.62-.43.87-.58.33-.16.66-.31.99-.47.41-.23.79-.39,1.12-.47.25-.08.58-.19.99-.35.5-.08.91-.15,1.24-.23.25,0,.37-.04.37-.12,13.67-1.48,25.24-.31,34.69,3.5,9.45,3.82,14.79,9.54,16.04,17.17.25.93.31,2.06.19,3.39-.12,1.33-.33,2.71-.62,4.15-.29,1.44-.95,3.02-1.99,4.73-1.04,1.71-2.3,3.35-3.79,4.91-1.49,1.56-3.54,3.17-6.15,4.85-2.61,1.68-5.62,3.21-9.01,4.61l17.28,12.27Zm-33.57-30.02c6.05-1.71,10.44-3.58,13.18-5.61-3.15-1.48-7.54-2.34-13.18-2.57v8.18Z"/>
    </clipPath>
  </defs>
  <g class="cls-22">
    <g id="Capa_1" data-name="Capa 1">
      <path class="cls-32" d="m890.94,410.43l-.57.63.88,1.06.31-.45-.15-.44.19-.53-.66-.26Zm-3.11,8.22l-.08-.66-1.3.91c.03.07.48.24.48.24l.9-.49Zm1.11-1.88l.23.42.49.06.15-.48.96-.77.42-.61.66-.63-.24-.37-.6-.06-.6.63-.11.56-1.37,1.25Zm4.49-3.92l-.14.61.96.13-.1-.68-.71-.06Zm-33,5.1l.74.41.74-.37-.73-.22-.75.18Zm29.94,6.99l1.47-.11-.57-.41-.9.52Zm2.78-8.55l-.18-.46-.96,1.09-.45.13-1.01,1.02-.86.24-1.8,1.32-.15.49-.36.24-.69.15-.04.38h.99l.56-.34,1.11.21.25-.5-.19-.52.89-.25,1.44-1.52,1.12-.38.52-.44-.46-.37.25-.49Zm-65.01,1.2l-.89.31.27.33.36-.12.26-.52Zm44.71-7.35l-.76.03-1.37,1.32.9.12,1.26-.77-.03-.69Zm-11.34,15.91l.07-.67-.71-.06-.43.09-.24.73.54.4.77-.5Zm-35.23-9.14l-1.17.65-.09.79.51.19.58-.42,1.11-1.21-.1-.44-.83.44Zm74.91,5.56l-.03.72.96-.22.88-.94h-.63l-1.18.43Zm27.38,20.41l.53-.38.53.61.71-.23-.32-.38.28-.39.39.42.56.13.36-.7-.57-1.25-.52.03-.37.18-.31-.28.68-.8-.09-.57-.29-.6-.65-.26-.04-.44.35-.43.15-.99.57.06.06.9.33.54.56-.83.28.51.35.62-.35.86.2.69.54.12.85-.74.44-.07-.3.71-.71.58.03.66.25.81-.35.92.28.44,1.03.26.14-.38.49-.7.11.64-.28.31.3,1.13.65.43.86-1.49.1-1.13.35-.63.19-2.15.71-1.9v-1.85l-.26-1.28-.35-.63.07-.18.36.18.46,1.08.53.19.5-1.09,1.03-.68-.68,1.22-.38,1.54.29,1.25-.94,1.64-.09,1.06.31.55-.64.5-.07,1.32.17.73.22.9.83.73.15,1.03h.47l.07.96.71.53.53-.34.54.29.81-.33,1.2-.05-.04.25-1.31.77-.5.19v.39l.64.45-.43.32-.74.08.07.49.68.99v.87l-.39.15-.74-.51-.34-.71-.27.31.27.55-.52.71.06.96.27.3-.34.44-.66.09-.44.68.15.36.57.06.55-.06.28.74.65.57.58-.09.49.34.03.3-.8-.07-.34.26.21.49.7.41.31.76.8.63h.47s-.59.24-.59.24l-.58.07-.58.71.12.96.84,1.3.74.46,1.07-.03.56.19-1.04.51-1.05-.18-.69.15-.6,1.15-1.5,1.45-1.1.78v.88l.4.83,1.03-.79.61-1.26.07-.37.79-.17,1.12-1.03.22.36.74-.06,1.21-.12-.74.78.14.28,1.14.02v.37l-.99.82v.78l.17.57-.66,1.02-.32.63.24.46.22.42-.67-.08-.91.07-.68.67.03.37.75.07.46-.18.96.03.08.24-.82.65-.66-.09-.49.03-.5.37-.24,1.02.48.9.63-.32.14-.61.64.1.88-.34,1.23-1.28,1.03-1.35.38-1.83,1.1-2.08.39-.28h.01l.07-.28v-.69l.32-.14-.04-.42.22-.35-.22-.48-.51-.23-.06-.89-.5-.86-1.04-.67-.65-.43-.2-.59-.93-1.12-.68-.25-.82-.03-.03-.32.32-.44-.12-.64-.44-.37-.21-.52.55-.43.34-.12-.12-.38-.56-.34h-.52v-.54l.8-.51-.18-3.24.03-3.15.36-2.55-.28-.78-.1-.79.46-.83-.14-.8-.46-.71-.19-1.6-1.1-1.12-.36-1.64.26-.77-1.04-2.57.22-.62.75-1.17-.25-.68-.03-.83-1.02-.74-1.5.09-1.69.45-.39.23-1.78.5-1.11,1.01-1.38,1.85-1.17.58-1.62.2-1.88.27-.36.07.04-.71.88-1.19-.5-1.15-1.42-5.09-.87-2.3-.41-1.09,1.04-1.96-2.44-.28-1.88.93-1.04-.48-3.22-.03,57.03-94.06-.16-.39-1.04-.29-.76.13-.53-.54-.36-1.74-.54-.94-.64-.34-.21-.96-.63-1.15-.44-.39-1.74-.06-.27.25-1.42-.15-1.25.26-.56-.39-.38.13-.44-.21-.32.25-.57-.09-.06-.23.47-.11.06-.4-.84-.52-.58.3-.64-.24.13-.29.42-.28-.33-.36-.56.06-.76-.12.08-.44-.72-.65-1.45-.95-.31.1-.4-.25h-.42l-.46.38.1-.33-.13-.34-.71-.36-.57.81-.5-.32.04-.56.35-.23-.29-.38-.77-.29-.72.16.26-.38-.07-.32-.82-.48-.68-.77.14-.26-.28-.31-.63-.18-.45.32-1.89,1.6-2.06.94,1.81-1.12,1.11-1.51,1.09-.99.25-1.09-.64-.38-1.3-.84h-1.22l-1.23.45h-.79l-.39.26-1.38.18-1.31,1.32-1.14.77.92-.94-.14-1.18.21-1.03-.05-.74-1.57-.84v-.38l.91-.32.8-.04-.07-.35-2.41-1.2-.23-.55.51-.7,1.34-.57.66-.67-.49-.52-.53-.96-.45-.03-.51.24-.37-.61-.75-.35-.93.12-1.13-.44-.55-.16-.73.21-1.1.03-.51.71-.02.41-.56-.75.36-.71.43-.25-.07-.74.32-.62.51-.26.09-.83.29-.77-.29-.49-.32-.03-1.16.98-.25.78h-.23s-.69-.41-.69-.41l-.97.33-.19.45.19.89-.65.63-.46.03-.27-.33-.53,1.1-.04.91-.37-.91-.02-.92.48-.76-.43-.12-.64.61-.26.58-.76.19.55-1.32-.55-.85-.89.09.17-.58,1.13-.78.97-.22,1.07.76,1.35-.52.89-.22.98-.89.1-.4.27-.42-.22-.38-1.14-.44-.39.02-.06-.76-.37-.31-.31-.26.17-.26.49-.16.2-.35-.48-.08-1.83.82-.45.37-1.27.09-1.04.57-2.08,1.53-1.25.41h-2.31l-1.28-.75-.53-.34-.12.47-.71-.11-.99-.76-.81.34-.29.71-.51.03-.24-.57.21-.55.85-.32-.47-.39-1.16.33-1.84.89-1.35.61-.5.94.21.76,1.18.27-.68.5h-1.27l-1.25.96-.94,1.97-.54,1.5-.47.07-.2-.33.32-1.51,1.46-1.97.07-.58-.5-.04-2.5.96h-1.02l-.64-.28-.74-.9-1.17-.25-.6.03.1.31,1.46.57.54.58-.5.26-1.42-.32-1.66-.22-2.03.9-2.55,1.93-2.83,1.22-1.95,1.31-2.07,1.67-2.49,2-1.62.62-.86.13-1.39.73-1.1.07-1.66.93-1.45.03-.76-.51-1.45-.13-1.34-.73-1-.49-1.48-.68-.57.13-1.17,1.03-1.73,1.68-.46,1.04-.96.84-.49,1.08-.74-.09-.64-.41-.57.35.88,1.85,1.2,3.94,1.21,3.02.49,2.7-.28,2.45-1.12,1.84-.87,1.13v.48l1.85,2.02,1.03.4-.05-.95.51.41.77-.45h.72l-.72.53-.06.58,2.42,1.74-.6.38-1.04-.11-.28.6-.14,2.31.12,1,.49.38.71-.55,1.11-.29.77.32.37.57,1.26-.34,1.54.43,1.32.62-1.28.62.27.99-.31.9-1.63.16.15-.61-.99-.52-.61.33-1.27-.15-.53-.46-.47-1.27-.85-.29-.47.07-1.16-.83.15-1.36,1.05-2.62-.13-.84-.4-.02-.85.83-.12,2.59-.46,1.72-.88.89v.7l.63-.93h.67l.48.42h1.2l.5,1.02-.08,1.57-.99,1-1.43.49,1.27-1.49-.06-.51-.64-.28-.38-.32-.58.45-1.49,1.07-.11.76-.88.28-.9.38-.25-.83-.38-.19-1.25.09-.64-.28-.14-.92-.68-.17-.53.18h-.85s-.11-.72-.11-.72l-.67-.43-.68.37-.41-.07-.08-.96-.39-.71.03-.5.89-.3,1.02-1.34.57-.11.61-.64-.07-.54-1.28-1.22-.8-.31-.95-.03-1.56.76-.88.02-.82-.5-.85.03-2.96,1.09-.21.45.47.45,1.09.9-.17.28-.82-.12h-.86l-.34-.46-.93-.3-1.74-.25-1.88.25-.64.49-.07.45-1,.03-.2-.29h-.76l-1.38.74v.49l-.74.26-1.49.61-1.03.62-.61.08.26-.31.25-.54-.81.32-.78,1.05-.03.31,1.34,1.52,1.27,1.78,1.38.33,1.04,1.28,1.05.52.43,1.04.99.23,1.13.54-.34.25-1.67.03-.18-.9-1.13-.71-.67-.47-.46.06-1.1,1.02h-.61l-.66-.86.84-.82v-.37l-.78.07-.75.92.22,1.79.28.33.03.67-1.06.89-.77,1.14-.26,1.23.15,1.19,1.7,1.73,1.63.58,1.06,1.06.64.03,1.27-.83,1.39-.42,1.13.58,2.2.26.81.51.32,1.06.53.25.43-.44-.08-1.22.31-.38,1,.32-.03.51-.99,1.08.02.84.52.04,1.26-1,.36-.51,1.6-.32,2.01-1.12,1.42-.13.64-.91h.4l.2.55.5.15,1.66-.93,1.27-.05.49-.33-.42.64-1.09.71.02.34.53.26-.87,1.48-1.43.19-.46-.42-.61-.06-1.31.91.1.23,1.06.13.61.61-.1,1.22-1.56,1.58-.24,1.03-.49.68-.25.51.27.43.14.66-.3.89-.92,1.07-.82.57-.96-.08-.62.31-1.01.82-.76.25-1.03-.13-1.43-.79-.46.19-.4-.46-.77-.78-.31.13-.94,1.15-1.13.66-.73.88-1.99.63-.57.46-.87.03-.93-.24h-1.53l-1.2.81-1.12.1-.64.43-.03,1.11-.67,1.55-.72.64-.11-.59-1.13-1.09-1.43-.07-.61.3.19.65.6.49-.45.7h-.47l-.37-.8-.82-.9-.42.02-1.43,1.26-.55,1.12-.59.23-.56.03-2.17,1.77-.39,1.35-.42.28-1.07.23-.96-.31-.22.22.99,1.01-.22.65-.59.03-.51-.75-.43.04-.46.84-1.17,1.24v.56l.85,1.14.16,1.1-.19.74-.46.78.2.75.61-.13.58-.7.21.49.15,1.24-.48.26-.35.43.28.34.66-.11.44-.37h.58s.31.3.31.3l.08.5,1.07.12.8.49,1.04-.06.78-.63.4-1.63.6-.64h1.79l.74-.47-.86.92-.79.09-1.56,1.39-.18.85-.63.59.92.92.08.61-1.28.31-.44-.35v-.56l-.44-.45-.88.06-.48-.72-1.35-.22-.48-.61-.77.54-.82.15-.23.74-.74.45-1.02-.23-.18.62.5.71.47.05-.58.69-.21,1.17.3.78.66.05.09,1.51.16.5v.69s.89.7.89.7l.02.33-1.08.13-.29.48,3.23,1.35h1.24s1.46-.57,1.46-.57l.77-.28.56.31.58-.04,1.32-1.59.03-.78-.52-.64.02-.4,1.29-.61,1.4-.98,2.21-1.29.91.19-.99.08-2.04,1.84-1.26.68-.07.51.81.63-.02.51-.8,1.28-1.07.62-.14.94.25,1.14-.31.83.08.45-.08.76.15.98-1.34.39-.58.45-.27.67-.46-.15-.39.28.33.88.04.91.45.16.89-.26h.68s.17.46.17.46l-.52.56-1.11-.04-.42.4.24.5-.12.36.25.63-.58.42-.79.14-.87.49-.64-.15-.39.19.6.43.92.11.59.43,1.1-.91,2.01-1.2.41.09.75.09.71-.65,1.57-.53-.2.59-.69.39v.31l.74.3.21.85-.17.46.69.35.83-.54.47-.68.35.42-.32.43.62,1.03.31,1.4-.22.81.46,1.12.56.11.46-1.07-.11-.89.9-1.3.15-.73,1.07-.8.33-.02.97-.65,1.42-.06-1.24.54-1.38,1.32-.03.5,1.19,1.26.64.16,1.4-.67,1.94-.26.91-.64.61-.03,1.72-.75h.58l-.63.25-1.06,1.13.02.5-.67.58-2.71,1.3-1.22.94-.82,1.39-.14.84.37.74.93.56-1.64-.25-.63.2-.86,1.04-.33,1.07-1.24,1.29-.59.84.28.46.34.33-.16.65-.64-.2-.27-.58-.65-.1-.72.86-1.34.69.41.53-.4.63-.7-.12-.21-.47-.54.33-2.17,1.56-.57.9.13.52-.33.38-.77-.28v-.89l-1.41.59-1.1.69-.9.32-.12.64-.82.33h-1.39l-1.34,1.13-2.29.75-1.53,1.13-.62,1.24-.09.47.4.7-.07.63-.3.18-.57-.72h-.51l-.16.4.13.65-.46.24-.55-.62v-.79l.38-.58-.69-.33-.97.08-.47-.19-.28,4.68.22-.64.56-.22.25.42.22-.48.49.03.22.54-.32.57.34.09.68-.9.74.09.75-.53h.84l.94-1.22.89-.45.64.22v.5l-.67.81-.61.96.03.34.47.05,1.35-1.28.06-1.36.14-.28.53.55.61-.33.71.17.99-.04.89-.96.29-.06.24.22.49-1,.55-.43.18.28-.16.58.06.8.53-.23.77-.74-.39-.2.77-.51-.05-.39h-1.52s-.31-.27-.31-.27l1.24-.29,1.51-.74,1.9-.06.47-.39-.12-.58-.38-.09.46-.25.74-.13.61-.39.5.02.25.75h.46l.35-.58-.17-.28.71-.51.03-.77.4-.32.36.39v.57l.49.32,1.21-.71.43-.63.71.04.54-.75.32-.19.45.45.82-.15,1.04-1.13v-.7s-.25-.03-.25-.03l-.68.03-.19-.13,1.35-.9.9-.3.71-.74.35.08.33.31,1.02-.96.89-.35.28-.68.57-.19.32-.42.67-.09.33.51.43.21.24-.63h.81l.39-.29-.02-.55.84-.19.3-.35.24.22,1.41.13.29-.77.42-.02.07.44.36-.03.48-.39.43.37.34-.24.48-1.26h-.44l-.49.21.33-.65.95-.7h.5l.35.25.18-.25-.35-.51-.58-.26.5-.23.88.28,1.03-.93h1.19l.99-.73.71-.13,1.16-.99v-1.33l-.38-.31h-.29l-.35-.96-.5-.3-1.3.04.21-.83-.07-.83,1.3-.48.24-.44.68-.14.24-.53-.24-.09.54-.36.99.21,1.23-.82.89.71,1.2-.61-.14.63.26.5.56-.07,1.07-1.04-.29-.37-.5-.16-.17-.44.49-.16.92.32,1.7-.49.36-1.17-.38-1-1.42-.87-.57.07-.53.38v-.22l.67-.49,1.23-.08.71.57,1.31-.09.96-.8-.03-.52,2.23-1.02,1.21-.94,1.03-.06.42-.42v-.51l2.11-1.41,1.74-.16,2.01-1.63,1.49-.13,1.67-1.89-.57,1.15.07,1,.5.25.73.14.3.31,1.23-1.21.96-.33,2.01-.55.64-.63-.38.94-1.53.82-1.16.11-2.13,1.97-.19.78,1.07,1.41.28.99-1.02-.71-.79-.06-.46.19h-.74l-.99-.61-.24-1.13-1.56.64-.78.08-1.41.88h-1.31l-.99.83-.07.88.17.44-.78,1.39-1.13.61-.46,1.21-2.84,2.22-.74.88.09.67.96,1.23.54-.7.49-.03.89-.55.75.13v.49l-1.7,1.22-.79.03-.45.81-.93-.39-.73.04-.75.25v.78l-.65-.17-.79.17.05,1.08,1.34,1.34.43-.19.46-.6.53.51.35-.98.71.02-.03.75.6-.35.18-.53.74-.32.96-.63.11-.96.67-.58.11.45-.35.44.41.52,1.1-.03,1.49-1.11,1.08-.04.23.52.61-.39.44-1.57,1.1-.66.49.08-1.17,1.13.04.7.6-.38,1.04-1.25.61-1.48.7-.36-.02.63-.66,1.07.08.35,1.21-1.05.34.53-.06.57,1.07.13.42.32.79-.58.43-.99,1.29-.13.82-.52-.59-.27.33-.94,1.8-.57.31-.62.04-.85-.88.13-.65-.39-1.08-.13.38-.56.86-.03.75.26.41-.51v-.75l-.84.33-.98-.74-.04-.7,1.27-.14.57-.26.42.26.15-.41-.37-1.03,1.61-.62.92.62.67-.17h1.2l-1.81,1.13.11.73.32,1.47.43-.09.61-1.69.74-.45h.46l-.33.53-.5.68.18.58,1.17-.77.25-.51.74.51.96-.64.39-.03.96-.61,1.1-.19.82.25-.19.33-1.02.03-1.04.95h-.67l-.49.62.39.47,1.86.35.62.58-.1.45-1.06-.82-1.32-.11-.82.34-.11.74.72.23.81-.43.78.52-.46.22-1.03.04.11.63,1.35.32.47.6-.76.21-.77.26.11.49h.96l.99-.4.84.67.86.37,1.38-.5.42.52v.43l-.6.37.14.52.43.16.14.55.78.26.63-.9-.28-.38.25-.38,1.2.02-.7.83.06.55-1.24,1.13.95.81-.43.2-.51-.17-.61.2.34.54,2.34.43.69-.27.73.15.97-.09,1.26.09,1.09-.19.47.14-.03.65.68.07.64.69.65.43.24.62.84-.05,1.35-.6.28-.3.5.23-.07.68-.71.52-.92.22.17.42,1.42.32.25.79.59.52,1.46.43,1.81-.39.78-.27.25.46.56-.68,1.28-.82.49.02-.39.53-.92.65-.19,1.54-.42.93-.64.09-1.03-.51-.36.13.66,1.05.27.84.59.44.82-.21.57.29-.28.54h-.57v.32l1.42,1.25.45-.26,1.1.12.47-.86,1.13-1.85-.54,1.45v.98l-.24.6-.52.29-.69.71.14.52.73.47-.35.48-.03,2.03.5.44.67.02-.24.75.29.77,1.45,1.5.54.21.1.49Zm-32.26-31.54l-.68-.22-.49.41.7.21.48-.4Zm-49.56-41.76l.32-.67-.55-.66-1.16.07-.45.27,1.26,1.08.58-.09Zm49.09,46.56l-.04-.76-.61-.26-.64.38.04,1.41,1.35.2.86-.37-.33-.61h-.63Zm-83.84,34.57l-1.07.83-.54,1.2.64-.67,1.34-.62.24-.57.74-.58-1.31.06-.05.34Zm49-21.45l.34-.63.47-.4-.37-.67-.62.18-.23.39-.45-.09.2-.81-.55-.19-.93.24-.42.58.4.45-.56.74-.55-.22-.46.36-.61-.26-.42.4.18.37,1.09.98.7-.04.92-.71.21.58h.52l.77-.7.5.34.74-.17-.32-.54-.58-.18Zm-51.34,19.05l.03.75c-.16.03-.32.08-.33.23-.02.37.15.96.52.67.37-.29.22-.91.22-.93l.17-.28-.61-.44Zm5.13,4.11l.15.53.4-.4-.05-.59-.5.46Zm20.69-79.66l.59.55-.09.47s-.57.42-.5.44l.61.24,2.01-1.63,1.05-.43-.08-.56-1.72-1.04-1.87.15-.75.36.84.76-.09.69Zm-2.94,3.15l.7.39-.04.57.72.38.21-1.95.52-1.02.06-1.81-.47-.37-1.14.54-2.64,2.42-.02.54.97.59,1.13-.3Zm-.02-26.9l-.72-.12s-.79.14-.71.14l.73.64.7-.67Zm-20.96,99.89l-.68-.28.1.79.58-.51Zm32.98-6.02l.39-.53-.71.08.32.45Zm13.57-11.21l-.86.16-.9.97-.56-.15v-.31l.47-.32v-.67l-.86-.54-.5.31.27.54-.17.8-.49-.25-.42.2-.45.71-.56.14v-.64l.37-.41.04-.89-.64-.43-.66.05-.89.88.22.43.83.52-.26.71-.66-.4-.22.14.3.81-.84.96-.38-.18-.04-1.72-.35-.2-1.25.14-2.14.95-1.28.9-.24.52.3.44.06,1.08-.22.92-.48.52.1.9.64.34.64-.14.15-.5-.25-.28-.47-.12.49-.47,1.07.02-.28.45.38.34.74-.56.38.03-.58.79v.47l-1.75,1.26-.14.42,1,.14.42-.55.62-.31v-.6s1.11-.53,1.11-.53l-.27-.5.55-.35.45-.04.53-.97.44.12.9-.2.81.16.54-.38-.27-.57-1.01-.39.75-.29,1.23.11.58.84.74.07.6-.77-.49-.93-.92-.2.45-.42.73-.08.65.28.64-.19.22.43.75.09.63-.93-.27-.59-.47-.25.03-.52h.91s.84-.23.84-.23l-.4-.93-.67-.2Zm-16.69,11.75l.88-.1,1.9-1.69-2.04.64-.74,1.15Zm-26.44,7.15l-.62,1.04s.56-.28.56-.28l.07-.75Zm19.39-2.17l.43.06.54-.22.17-.67-1.05.31-.09.52Zm-3.25-7.93l.83.76.68-.3-.54-.5-.97.03Zm98.23,12.38l-.28-.64-.62.44-.11.71.2.29-.54.53.19.45.81-.24.13-.93.23-.6Zm9.57,10.41l.92-1.05.14-.57-1.56-.13-.82.73.49.72.84.31Zm.92.59l.49-.46v-.62l-1.59.94-.16.74.72.13.54-.74Zm-.58,1.59l.54.13.71-.4v-.94l-.53-.13-.71,1.34Zm.6-6.63l-.92,1.25v.55l.35.41,1.17-.28.6-.83-.49-1.42-.71.33Zm-9.38,2.02l.15-1.09.39-1.16.56-.55.26-1.57.44-.39.27-1.43-.11-1.54-.39-1.2-.53-.18-.44.46-.87.32.14.54.73.58-.58.55-.1.86-.47.63-.86.12-.04.38,1.07.27-.24.4-.43.23.05.54h.47l.57-.27.11.4-.48.37-.67.1-.39.68.32,1.18.46.31-.19.69.13.63.41-.19.26-.68Zm10.73,3.51l.56-.62.04-.97-.31-.26-.46.75-.36.45.54.65Zm-8.36,8.35l-.64-.36-.41.12-.27.6.75,1.1.03.81.32.37.79-1.08-.69-1.05.12-.51Zm.87-.47l.36.4.23-.51-.37-.5-.23.61Zm-3.58-8.12l.22.7.5-.38-.72-.32Zm6.78-3.36l.38.28.64-.38-.54-.74.4-.38v-.96l.54-.2.13,1.16.47-.13.74-1.13v-1.11l-.68-.81h-.92l-.99-.99h-1.23s-.11.6-.11.6l.39.51-.21.75.89.32-.47.61-.6,2.01-.04,1.1.64.13.57-.64Zm-.1,13.43l.41-.39-.38-.44-.44-.03.44-.71.56-.13.89-.54v-.64l-.39-.19-.68.09.11-.29,1.01-.55-.51-.76-1.11-.7.43-.84.24.22.72-.06v-.66l-.82-.8.67-.06-.03-1.32-1.09-.58-.25.14-.57-.55.21-.52.65-.83-.65-.93-.81-.19-.57.45.67.75.24.84-.44,1.25.05.65-.24.83-.92.23-.3.39.26.35.57-.16.58.13v.42l-1.01.68v.38l-.24.6h-.53l-.36.49.28.45h.71l.4.41.28-.45.63-.13.39.41-.71.39-.17.49.53.55-.64.51-.14.67.92.67-.29.74.47.36.8-.04.54-.45-.38-.61Zm-4.66-4.56l-.63.68.68.32-.05-1Zm-1.34-.67l-.11,1.16.86-.89-.75-.26Zm5.96-24.72l-.67,1.19-.22,2.77-.95,1.19-.19,1.47.82.38-.47.55.36.53-1.14-.04-.65.56-.06.99-.54.93.5.63.8-.66,1.41-.74.26-1.31.76.29.49-.39.1-.76.29-.55.07-3.05.24-.83.4,1.83-.22,1.98.43.3.57-1.28-.25-3.24-.6-.7-1.26-.75v-.83l-.31-.45Zm6.16,26.56l1.29-1.68-.32-.74.37-1-.37-.91-1.15.02-.03.46-1,.39-.49,1.21.07.41-.81.74.31.52,1.8-.8v.38l-.99.65-.64,1,.47.44,1.48-1.07Zm-2.65,3.99l.66-.7-.71-.42-.81.55.86.57Zm.31-3.31l-.81.33.21.6-.54.47.72.44.92-.81-.49-1.03Zm-.29-.68l-.74-.97-.43.45.43.44-.12.76.86-.68Zm-7.96.26l-.42.23.39.8.77-.31-.28-.63-.46-.1Zm1.44-4.93l-.36-.54-.56.36.42.52.5-.34Zm-2.04-23.18l-.9.71.54.27.71-.49-.35-.5Zm.12,6.96l.03.87.97.96.6-.09.08-1.27.48-.44-.48-.7-1.07-.13v-.71l-1.2-1.72.07-.23,1.13.93.72.96.71.19.52-.47-.29-.56.88-.18v-.68l-1.07-.77-.76.3-.4.47-.28-.55.46-.58v-.7l-.98-.47-1.33.27-.16.47-.51.16-.43-.88-.45.96.14,1.08.57.34-.39.51-.53-.44-.53.87.66,1.15-.23.85.59.41-.56.68.81.92.89.08.6-.68-.03-.96-.6-1.25.21-.86,1.17,1.89Zm1.42,2.4l-.72-.05.45.67.27-.62Zm1.46,12l.56-.56-.65-.48-.82.26-.76,1.03.49.17.63-.42h.55Zm1.08-5.92l-.34-.44-.49.51-.11-.53.4-.72-.85-1.06h-.47l.05.9-.86-.34-.38.55-.11.93.49.39-.71.9.8.47-.04.59-.5.47-.56-.41-.4.64.07.48-.42.7-.12.64.37.42.58-1.57.31.49-.36.83.99-.28.49-.67-.02-.76,1.45-1.38.76-1.77Zm-206.33-10.97c.43.15.58-.27.58-.27l-.37-.5s-.65.63-.21.77Zm5.46,1.05s-.99-.25-1.12-.5c-.12-.26-.2-.5-.2-.5l-1.14-.3s.07.56.51.88c.44.31.39.88.11.78-.29-.11-.68-.08-.68-.08l.66.88.48-.58s.49-.03.44-.34c-.07-.28.95-.25.95-.25Zm-8.15,2.02c.32.17.38-.45.38-.45,0,0-.7.28-.38.45Zm.98-.46l.39-.18-.14-.38-.24.56Zm-4.97-6.82l-.22-.13s-.12.49.22.77c.34.28.9.22.95-.09.05-.3-.41-.83-.41-.83l-.54.28Zm19.05,7.29s.38.45.48.16c.1-.29-.48-.16-.48-.16Zm.22-1.7l-.31.28s-.2.25.17.59c.37.34.11.15.44-.01.32-.15.15-.59.15-.59l-.44-.27Zm-2.06,1.27c-.33-.01-.74-.21-.56-.42.18-.2.84-.72.43-.6-.43.13-.56.23-.56.23,0,0-.38-.62-.43-.3-.05.29-.07.66.03.97.11.31-.62-.22-.77.05-.15.27-.57.56-.57.56,0,0-.47.58-.28.64.19.07.84-.55.84-.55,0,0-.25.39.09.51.34.11.33-.15.67-.04.33.12.69-.28.69-.28,0,0,.06.28.34.12.28-.17.41-.88.09-.88Zm.5.12s-.64.73-.35.83c.29.11.55-.18.63-.42.09-.23-.28-.41-.28-.41Zm.8.81c.25.03.46-.11.46-.11l-.5-.44s-.23.51.03.55Zm-3.61-2.17c-.19-.22-.58-.36-.58-.36,0,0-.31.75-.67.83-.36.1-1.79-.13-1.79-.13,0,0-.47.26-.25.39.22.14.23-.03.46.06.24.08.76-.16,1.02.19.25.35.5.12.77.26.27.15.54-.34.36-.57-.19-.23.86-.45.67-.68Zm41.5-63.01l-.39.34.18.27.21-.61Zm1.04,4c.4-.07.79.06.93.43.14.37.22.45.43.31.22-.14-.42-1.1-.42-1.1,0,0-.66.04-1.12-.5-.46-.53-.44-.75-.69-1.11-.26-.35,0-.95,0-.95l-.6.16-.2.57.43.31s.83,1.95,1.24,1.88Zm.48,29.76l.19.55.62-.21.45-.38-.74.12-.51-.07Zm-13.46,34.09s.4.25.57-.07c.16-.31-.24-.72-.53-.5-.3.21-.63.26-.63.26,0,0-.33.48-.05.59.29.09.64-.28.64-.28Zm14.75-28.24s-.13.38.16.49c.29.1.42-.28.69-.29.28,0,.02-.21-.32-.32-.34-.12-.71-.31-.71-.31l.17.44Zm-29.93,25.31c-.1-.3-.26-1.1-.52-1.14-.26-.04-1.03.18-.9.44.12.25-.68.08-.68.08l.8.48s-.34.21-.69.13c-.36-.06-.55.34-.87.18-.32-.16-.73.24-.95.09-.22-.13-.83-.23-.83-.23,0,0-.58.11-.92,0-.33-.11-1.12-.02-1.12-.02,0,0,1.22.53,1.56.49.34-.04.61-.05.88.26.27.31.62.06.81.29.19.22.49-.16.68.07.19.23.76-.49.94-.22.17.28.82.29.82.29,0,0-.21-.93.07-.82.29.09,1.05-.07.93-.38Zm-33.85-8.63c.27-.18.58-.28.58-.28l-.72-.4s-.14.86.14.69Zm-20.57-11.46l-.44-.14-.34.2s.38.45.68.39c.29-.06.35.39.63.49.29.11.25-.71.25-.71,0,0,.8-.41.13-.38-.66.04-.92.16-.92.16Zm16.18,9.34l-.55-.13-.27.33h-.6l.31.65s.68-.73,1.02-.44c.33.27.53.18.53.18l-.09-.36s1.13-.62.73-.97c-.42-.36-1.08.75-1.08.75Zm-15.81-12.25c.32.01-.37-.5-.37-.5,0,0,.36-.57-.05-.5-.4.08-.35-.7-.87-.72-.53-.02-.82-.45-1.18-.52-.35-.07-.15-.15-.61-.1-.46.05-.75.44-.75.44l.84.24-.26.29.58.04-.16.64.5.12v.43s.71-.29.71-.29l.38.46.57-.39s.35.39.67.39Zm18.71,12.79s-.2.57.2.5c.4-.08-.2-.5-.2-.5Zm3.38,5.94c-.01-.27-.55-1.53-.79-1.62-.24-.08-1.04-.73-1.04-.73,0,0-.65.31.01.59.66.29,1.09.6,1.1,1.02.01.44.52,1.3.78,1.34.25.04.64,0,.64,0,0,0-.69-.34-.7-.62Zm84.97,2.8s-.15.27.43.48c.58.2.13-.4.13-.4l-.56-.08Zm-1.94-3.14s-.87.33-1.14.19c-.27-.15-.61.37-.61.37,0,0-.21.14-.52-.23-.3-.37-.46-.53-.91-.16-.46.38-1.21,1.46-1.79,1.41-.58-.04-.91.44-.78.86.12.41-.11.76.52,1.14.63.38,1.77.19,1.86-.05.08-.24,1.02-1.08,2.36-.57,1.33.52,1.61.78,1.87.65.26-.12.29-.38.65-.47.36-.09.17-.96.39-1.26.22-.3-.29-1.33-.64-1.57-.36-.22-1.25-.32-1.25-.32Zm-7.51,5.46c.56.25.68-.25.68-.25l-1.02-.34s-.22.34.34.59Zm-3.15-1.64s.47-.1.23-.19c-.24-.08-.37-.18-.37-.18l-.16-.49s-1.06.12-1.02.61c.04.5.57.68.57.68,0,0,.34-.2.58.04.24.25.45.26.53.02.08-.23-.36-.5-.36-.5Zm1.71-.58c.26-.12-.33-.6-.6-.26-.28.33.17.59.17.59,0,0-.83.36-.38.62.46.26.68-.09.68-.09l.5-.04s-.62-.69-.36-.82Zm-5.29,2.5c-.07.1-.31.02-.52-.03-.2.11-.37.17-.31.06.06-.09.18-.09.31-.06.24-.12.52-.31.57-.44.08-.23.75,0,.65-.31-.12-.3.61-.06.5-.35-.11-.31-.51-.56-.51-.56l-1.18.61s.37-1.22-.02-1.19c-.38.03-1-.07-1-.07,0,0-.75-.17-.99.07-.24.24-.73.54-.24.98.49.44.99.9.99.9l-.46.37s-.17-.59-.56-.57c-.39.03-.38.62-.38.62,0,0-.58-.52-.58-.03-.01.47.12.74.12.74,0,0-.55-.25-.55.02.01.28-.22.19-.43.02-.21-.18-.46.36-.69.13-.24-.25-.55.02-.88-.09-.34-.12-1.23.43-1.23.43l.75.63s.12-.33.37-.13c.26.19.8-.43.99-.19.19.22.47-.27.86-.13.38.13,1.03-.34,1.22-.11.19.23.77.43.77.43l.22-.63.46.38.26-.6.17.28.36-.4s.69.03.99-.03c.29-.06,1-.24,1.16-.4.16-.15.25-.55.25-.55,0,0-.42-.03-.6.17-.18.2-.73-.1-.84.08Zm37.06-30.59c-.32,0-.61,1.29-.61,1.29,0,0,.19.06.58.04.39-.03,1.76-1.64,1.76-1.64,0,0-.65.47-.91.27-.26-.19-.5.05-.82.04Zm-13.5,26.94l-.05-.12s-.43.26-.41.28l.48.17.03.03h.03s.1.03.1.03l-.03-.06.2-.07s-.4.55-.07.67c.34.12.62-.21.62-.21l-.59-.8-.3.08Zm-6.06-79.99c-.38-.45-1.83-1.12-2.21-1.25-.39-.14-1.11-.55-1.11-.55,0,0,.3-.7-.16-.8-.44-.1-1.1-.87-1.4-1.08-.3-.2.34-1.43-.1-1.58-.43-.15-.12-1.05-1.07-1.12-.95-.07-2.55.65-2.76.47-.21-.17-2.01-1.66-2.25-1.9-.24-.25-.07-.57-.04-.82.03-.26-.23-.57-.23-.57,0,0-.09.56-.34.8-.24.24-.45.7-.45.7,0,0-.79,1.16-.73,1.62.06.45.04,1.14.83,1.62.8.5,1.72-.41,2.2-.25.48.16,2.77,1.77,2.84,2.71.05.93.13,1.01.47,1.13.34.11,1.24,1.39,1.16,1.95-.08.56-.12.98.26,1.1.38.14.3-.22.55-.18.26.04.21-1.06.62-1.01.42.04.75-.59,1.45-.46.71.14,1.2,1.05,1.9.6.7-.45.95-.69.56-1.14Zm.24,83.72s-.49.46.23.88c.73.42.51-.2.51-.2l-.74-.68Zm-35.62.59l-.55-.13s-.07.34.23.4c.31.05.31-.27.31-.27Zm1.2.1c.29.09.52-.42.52-.42l-.34-.12s-.47.43-.18.53Zm6.99.23c.18-.2,2.44-.33,2.44-.33l.1-.6.47-.43s-.42-.03-.56-.4c-.14-.37-.51-.22-.94-.38-.44-.15-1.57.46-1.38.7.19.23-.6.48-.37.62.22.13.06.44.06.44l-.39-.13-.35.09-.27-.48s-.21.31-.55.35c-.34.05-.77.49-.64.75.12.25-.56.5-.56.5l-.17.37-.41.07-.31.43s.5-.05.83-.08c.34-.05.83-.2.99-.36.16-.15.39-.03.73-.07.34-.03,1.11-.84,1.28-1.05Zm-9.46.67l.38.28.18-.36-.22-.29-.34.37Zm1.55-.42l-.55-.13s-.05.62.42.51c.46-.11.56.09.62.38.06.28.76-.64.26-.76-.49-.12-.75,0-.75,0Zm-17.62-.57s-.8-.18-1.17-.2c-.37-.01-.56-.25-.56-.25l-.46-.21s.17.76.6.9c.43.15.99.09,1.2.43.21.33,2.51.54,2.51.54l-2.17-.91.06-.29Zm5.35,0l-.68.08s-.77.49-.28.66c.48.16,1.63-.03,1.4-.31-.22-.29-.44-.42-.44-.42Zm5.67,1.22l-.12-.41s-.79.41-.31.59c.48.16.43-.18.43-.18Z"/>
      <g>
        <g>
          <g>
            <path class="cls-31" d="m409.06,371.91c1.21.39,2.4.57,3.58.56-2.09-.64-3.98-1.04-5.64-1.2.67.19,1.35.4,2.06.64Z"/>
            <path class="cls-31" d="m379.44,392.19c1.38,1.54,3.24,3.17,5.59,4.9,2.34,1.73,4.21,3.02,5.59,3.86,1.38.85,3.34,2,5.88,3.46,3.69,2.07,6.41,3.74,8.18,5.01,1.77,1.27,2.94,2.36,3.51,3.28.58.92.82,1.96.75,3.11-.69.62-1.77,1.13-3.23,1.56-1.46.42-3.78.58-6.97.46-1.36-.05-2.81-.2-4.31-.43,3.41.84,6.52,1.33,9.31,1.43,3.19.12,5.51-.04,6.97-.46,1.46-.42,2.53-.94,3.23-1.56.08-1.15-.17-2.19-.75-3.11-.58-.92-1.75-2.02-3.51-3.28-1.77-1.27-4.49-2.94-8.18-5.01-2.53-1.46-4.49-2.61-5.88-3.46-1.38-.84-3.25-2.13-5.59-3.86-2.34-1.73-4.21-3.36-5.59-4.9-1.38-1.54-2.73-3.47-4.03-5.82-1.31-2.34-2.27-4.78-2.88-7.32-.84-4.3-.54-8.53.92-12.67,1.46-4.15,3.84-7.72,7.14-10.71,1.54-1.31,3.24-2.46,5.13-3.46,1.88-1,4.26-1.9,7.14-2.71s6.34-1.07,10.37-.81c1.03.07,2.07.18,3.13.33-2.8-.71-5.51-1.16-8.13-1.33-4.03-.27-7.49,0-10.37.81s-5.26,1.71-7.14,2.71c-1.88,1-3.59,2.15-5.13,3.46-3.3,3-5.69,6.57-7.14,10.71-1.46,4.15-1.77,8.37-.92,12.67.61,2.54,1.57,4.97,2.88,7.32,1.31,2.34,2.65,4.28,4.03,5.82Z"/>
            <path class="cls-31" d="m387.21,437.9c-2.84-.77-5.01-2.46-6.51-5.07-1.5-2.61-1.84-5.36-1.04-8.24.81-2.88,2.5-5.05,5.07-6.51,1.84-1.04,3.77-1.51,5.79-1.41-.83-.19-1.68-.39-2.55-.63-2.92-.77-5.67-.42-8.24,1.04-2.57,1.46-4.26,3.63-5.07,6.51-.81,2.88-.46,5.63,1.04,8.24,1.5,2.61,3.67,4.3,6.51,5.07,2.81.77,5.52,1.36,8.16,1.79-1.04-.24-2.09-.5-3.16-.79Z"/>
          </g>
          <g>
            <path class="cls-31" d="m482.58,384.28h-.12l-15.27.17s0,.04,0,.06l16.38-.19c-.32-.03-.65-.04-.99-.04Z"/>
            <path class="cls-31" d="m481.43,379.93c2.35.03,4.8.1,7.37.21.66.02,1.29-.03,1.9-.11-3.29-.1-6.38-.14-9.27-.1Z"/>
            <path class="cls-31" d="m493.77,410.1c-.83-.14-1.68-.2-2.55-.13-8.98.49-16.88.76-23.73.81,7.31.07,16.08-.16,26.28-.68Z"/>
            <path class="cls-31" d="m454.28,430.48c-2.77-1.46-4.9-4.49-6.39-9.1-1.5-4.61-2.34-9.7-2.53-15.27-.19-5.57-.14-11.14.17-16.71.31-5.57.71-10.2,1.21-13.88.5-3.69.86-5.84,1.09-6.45.46-1.31.92-2.34,1.38-3.11s1.65-1.79,3.57-3.05c1.92-1.27,4.4-2.21,7.43-2.82,3.03-.61,7.51-1.09,13.42-1.44,2.85-.17,5.95-.26,9.3-.3-5.31-.05-10.08.05-14.3.3-5.92.35-10.39.83-13.42,1.44-3.04.62-5.51,1.56-7.43,2.82-1.92,1.27-3.11,2.29-3.57,3.05s-.92,1.8-1.38,3.11c-.23.62-.6,2.76-1.09,6.45-.5,3.69-.9,8.32-1.21,13.88-.31,5.57-.37,11.14-.17,16.71.19,5.57,1.04,10.66,2.53,15.27,1.5,4.61,3.63,7.64,6.39,9.1,2.61,1.31,8.37,1.96,17.28,1.96.87,0,1.79,0,2.73-.02-7.62-.1-12.64-.75-15.02-1.94Z"/>
          </g>
          <g>
            <path class="cls-31" d="m543.91,382.52c1.27.16,2.48.11,3.63-.12-1.75-.15-3.43-.16-5.02,0,.46.04.92.07,1.39.13Z"/>
            <path class="cls-31" d="m550.05,385.58c-1.25-.29-2.56-.36-3.95-.18-3,.39-5.4,1.77-7.2,4.15-1.81,2.38-2.52,5.07-2.13,8.06l1.38,10.25c-1.36.26-2.64.45-3.84.57,2.43.29,5.37.11,8.84-.57l-1.38-10.25c-.39-3,.33-5.68,2.13-8.06,1.59-2.1,3.64-3.42,6.15-3.97Z"/>
            <path class="cls-31" d="m550.17,439.78c-2.07-1.77-3.27-3.99-3.57-6.68l-.58-3.8c-1.66.29-3.29.5-4.9.63l.48,3.17c.31,2.69,1.5,4.92,3.57,6.68,2.07,1.77,4.45,2.65,7.14,2.65.46,0,.92-.04,1.38-.12.36-.05.71-.11,1.05-.18-1.66-.39-3.19-1.17-4.58-2.35Z"/>
            <path class="cls-31" d="m529.09,429.35c-2.53-.5-4.69-1.13-6.45-1.9-1.77-.77-3.44-1.67-5.01-2.71-1.58-1.04-2.82-2-3.74-2.88-.92-.88-1.77-1.75-2.53-2.59-4.15-4.99-6.43-10.98-6.86-17.97-.42-6.99,1.13-13.67,4.67-20.05,3.99-7.37,9.81-12.86,17.46-16.48,5.1-2.41,10.52-3.73,16.24-4.02-7.6-.41-14.69.92-21.24,4.02-7.64,3.61-13.46,9.1-17.46,16.48-3.53,6.38-5.09,13.06-4.67,20.05.42,6.99,2.71,12.98,6.86,17.97.77.85,1.61,1.71,2.53,2.59.92.88,2.17,1.84,3.74,2.88,1.57,1.04,3.24,1.94,5.01,2.71,1.77.77,3.92,1.4,6.45,1.9,2.53.5,5.18.75,7.95.75.84,0,1.7-.03,2.55-.07-1.89-.1-3.73-.32-5.5-.67Z"/>
          </g>
          <g>
            <path class="cls-31" d="m598.18,412.2c1.84,0,3.46-.69,4.84-2.07,2.92-3.15,4.99-8.68,6.22-16.59,1.23-7.91,1.61-15.4,1.15-22.47-.15-3,.75-5.61,2.71-7.83,1.8-2.05,4.01-3.24,6.63-3.6-.76-.11-1.53-.15-2.31-.09-2.92.23-5.36,1.46-7.32,3.69-1.96,2.23-2.86,4.84-2.71,7.83.46,7.07.08,14.56-1.15,22.47-1.23,7.91-3.3,13.44-6.22,16.59-.98.98-2.09,1.61-3.31,1.9.46.11.94.18,1.47.18Z"/>
            <path class="cls-31" d="m577.68,424.53c-2.53-3.07-4.55-6.87-6.05-11.41-1.5-4.53-2.44-8.83-2.82-12.9-.39-4.07-.5-8.41-.35-13.02.15-4.61.38-8.12.69-10.54.31-2.42.61-4.59.92-6.51.54-3,2.03-5.34,4.49-7.03,1.43-.98,2.93-1.57,4.51-1.8-2.71-.37-5.21.22-7.51,1.8-2.46,1.69-3.96,4.03-4.49,7.03-.31,1.92-.62,4.09-.92,6.51-.31,2.42-.54,5.93-.69,10.54-.15,4.61-.04,8.95.35,13.02.38,4.07,1.32,8.37,2.82,12.9,1.5,4.53,3.51,8.33,6.05,11.41,5.22,6.22,12.06,9.33,20.51,9.33.51,0,1.01-.01,1.5-.03-7.76-.35-14.1-3.45-19.01-9.3Z"/>
          </g>
          <g>
            <path class="cls-31" d="m764.12,411.4c-.74.41-1.48.73-2.23.96.05.01.09.03.13.04,2.81.82,5.55.48,8.21-1,3.99-2.22,6.61-5.86,7.86-10.9,1.02-4.37.59-8.54-1.29-12.51-1.88-3.97-4.61-6.43-8.21-7.4-.86-.22-1.72-.33-2.58-.33-1.06,0-2.1.17-3.11.47,3.39,1.04,5.99,3.45,7.79,7.26,1.88,3.97,2.31,8.14,1.29,12.51-1.25,5.04-3.87,8.67-7.86,10.9Z"/>
            <path class="cls-31" d="m751.29,431.9c-5.92-1.53-11.02-4.53-15.32-9.01-4.3-4.48-7.28-9.79-8.93-15.95-1.65-6.15-1.67-12.44-.06-18.84,1.23-5.03,3.38-9.61,6.45-13.76,3.07-4.15,6.76-7.43,11.06-9.83,4.38-2.47,8.86-3.92,13.44-4.36-6.69-.63-13.17.82-19.44,4.36-4.3,2.4-7.99,5.68-11.06,9.83-3.07,4.15-5.22,8.74-6.45,13.76-1.61,6.41-1.59,12.69.06,18.84,1.65,6.15,4.63,11.47,8.93,15.95,4.3,4.48,9.41,7.48,15.32,9.01,2.84.73,5.72,1.09,8.64,1.09,1.01,0,2-.06,2.99-.15-1.89-.16-3.77-.47-5.63-.95Z"/>
          </g>
          <g>
            <path class="cls-31" d="m837.67,377.95c-1.84-1.84-5.45-3.19-10.83-4.03v1.08c2.68.78,4.63,1.76,5.83,2.95-1.07,1.42-3.02,2.79-5.83,4.11v2c5.61-1.92,9.22-3.96,10.83-6.11Z"/>
            <path class="cls-31" d="m848.95,430.46l-22.11-17.47v4.83l16,12.64c2.35,1.86,4.97,2.79,7.89,2.79,1.11,0,2.15-.12,3.15-.35-1.76-.42-3.4-1.23-4.92-2.44Z"/>
            <path class="cls-31" d="m813.38,430.43c-2.11-2.11-3.17-4.67-3.17-7.66v-47.93c-2.84.38-5.4-.25-7.66-1.9-2.27-1.65-3.67-3.9-4.21-6.74-.61-2.92-.08-5.61,1.61-8.07,1.69-2.46,3.99-3.96,6.91-4.49,5.36-1.04,10.49-1.62,15.39-1.76-6.39-.23-13.18.36-20.39,1.76-2.92.54-5.22,2.04-6.91,4.49-1.69,2.46-2.23,5.15-1.61,8.07.54,2.84,1.94,5.09,4.21,6.74,2.26,1.65,4.82,2.29,7.66,1.9v47.93c0,3,1.06,5.55,3.17,7.66,2.11,2.11,4.65,3.17,7.6,3.17.87,0,1.7-.1,2.5-.29-1.91-.44-3.61-1.39-5.1-2.88Z"/>
          </g>
          <g>
            <path class="cls-31" d="m634.87,430.51c-2.16-2.24-3.2-4.87-3.12-7.91l.72-35.84c.08-3.12,1.22-5.75,3.42-7.91,1.52-1.5,3.29-2.44,5.3-2.86-.71-.15-1.44-.24-2.21-.26-3.2-.08-5.9.96-8.09,3.12-2.2,2.16-3.34,4.79-3.42,7.91l-.72,35.84c-.08,3.04.96,5.68,3.12,7.91,2.16,2.24,4.8,3.4,7.91,3.48h.24c.87,0,1.69-.1,2.49-.27-2.15-.47-4.03-1.54-5.64-3.21Z"/>
            <path class="cls-31" d="m635.26,370.39c1.76,1,3.62,1.5,5.57,1.5.86,0,1.7-.11,2.53-.3-1.07-.24-2.1-.63-3.1-1.2-1.76-1-3.16-2.38-4.2-4.14-1.52-2.72-1.88-5.58-1.08-8.57.8-3,2.56-5.25,5.27-6.77l1.32-.72c.99-.55,2.01-.95,3.04-1.2-2.8-.62-5.48-.23-8.04,1.2l-1.32.72c-2.72,1.52-4.48,3.78-5.27,6.77-.8,3-.44,5.86,1.08,8.57,1.04,1.76,2.44,3.14,4.2,4.14Z"/>
          </g>
          <g>
            <path class="cls-31" d="m700.62,391.63c-.24-2.31-1.83-4.44-4.78-6.39-2.95-1.95-7.01-3.32-12.18-4.12v1.34c2.42.74,4.49,1.66,6.18,2.78,2.94,1.95,4.54,4.08,4.78,6.39.16,2.63-1.24,5.45-4.18,8.48-1.79,1.84-4.09,3.5-6.88,4.99v2.65c5.64-2.07,9.94-4.62,12.88-7.64,2.94-3.02,4.34-5.85,4.18-8.48Z"/>
            <path class="cls-31" d="m668.62,432.47l-.12-.12h-.24c-1.04-.4-2.03-1-2.98-1.79-.24-.24-.4-.36-.48-.36-.8-.72-1.51-1.59-2.15-2.63-.08-.08-.16-.24-.24-.48-.56-1.11-.92-2.27-1.07-3.46-.08,0-.12-.04-.12-.12v-.84c0-.08-.02-.2-.06-.36-.04-.16-.06-.32-.06-.48l.24-52.66v-.96l.12-1.19c.08-.08.2-.44.36-1.07.16-.64.28-1,.36-1.08,0-.08.16-.4.48-.96.32-.56.48-.88.48-.96.08-.08.32-.36.72-.84.4-.48.62-.73.66-.78.04-.04.3-.26.78-.66.48-.4.76-.64.84-.72.08-.08.18-.14.3-.18.12-.04.24-.1.36-.18.12-.08.22-.16.3-.24.48-.24.79-.4.96-.48.08,0,.42-.1,1.02-.3.6-.2.97-.34,1.13-.42l1.07-.12c.14-.02.27-.04.39-.05-1.65-.06-3.34-.09-5.07-.07h-.24c-.16,0-.52.04-1.07.12l-1.07.12c-.16.08-.54.22-1.13.42-.6.2-.94.3-1.02.3-.16.08-.48.24-.96.48-.08.08-.18.16-.3.24-.12.08-.24.14-.36.18-.12.04-.22.1-.3.18-.08.08-.36.32-.84.72-.48.4-.74.62-.78.66-.04.04-.26.3-.66.78-.4.48-.64.76-.72.84,0,.08-.16.4-.48.96-.32.56-.48.88-.48.96-.08.08-.2.44-.36,1.08-.16.64-.28,1-.36,1.07l-.12,1.19v.96l-.24,52.66c0,.16.02.32.06.48.04.16.06.28.06.36v.84c0,.08.04.12.12.12.16,1.19.52,2.35,1.07,3.46.08.24.16.4.24.48.64,1.04,1.35,1.91,2.15,2.63.08,0,.24.12.48.36.96.8,1.95,1.39,2.98,1.79h.24l.12.12c1.27.4,2.47.6,3.58.6h.12c.48,0,.99-.04,1.55-.12h.3c.12,0,.22-.04.3-.12h.12c.28-.04.56-.09.84-.13-.27-.07-.54-.14-.81-.23Z"/>
          </g>
        </g>
        <g>
          <g class="cls-27">
            <g>
              <path class="cls-4" d="m553.98,422.01c-.59,18.15-16.71,32.42-36.02,31.86-19.3-.56-34.48-15.72-33.89-33.86.59-18.15,16.72-32.41,36.02-31.86,19.3.56,34.47,15.72,33.88,33.86Z"/>
              <path class="cls-8" d="m609.7,383.56c-.59,18.15-16.72,32.41-36.02,31.86-19.3-.55-34.47-15.71-33.89-33.86.59-18.14,16.72-32.41,36.02-31.86,19.3.55,34.47,15.72,33.88,33.86Z"/>
              <path class="cls-7" d="m477.67,433.71c-.59,18.15-16.72,32.41-36.02,31.86-19.3-.55-34.47-15.71-33.88-33.86.59-18.14,16.72-32.41,36.02-31.86,19.3.55,34.48,15.71,33.89,33.87Z"/>
              <path class="cls-19" d="m674.63,379.22c-.59,18.14-16.72,32.41-36.02,31.86-19.31-.55-34.48-15.72-33.89-33.86.59-18.15,16.72-32.41,36.02-31.86,19.31.55,34.48,15.71,33.89,33.86Z"/>
              <path class="cls-10" d="m675.67,436.19c-.59,18.15-16.72,32.41-36.02,31.86-19.31-.55-34.48-15.71-33.89-33.86.59-18.15,16.71-32.41,36.02-31.86,19.3.56,34.48,15.71,33.89,33.87Z"/>
              <path class="cls-3" d="m717.69,428.74c-.59,18.15-16.71,32.42-36.02,31.86-19.3-.55-34.47-15.71-33.88-33.86.59-18.15,16.71-32.41,36.02-31.86,19.31.56,34.48,15.72,33.88,33.87Z"/>
              <path class="cls-3" d="m625.29,357.02c-.59,18.15-16.72,32.41-36.02,31.86-19.3-.55-34.47-15.72-33.88-33.86.59-18.15,16.71-32.41,36.02-31.86,19.3.55,34.47,15.71,33.89,33.86Z"/>
              <path class="cls-6" d="m704.71,393.45c-.59,18.15-16.72,32.41-36.02,31.86-19.3-.55-34.47-15.71-33.89-33.86.59-18.15,16.72-32.41,36.02-31.86,19.31.56,34.48,15.72,33.89,33.86Z"/>
              <path class="cls-6" d="m752.71,427.72c-.59,18.15-16.71,32.41-36.02,31.86-19.3-.55-34.48-15.71-33.89-33.86.59-18.15,16.71-32.41,36.02-31.86,19.3.55,34.47,15.71,33.88,33.86Z"/>
              <path class="cls-12" d="m825.92,371.62c-.59,18.14-16.71,32.41-36.02,31.86-19.3-.56-34.47-15.71-33.89-33.86.59-18.15,16.72-32.41,36.02-31.86,19.3.55,34.48,15.71,33.88,33.86Z"/>
              <path class="cls-8" d="m643.66,415.28c-.59,18.15-16.72,32.41-36.02,31.86-19.3-.55-34.47-15.71-33.88-33.86.58-18.15,16.71-32.41,36.02-31.86,19.3.56,34.47,15.71,33.89,33.86Z"/>
              <path class="cls-17" d="m595.73,433.9c-.59,18.14-16.71,32.41-36.02,31.86-19.3-.55-34.48-15.71-33.89-33.86.59-18.15,16.71-32.41,36.02-31.86,19.31.55,34.48,15.72,33.89,33.87Z"/>
              <path class="cls-13" d="m555.35,379.85c-.59,18.15-16.71,32.42-36.02,31.86-19.3-.56-34.48-15.72-33.89-33.87.59-18.15,16.71-32.41,36.02-31.86,19.3.56,34.47,15.71,33.89,33.86Z"/>
              <path class="cls-2" d="m517.58,407.6c-.59,18.15-16.71,32.41-36.01,31.86-19.31-.56-34.48-15.72-33.89-33.87.59-18.15,16.71-32.41,36.02-31.86,19.3.55,34.48,15.72,33.88,33.86Z"/>
              <path class="cls-7" d="m501.99,362.33c-.59,18.15-16.72,32.41-36.02,31.86-19.31-.56-34.48-15.72-33.89-33.87.59-18.15,16.71-32.41,36.02-31.85,19.3.55,34.47,15.71,33.89,33.86Z"/>
              <path class="cls-4" d="m458.44,381.77c-.59,18.15-16.72,32.41-36.02,31.86-19.31-.55-34.48-15.71-33.89-33.86.59-18.15,16.71-32.41,36.02-31.86,19.3.55,34.48,15.72,33.89,33.87Z"/>
              <path class="cls-15" d="m428.23,363.31c-.59,18.15-16.71,32.41-36.02,31.86-19.3-.55-34.48-15.71-33.89-33.86.59-18.15,16.71-32.41,36.02-31.86,19.3.56,34.48,15.72,33.88,33.86Z"/>
              <path class="cls-5" d="m511.94,455.73c-.59,18.15-16.72,32.41-36.02,31.86-19.31-.55-34.48-15.72-33.89-33.86.59-18.15,16.71-32.41,36.02-31.86,19.3.56,34.48,15.72,33.89,33.86Z"/>
              <path class="cls-15" d="m434.34,405.22c-.59,18.14-16.72,32.41-36.02,31.86-19.31-.55-34.48-15.71-33.89-33.87.59-18.15,16.71-32.41,36.02-31.86,19.31.55,34.47,15.71,33.89,33.87Z"/>
              <path class="cls-4" d="m401.02,417.63c-.58,18.15-16.71,32.41-36.02,31.86-19.31-.55-34.48-15.71-33.89-33.86.59-18.15,16.71-32.41,36.02-31.86,19.3.55,34.48,15.71,33.88,33.86Z"/>
              <path class="cls-14" d="m727.67,389.49c-.59,18.15-16.72,32.41-36.02,31.86-19.31-.55-34.48-15.72-33.89-33.86.59-18.14,16.72-32.41,36.02-31.86,19.31.55,34.48,15.71,33.89,33.86Z"/>
              <path class="cls-14" d="m767.27,373.04c-.59,18.15-16.71,32.41-36.02,31.86-19.3-.55-34.47-15.71-33.89-33.86.59-18.15,16.72-32.41,36.02-31.86,19.31.56,34.48,15.72,33.89,33.86Z"/>
              <path class="cls-14" d="m801.51,396.22c-.59,18.15-16.72,32.41-36.02,31.86-19.31-.55-34.48-15.71-33.89-33.86.59-18.15,16.71-32.41,36.02-31.86,19.3.56,34.48,15.72,33.89,33.87Z"/>
              <path class="cls-6" d="m819.34,431.66c-.58,18.15-16.71,32.41-36.02,31.86-19.3-.56-34.47-15.72-33.88-33.86.59-18.15,16.71-32.41,36.02-31.86,19.3.55,34.47,15.71,33.88,33.86Z"/>
              <path class="cls-11" d="m859.6,411.77c-.59,18.15-16.71,32.41-36.02,31.86-19.3-.55-34.47-15.71-33.88-33.86.59-18.15,16.71-32.41,36.02-31.86,19.3.55,34.47,15.71,33.88,33.86Z"/>
              <path class="cls-9" d="m881.6,439c-.59,18.14-16.72,32.4-36.02,31.85-19.31-.55-34.48-15.71-33.88-33.86.58-18.15,16.71-32.41,36.01-31.86,19.31.55,34.48,15.71,33.89,33.87Z"/>
              <path class="cls-9" d="m864.36,367.32c-.59,18.15-16.71,32.41-36.02,31.86-19.31-.56-34.48-15.72-33.88-33.87.59-18.15,16.71-32.41,36.01-31.86,19.3.55,34.47,15.71,33.89,33.86Z"/>
              <path class="cls-16" d="m940.22,400.2c-.59,18.15-16.71,32.41-36.02,31.86-19.3-.56-34.47-15.72-33.89-33.87.59-18.15,16.71-32.41,36.02-31.86,19.31.55,34.47,15.71,33.88,33.86Z"/>
              <path class="cls-18" d="m905.57,389.9c-.58,18.15-16.71,32.41-36.02,31.86-19.3-.55-34.47-15.71-33.89-33.86.59-18.15,16.72-32.41,36.02-31.86,19.31.56,34.48,15.72,33.88,33.87Z"/>
              <path class="cls-1" d="m903.4,355.31c-.59,18.14-16.71,32.41-36.02,31.86-19.31-.55-34.48-15.71-33.88-33.86.59-18.15,16.71-32.41,36.02-31.86,19.3.55,34.47,15.71,33.88,33.87Z"/>
            </g>
          </g>
          <g class="cls-25">
            <g>
              <path class="cls-4" d="m560.98,412.01c-.59,18.15-16.71,32.42-36.02,31.86-19.3-.56-34.48-15.72-33.89-33.86.59-18.15,16.72-32.41,36.02-31.86,19.3.56,34.47,15.72,33.88,33.86Z"/>
              <path class="cls-8" d="m616.7,373.56c-.59,18.15-16.72,32.41-36.02,31.86-19.3-.55-34.47-15.71-33.89-33.86.59-18.14,16.72-32.41,36.02-31.86,19.3.55,34.47,15.72,33.88,33.86Z"/>
              <path class="cls-7" d="m484.67,423.71c-.59,18.15-16.72,32.41-36.02,31.86-19.3-.55-34.47-15.71-33.88-33.86.59-18.14,16.72-32.41,36.02-31.86,19.3.55,34.48,15.71,33.89,33.87Z"/>
              <path class="cls-19" d="m681.63,369.22c-.59,18.14-16.72,32.41-36.02,31.86-19.31-.55-34.48-15.72-33.89-33.86.59-18.15,16.72-32.41,36.02-31.86,19.31.55,34.48,15.71,33.89,33.86Z"/>
              <path class="cls-10" d="m682.67,426.19c-.59,18.15-16.72,32.41-36.02,31.86-19.31-.55-34.48-15.71-33.89-33.86.59-18.15,16.71-32.41,36.02-31.86,19.3.56,34.48,15.71,33.89,33.87Z"/>
              <path class="cls-3" d="m724.69,418.74c-.59,18.15-16.71,32.42-36.02,31.86-19.3-.55-34.47-15.71-33.88-33.86.59-18.15,16.71-32.41,36.02-31.86,19.31.56,34.48,15.72,33.88,33.87Z"/>
              <path class="cls-3" d="m632.29,347.02c-.59,18.15-16.72,32.41-36.02,31.86-19.3-.55-34.47-15.72-33.88-33.86.59-18.15,16.71-32.41,36.02-31.86,19.3.55,34.47,15.71,33.89,33.86Z"/>
              <path class="cls-6" d="m711.71,383.45c-.59,18.15-16.72,32.41-36.02,31.86-19.3-.55-34.47-15.71-33.89-33.86.59-18.15,16.72-32.41,36.02-31.86,19.31.56,34.48,15.72,33.89,33.86Z"/>
              <path class="cls-6" d="m759.71,417.72c-.59,18.15-16.71,32.41-36.02,31.86-19.3-.55-34.48-15.71-33.89-33.86.59-18.15,16.71-32.41,36.02-31.86,19.3.55,34.47,15.71,33.88,33.86Z"/>
              <path class="cls-12" d="m832.92,361.62c-.59,18.14-16.71,32.41-36.02,31.86-19.3-.56-34.47-15.71-33.89-33.86.59-18.15,16.72-32.41,36.02-31.86,19.3.55,34.48,15.71,33.88,33.86Z"/>
              <path class="cls-8" d="m650.66,405.28c-.59,18.15-16.72,32.41-36.02,31.86-19.3-.55-34.47-15.71-33.88-33.86.58-18.15,16.71-32.41,36.02-31.86,19.3.56,34.47,15.71,33.89,33.86Z"/>
              <path class="cls-17" d="m602.73,423.9c-.59,18.14-16.71,32.41-36.02,31.86-19.3-.55-34.48-15.71-33.89-33.86.59-18.15,16.71-32.41,36.02-31.86,19.31.55,34.48,15.72,33.89,33.87Z"/>
              <path class="cls-13" d="m562.35,369.85c-.59,18.15-16.71,32.42-36.02,31.86-19.3-.56-34.48-15.72-33.89-33.87.59-18.15,16.71-32.41,36.02-31.86,19.3.56,34.47,15.71,33.89,33.86Z"/>
              <path class="cls-2" d="m524.58,397.6c-.59,18.15-16.71,32.41-36.01,31.86-19.31-.56-34.48-15.72-33.89-33.87.59-18.15,16.71-32.41,36.02-31.86,19.3.55,34.48,15.72,33.88,33.86Z"/>
              <path class="cls-7" d="m508.99,352.33c-.59,18.15-16.72,32.41-36.02,31.86-19.31-.56-34.48-15.72-33.89-33.87.59-18.15,16.71-32.41,36.02-31.85,19.3.55,34.47,15.71,33.89,33.86Z"/>
              <path class="cls-4" d="m465.44,371.77c-.59,18.15-16.72,32.41-36.02,31.86-19.31-.55-34.48-15.71-33.89-33.86.59-18.15,16.71-32.41,36.02-31.86,19.3.55,34.48,15.72,33.89,33.87Z"/>
              <path class="cls-15" d="m435.23,353.31c-.59,18.15-16.71,32.41-36.02,31.86-19.3-.55-34.48-15.71-33.89-33.86.59-18.15,16.71-32.41,36.02-31.86,19.3.56,34.48,15.72,33.88,33.86Z"/>
              <path class="cls-5" d="m518.94,445.73c-.59,18.15-16.72,32.41-36.02,31.86-19.31-.55-34.48-15.72-33.89-33.86.59-18.15,16.71-32.41,36.02-31.86,19.3.56,34.48,15.72,33.89,33.86Z"/>
              <path class="cls-15" d="m441.34,395.22c-.59,18.14-16.72,32.41-36.02,31.86-19.31-.55-34.48-15.71-33.89-33.87.59-18.15,16.71-32.41,36.02-31.86,19.31.55,34.47,15.71,33.89,33.87Z"/>
              <path class="cls-4" d="m408.02,407.63c-.58,18.15-16.71,32.41-36.02,31.86-19.31-.55-34.48-15.71-33.89-33.86.59-18.15,16.71-32.41,36.02-31.86,19.3.55,34.48,15.71,33.88,33.86Z"/>
              <path class="cls-14" d="m734.67,379.49c-.59,18.15-16.72,32.41-36.02,31.86-19.31-.55-34.48-15.72-33.89-33.86.59-18.14,16.72-32.41,36.02-31.86,19.31.55,34.48,15.71,33.89,33.86Z"/>
              <path class="cls-14" d="m774.27,363.04c-.59,18.15-16.71,32.41-36.02,31.86-19.3-.55-34.47-15.71-33.89-33.86.59-18.15,16.72-32.41,36.02-31.86,19.31.56,34.48,15.72,33.89,33.86Z"/>
              <path class="cls-14" d="m808.51,386.22c-.59,18.15-16.72,32.41-36.02,31.86-19.31-.55-34.48-15.71-33.89-33.86.59-18.15,16.71-32.41,36.02-31.86,19.3.56,34.48,15.72,33.89,33.87Z"/>
              <path class="cls-6" d="m826.34,421.66c-.58,18.15-16.71,32.41-36.02,31.86-19.3-.56-34.47-15.72-33.88-33.86.59-18.15,16.71-32.41,36.02-31.86,19.3.55,34.47,15.71,33.88,33.86Z"/>
              <path class="cls-11" d="m866.6,401.77c-.59,18.15-16.71,32.41-36.02,31.86-19.3-.55-34.47-15.71-33.88-33.86.59-18.15,16.71-32.41,36.02-31.86,19.3.55,34.47,15.71,33.88,33.86Z"/>
              <path class="cls-9" d="m888.6,429c-.59,18.14-16.72,32.4-36.02,31.85-19.31-.55-34.48-15.71-33.88-33.86.58-18.15,16.71-32.41,36.01-31.86,19.31.55,34.48,15.71,33.89,33.87Z"/>
              <path class="cls-9" d="m871.36,357.32c-.59,18.15-16.71,32.41-36.02,31.86-19.31-.56-34.48-15.72-33.88-33.87.59-18.15,16.71-32.41,36.01-31.86,19.3.55,34.47,15.71,33.89,33.86Z"/>
              <path class="cls-16" d="m947.22,390.2c-.59,18.15-16.71,32.41-36.02,31.86-19.3-.56-34.47-15.72-33.89-33.87.59-18.15,16.71-32.41,36.02-31.86,19.31.55,34.47,15.71,33.88,33.86Z"/>
              <path class="cls-18" d="m912.57,379.9c-.58,18.15-16.71,32.41-36.02,31.86-19.3-.55-34.47-15.71-33.89-33.86.59-18.15,16.72-32.41,36.02-31.86,19.31.56,34.48,15.72,33.88,33.87Z"/>
              <path class="cls-1" d="m910.4,345.31c-.59,18.14-16.71,32.41-36.02,31.86-19.31-.55-34.48-15.71-33.88-33.86.59-18.15,16.71-32.41,36.02-31.86,19.3.55,34.47,15.71,33.88,33.87Z"/>
            </g>
          </g>
          <g class="cls-21">
            <g>
              <path class="cls-4" d="m562.98,421.01c-.59,18.15-16.71,32.42-36.02,31.86-19.3-.56-34.48-15.72-33.89-33.86.59-18.15,16.72-32.41,36.02-31.86,19.3.56,34.47,15.72,33.88,33.86Z"/>
              <path class="cls-8" d="m618.7,382.56c-.59,18.15-16.72,32.41-36.02,31.86-19.3-.55-34.47-15.71-33.89-33.86.59-18.14,16.72-32.41,36.02-31.86,19.3.55,34.47,15.72,33.88,33.86Z"/>
              <path class="cls-7" d="m486.67,432.71c-.59,18.15-16.72,32.41-36.02,31.86-19.3-.55-34.47-15.71-33.88-33.86.59-18.14,16.72-32.41,36.02-31.86,19.3.55,34.48,15.71,33.89,33.87Z"/>
              <path class="cls-19" d="m683.63,378.22c-.59,18.14-16.72,32.41-36.02,31.86-19.31-.55-34.48-15.72-33.89-33.86.59-18.15,16.72-32.41,36.02-31.86,19.31.55,34.48,15.71,33.89,33.86Z"/>
              <path class="cls-10" d="m684.67,435.19c-.59,18.15-16.72,32.41-36.02,31.86-19.31-.55-34.48-15.71-33.89-33.86.59-18.15,16.71-32.41,36.02-31.86,19.3.56,34.48,15.71,33.89,33.87Z"/>
              <path class="cls-3" d="m726.69,427.74c-.59,18.15-16.71,32.42-36.02,31.86-19.3-.55-34.47-15.71-33.88-33.86.59-18.15,16.71-32.41,36.02-31.86,19.31.56,34.48,15.72,33.88,33.87Z"/>
              <path class="cls-3" d="m634.29,356.02c-.59,18.15-16.72,32.41-36.02,31.86-19.3-.55-34.47-15.72-33.88-33.86.59-18.15,16.71-32.41,36.02-31.86,19.3.55,34.47,15.71,33.89,33.86Z"/>
              <path class="cls-6" d="m713.71,392.45c-.59,18.15-16.72,32.41-36.02,31.86-19.3-.55-34.47-15.71-33.89-33.86.59-18.15,16.72-32.41,36.02-31.86,19.31.56,34.48,15.72,33.89,33.86Z"/>
              <path class="cls-6" d="m761.71,426.72c-.59,18.15-16.71,32.41-36.02,31.86-19.3-.55-34.48-15.71-33.89-33.86.59-18.15,16.71-32.41,36.02-31.86,19.3.55,34.47,15.71,33.88,33.86Z"/>
              <path class="cls-12" d="m834.92,370.62c-.59,18.14-16.71,32.41-36.02,31.86-19.3-.56-34.47-15.71-33.89-33.86.59-18.15,16.72-32.41,36.02-31.86,19.3.55,34.48,15.71,33.88,33.86Z"/>
              <path class="cls-8" d="m652.66,414.28c-.59,18.15-16.72,32.41-36.02,31.86-19.3-.55-34.47-15.71-33.88-33.86.58-18.15,16.71-32.41,36.02-31.86,19.3.56,34.47,15.71,33.89,33.86Z"/>
              <path class="cls-17" d="m604.73,432.9c-.59,18.14-16.71,32.41-36.02,31.86-19.3-.55-34.48-15.71-33.89-33.86.59-18.15,16.71-32.41,36.02-31.86,19.31.55,34.48,15.72,33.89,33.87Z"/>
              <path class="cls-13" d="m564.35,378.85c-.59,18.15-16.71,32.42-36.02,31.86-19.3-.56-34.48-15.72-33.89-33.87.59-18.15,16.71-32.41,36.02-31.86,19.3.56,34.47,15.71,33.89,33.86Z"/>
              <path class="cls-2" d="m526.58,406.6c-.59,18.15-16.71,32.41-36.01,31.86-19.31-.56-34.48-15.72-33.89-33.87.59-18.15,16.71-32.41,36.02-31.86,19.3.55,34.48,15.72,33.88,33.86Z"/>
              <path class="cls-7" d="m510.99,361.33c-.59,18.15-16.72,32.41-36.02,31.86-19.31-.56-34.48-15.72-33.89-33.87.59-18.15,16.71-32.41,36.02-31.85,19.3.55,34.47,15.71,33.89,33.86Z"/>
              <path class="cls-4" d="m467.44,380.77c-.59,18.15-16.72,32.41-36.02,31.86-19.31-.55-34.48-15.71-33.89-33.86.59-18.15,16.71-32.41,36.02-31.86,19.3.55,34.48,15.72,33.89,33.87Z"/>
              <path class="cls-15" d="m437.23,362.31c-.59,18.15-16.71,32.41-36.02,31.86-19.3-.55-34.48-15.71-33.89-33.86.59-18.15,16.71-32.41,36.02-31.86,19.3.56,34.48,15.72,33.88,33.86Z"/>
              <path class="cls-5" d="m520.94,454.73c-.59,18.15-16.72,32.41-36.02,31.86-19.31-.55-34.48-15.72-33.89-33.86.59-18.15,16.71-32.41,36.02-31.86,19.3.56,34.48,15.72,33.89,33.86Z"/>
              <path class="cls-15" d="m443.34,404.22c-.59,18.14-16.72,32.41-36.02,31.86-19.31-.55-34.48-15.71-33.89-33.87.59-18.15,16.71-32.41,36.02-31.86,19.31.55,34.47,15.71,33.89,33.87Z"/>
              <path class="cls-4" d="m410.02,416.63c-.58,18.15-16.71,32.41-36.02,31.86-19.31-.55-34.48-15.71-33.89-33.86.59-18.15,16.71-32.41,36.02-31.86,19.3.55,34.48,15.71,33.88,33.86Z"/>
              <path class="cls-14" d="m736.67,388.49c-.59,18.15-16.72,32.41-36.02,31.86-19.31-.55-34.48-15.72-33.89-33.86.59-18.14,16.72-32.41,36.02-31.86,19.31.55,34.48,15.71,33.89,33.86Z"/>
              <path class="cls-14" d="m776.27,372.04c-.59,18.15-16.71,32.41-36.02,31.86-19.3-.55-34.47-15.71-33.89-33.86.59-18.15,16.72-32.41,36.02-31.86,19.31.56,34.48,15.72,33.89,33.86Z"/>
              <path class="cls-14" d="m810.51,395.22c-.59,18.15-16.72,32.41-36.02,31.86-19.31-.55-34.48-15.71-33.89-33.86.59-18.15,16.71-32.41,36.02-31.86,19.3.56,34.48,15.72,33.89,33.87Z"/>
              <path class="cls-6" d="m828.34,430.66c-.58,18.15-16.71,32.41-36.02,31.86-19.3-.56-34.47-15.72-33.88-33.86.59-18.15,16.71-32.41,36.02-31.86,19.3.55,34.47,15.71,33.88,33.86Z"/>
              <path class="cls-11" d="m868.6,410.77c-.59,18.15-16.71,32.41-36.02,31.86-19.3-.55-34.47-15.71-33.88-33.86.59-18.15,16.71-32.41,36.02-31.86,19.3.55,34.47,15.71,33.88,33.86Z"/>
              <path class="cls-9" d="m890.6,438c-.59,18.14-16.72,32.4-36.02,31.85-19.31-.55-34.48-15.71-33.88-33.86.58-18.15,16.71-32.41,36.01-31.86,19.31.55,34.48,15.71,33.89,33.87Z"/>
              <path class="cls-9" d="m873.36,366.32c-.59,18.15-16.71,32.41-36.02,31.86-19.31-.56-34.48-15.72-33.88-33.87.59-18.15,16.71-32.41,36.01-31.86,19.3.55,34.47,15.71,33.89,33.86Z"/>
              <path class="cls-16" d="m949.22,399.2c-.59,18.15-16.71,32.41-36.02,31.86-19.3-.56-34.47-15.72-33.89-33.87.59-18.15,16.71-32.41,36.02-31.86,19.31.55,34.47,15.71,33.88,33.86Z"/>
              <path class="cls-18" d="m914.57,388.9c-.58,18.15-16.71,32.41-36.02,31.86-19.3-.55-34.47-15.71-33.89-33.86.59-18.15,16.72-32.41,36.02-31.86,19.31.56,34.48,15.72,33.88,33.87Z"/>
              <path class="cls-1" d="m912.4,354.31c-.59,18.14-16.71,32.41-36.02,31.86-19.31-.55-34.48-15.71-33.88-33.86.59-18.15,16.71-32.41,36.02-31.86,19.3.55,34.47,15.71,33.88,33.87Z"/>
            </g>
          </g>
          <g class="cls-29">
            <g>
              <path class="cls-4" d="m551.98,418.01c-.59,18.15-16.71,32.42-36.02,31.86-19.3-.56-34.48-15.72-33.89-33.86.59-18.15,16.72-32.41,36.02-31.86,19.3.56,34.47,15.72,33.88,33.86Z"/>
              <path class="cls-8" d="m607.7,379.56c-.59,18.15-16.72,32.41-36.02,31.86-19.3-.55-34.47-15.71-33.89-33.86.59-18.14,16.72-32.41,36.02-31.86,19.3.55,34.47,15.72,33.88,33.86Z"/>
              <path class="cls-7" d="m475.67,429.71c-.59,18.15-16.72,32.41-36.02,31.86-19.3-.55-34.47-15.71-33.88-33.86.59-18.14,16.72-32.41,36.02-31.86,19.3.55,34.48,15.71,33.89,33.87Z"/>
              <path class="cls-19" d="m672.63,375.22c-.59,18.14-16.72,32.41-36.02,31.86-19.31-.55-34.48-15.72-33.89-33.86.59-18.15,16.72-32.41,36.02-31.86,19.31.55,34.48,15.71,33.89,33.86Z"/>
              <path class="cls-10" d="m673.67,432.19c-.59,18.15-16.72,32.41-36.02,31.86-19.31-.55-34.48-15.71-33.89-33.86.59-18.15,16.71-32.41,36.02-31.86,19.3.56,34.48,15.71,33.89,33.87Z"/>
              <path class="cls-3" d="m715.69,424.74c-.59,18.15-16.71,32.42-36.02,31.86-19.3-.55-34.47-15.71-33.88-33.86.59-18.15,16.71-32.41,36.02-31.86,19.31.56,34.48,15.72,33.88,33.87Z"/>
              <path class="cls-3" d="m623.29,353.02c-.59,18.15-16.72,32.41-36.02,31.86-19.3-.55-34.47-15.72-33.88-33.86.59-18.15,16.71-32.41,36.02-31.86,19.3.55,34.47,15.71,33.89,33.86Z"/>
              <path class="cls-6" d="m702.71,389.45c-.59,18.15-16.72,32.41-36.02,31.86-19.3-.55-34.47-15.71-33.89-33.86.59-18.15,16.72-32.41,36.02-31.86,19.31.56,34.48,15.72,33.89,33.86Z"/>
              <path class="cls-6" d="m750.71,423.72c-.59,18.15-16.71,32.41-36.02,31.86-19.3-.55-34.48-15.71-33.89-33.86.59-18.15,16.71-32.41,36.02-31.86,19.3.55,34.47,15.71,33.88,33.86Z"/>
              <path class="cls-12" d="m823.92,367.62c-.59,18.14-16.71,32.41-36.02,31.86-19.3-.56-34.47-15.71-33.89-33.86.59-18.15,16.72-32.41,36.02-31.86,19.3.55,34.48,15.71,33.88,33.86Z"/>
              <path class="cls-8" d="m641.66,411.28c-.59,18.15-16.72,32.41-36.02,31.86-19.3-.55-34.47-15.71-33.88-33.86.58-18.15,16.71-32.41,36.02-31.86,19.3.56,34.47,15.71,33.89,33.86Z"/>
              <path class="cls-17" d="m593.73,429.9c-.59,18.14-16.71,32.41-36.02,31.86-19.3-.55-34.48-15.71-33.89-33.86.59-18.15,16.71-32.41,36.02-31.86,19.31.55,34.48,15.72,33.89,33.87Z"/>
              <path class="cls-13" d="m553.35,375.85c-.59,18.15-16.71,32.42-36.02,31.86-19.3-.56-34.48-15.72-33.89-33.87.59-18.15,16.71-32.41,36.02-31.86,19.3.56,34.47,15.71,33.89,33.86Z"/>
              <path class="cls-2" d="m515.58,403.6c-.59,18.15-16.71,32.41-36.01,31.86-19.31-.56-34.48-15.72-33.89-33.87.59-18.15,16.71-32.41,36.02-31.86,19.3.55,34.48,15.72,33.88,33.86Z"/>
              <path class="cls-7" d="m499.99,358.33c-.59,18.15-16.72,32.41-36.02,31.86-19.31-.56-34.48-15.72-33.89-33.87.59-18.15,16.71-32.41,36.02-31.85,19.3.55,34.47,15.71,33.89,33.86Z"/>
              <path class="cls-4" d="m456.44,377.77c-.59,18.15-16.72,32.41-36.02,31.86-19.31-.55-34.48-15.71-33.89-33.86.59-18.15,16.71-32.41,36.02-31.86,19.3.55,34.48,15.72,33.89,33.87Z"/>
              <path class="cls-15" d="m426.23,359.31c-.59,18.15-16.71,32.41-36.02,31.86-19.3-.55-34.48-15.71-33.89-33.86.59-18.15,16.71-32.41,36.02-31.86,19.3.56,34.48,15.72,33.88,33.86Z"/>
              <path class="cls-5" d="m509.94,451.73c-.59,18.15-16.72,32.41-36.02,31.86-19.31-.55-34.48-15.72-33.89-33.86.59-18.15,16.71-32.41,36.02-31.86,19.3.56,34.48,15.72,33.89,33.86Z"/>
              <path class="cls-15" d="m432.34,401.22c-.59,18.14-16.72,32.41-36.02,31.86-19.31-.55-34.48-15.71-33.89-33.87.59-18.15,16.71-32.41,36.02-31.86,19.31.55,34.47,15.71,33.89,33.87Z"/>
              <path class="cls-4" d="m399.02,413.63c-.58,18.15-16.71,32.41-36.02,31.86-19.31-.55-34.48-15.71-33.89-33.86.59-18.15,16.71-32.41,36.02-31.86,19.3.55,34.48,15.71,33.88,33.86Z"/>
              <path class="cls-14" d="m725.67,385.49c-.59,18.15-16.72,32.41-36.02,31.86-19.31-.55-34.48-15.72-33.89-33.86.59-18.14,16.72-32.41,36.02-31.86,19.31.55,34.48,15.71,33.89,33.86Z"/>
              <path class="cls-14" d="m765.27,369.04c-.59,18.15-16.71,32.41-36.02,31.86-19.3-.55-34.47-15.71-33.89-33.86.59-18.15,16.72-32.41,36.02-31.86,19.31.56,34.48,15.72,33.89,33.86Z"/>
              <path class="cls-14" d="m799.51,392.22c-.59,18.15-16.72,32.41-36.02,31.86-19.31-.55-34.48-15.71-33.89-33.86.59-18.15,16.71-32.41,36.02-31.86,19.3.56,34.48,15.72,33.89,33.87Z"/>
              <path class="cls-6" d="m817.34,427.66c-.58,18.15-16.71,32.41-36.02,31.86-19.3-.56-34.47-15.72-33.88-33.86.59-18.15,16.71-32.41,36.02-31.86,19.3.55,34.47,15.71,33.88,33.86Z"/>
              <path class="cls-11" d="m857.6,407.77c-.59,18.15-16.71,32.41-36.02,31.86-19.3-.55-34.47-15.71-33.88-33.86.59-18.15,16.71-32.41,36.02-31.86,19.3.55,34.47,15.71,33.88,33.86Z"/>
              <path class="cls-9" d="m879.6,435c-.59,18.14-16.72,32.4-36.02,31.85-19.31-.55-34.48-15.71-33.88-33.86.58-18.15,16.71-32.41,36.01-31.86,19.31.55,34.48,15.71,33.89,33.87Z"/>
              <path class="cls-9" d="m862.36,363.32c-.59,18.15-16.71,32.41-36.02,31.86-19.31-.56-34.48-15.72-33.88-33.87.59-18.15,16.71-32.41,36.01-31.86,19.3.55,34.47,15.71,33.89,33.86Z"/>
              <path class="cls-16" d="m938.22,396.2c-.59,18.15-16.71,32.41-36.02,31.86-19.3-.56-34.47-15.72-33.89-33.87.59-18.15,16.71-32.41,36.02-31.86,19.31.55,34.47,15.71,33.88,33.86Z"/>
              <path class="cls-18" d="m903.57,385.9c-.58,18.15-16.71,32.41-36.02,31.86-19.3-.55-34.47-15.71-33.89-33.86.59-18.15,16.72-32.41,36.02-31.86,19.31.56,34.48,15.72,33.88,33.87Z"/>
              <path class="cls-1" d="m901.4,351.31c-.59,18.14-16.71,32.41-36.02,31.86-19.31-.55-34.48-15.71-33.88-33.86.59-18.15,16.71-32.41,36.02-31.86,19.3.55,34.47,15.71,33.88,33.87Z"/>
            </g>
          </g>
          <g class="cls-26">
            <g>
              <path class="cls-4" d="m565.98,424.17c-.59,18.15-16.71,32.42-36.02,31.86-19.3-.56-34.48-15.72-33.89-33.86.59-18.15,16.72-32.41,36.02-31.86,19.3.56,34.47,15.72,33.88,33.86Z"/>
              <path class="cls-8" d="m621.7,385.72c-.59,18.15-16.72,32.41-36.02,31.86-19.3-.55-34.47-15.71-33.89-33.86.59-18.14,16.72-32.41,36.02-31.86,19.3.55,34.47,15.72,33.88,33.86Z"/>
              <path class="cls-7" d="m489.67,435.87c-.59,18.15-16.72,32.41-36.02,31.86-19.3-.55-34.47-15.71-33.88-33.86.59-18.14,16.72-32.41,36.02-31.86,19.3.55,34.48,15.71,33.89,33.87Z"/>
              <path class="cls-19" d="m686.63,381.38c-.59,18.14-16.72,32.41-36.02,31.86-19.31-.55-34.48-15.72-33.89-33.86.59-18.15,16.72-32.41,36.02-31.86,19.31.55,34.48,15.71,33.89,33.86Z"/>
              <path class="cls-10" d="m687.67,438.35c-.59,18.15-16.72,32.41-36.02,31.86-19.31-.55-34.48-15.71-33.89-33.86.59-18.15,16.71-32.41,36.02-31.86,19.3.56,34.48,15.71,33.89,33.87Z"/>
              <path class="cls-3" d="m729.69,430.9c-.59,18.15-16.71,32.42-36.02,31.86-19.3-.55-34.47-15.71-33.88-33.86.59-18.15,16.71-32.41,36.02-31.86,19.31.56,34.48,15.72,33.88,33.87Z"/>
              <path class="cls-3" d="m637.29,359.18c-.59,18.15-16.72,32.41-36.02,31.86-19.3-.55-34.47-15.72-33.88-33.86.59-18.15,16.71-32.41,36.02-31.86,19.3.55,34.47,15.71,33.89,33.86Z"/>
              <path class="cls-6" d="m716.71,395.61c-.59,18.15-16.72,32.41-36.02,31.86-19.3-.55-34.47-15.71-33.89-33.86.59-18.15,16.72-32.41,36.02-31.86,19.31.56,34.48,15.72,33.89,33.86Z"/>
              <path class="cls-6" d="m764.71,429.87c-.59,18.15-16.71,32.41-36.02,31.86-19.3-.55-34.48-15.71-33.89-33.86.59-18.15,16.71-32.41,36.02-31.86,19.3.55,34.47,15.71,33.88,33.86Z"/>
              <path class="cls-12" d="m837.92,373.78c-.59,18.14-16.71,32.41-36.02,31.86-19.3-.56-34.47-15.71-33.89-33.86.59-18.15,16.72-32.41,36.02-31.86,19.3.55,34.48,15.71,33.88,33.86Z"/>
              <path class="cls-8" d="m655.66,417.44c-.59,18.15-16.72,32.41-36.02,31.86-19.3-.55-34.47-15.71-33.88-33.86.58-18.15,16.71-32.41,36.02-31.86,19.3.56,34.47,15.71,33.89,33.86Z"/>
              <path class="cls-17" d="m607.73,436.06c-.59,18.14-16.71,32.41-36.02,31.86-19.3-.55-34.48-15.71-33.89-33.86.59-18.15,16.71-32.41,36.02-31.86,19.31.55,34.48,15.72,33.89,33.87Z"/>
              <path class="cls-13" d="m567.35,382.01c-.59,18.15-16.71,32.42-36.02,31.86-19.3-.56-34.48-15.72-33.89-33.87.59-18.15,16.71-32.41,36.02-31.86,19.3.56,34.47,15.71,33.89,33.86Z"/>
              <path class="cls-2" d="m529.58,409.76c-.59,18.15-16.71,32.41-36.01,31.86-19.31-.56-34.48-15.72-33.89-33.87.59-18.15,16.71-32.41,36.02-31.86,19.3.55,34.48,15.72,33.88,33.86Z"/>
              <path class="cls-7" d="m513.99,364.49c-.59,18.15-16.72,32.41-36.02,31.86-19.31-.56-34.48-15.72-33.89-33.87.59-18.15,16.71-32.41,36.02-31.85,19.3.55,34.47,15.71,33.89,33.86Z"/>
              <path class="cls-4" d="m470.44,383.93c-.59,18.15-16.72,32.41-36.02,31.86-19.31-.55-34.48-15.71-33.89-33.86.59-18.15,16.71-32.41,36.02-31.86,19.3.55,34.48,15.72,33.89,33.87Z"/>
              <path class="cls-15" d="m440.23,365.47c-.59,18.15-16.71,32.41-36.02,31.86-19.3-.55-34.48-15.71-33.89-33.86.59-18.15,16.71-32.41,36.02-31.86,19.3.56,34.48,15.72,33.88,33.86Z"/>
              <path class="cls-5" d="m523.94,457.89c-.59,18.15-16.72,32.41-36.02,31.86-19.31-.55-34.48-15.72-33.89-33.86.59-18.15,16.71-32.41,36.02-31.86,19.3.56,34.48,15.72,33.89,33.86Z"/>
              <path class="cls-15" d="m446.34,407.38c-.59,18.14-16.72,32.41-36.02,31.86-19.31-.55-34.48-15.71-33.89-33.87.59-18.15,16.71-32.41,36.02-31.86,19.31.55,34.47,15.71,33.89,33.87Z"/>
              <path class="cls-4" d="m413.02,419.79c-.58,18.15-16.71,32.41-36.02,31.86-19.31-.55-34.48-15.71-33.89-33.86.59-18.15,16.71-32.41,36.02-31.86,19.3.55,34.48,15.71,33.88,33.86Z"/>
              <path class="cls-14" d="m739.67,391.65c-.59,18.15-16.72,32.41-36.02,31.86-19.31-.55-34.48-15.72-33.89-33.86.59-18.14,16.72-32.41,36.02-31.86,19.31.55,34.48,15.71,33.89,33.86Z"/>
              <path class="cls-14" d="m779.27,375.2c-.59,18.15-16.71,32.41-36.02,31.86-19.3-.55-34.47-15.71-33.89-33.86.59-18.15,16.72-32.41,36.02-31.86,19.31.56,34.48,15.72,33.89,33.86Z"/>
              <path class="cls-14" d="m813.51,398.38c-.59,18.15-16.72,32.41-36.02,31.86-19.31-.55-34.48-15.71-33.89-33.86.59-18.15,16.71-32.41,36.02-31.86,19.3.56,34.48,15.72,33.89,33.87Z"/>
              <path class="cls-6" d="m831.34,433.81c-.58,18.15-16.71,32.41-36.02,31.86-19.3-.56-34.47-15.72-33.88-33.86.59-18.15,16.71-32.41,36.02-31.86,19.3.55,34.47,15.71,33.88,33.86Z"/>
              <path class="cls-11" d="m871.6,413.93c-.59,18.15-16.71,32.41-36.02,31.86-19.3-.55-34.47-15.71-33.88-33.86.59-18.15,16.71-32.41,36.02-31.86,19.3.55,34.47,15.71,33.88,33.86Z"/>
              <path class="cls-9" d="m893.6,441.16c-.59,18.14-16.72,32.4-36.02,31.85-19.31-.55-34.48-15.71-33.88-33.86.58-18.15,16.71-32.41,36.01-31.86,19.31.55,34.48,15.71,33.89,33.87Z"/>
              <path class="cls-9" d="m876.36,369.48c-.59,18.15-16.71,32.41-36.02,31.86-19.31-.56-34.48-15.72-33.88-33.87.59-18.15,16.71-32.41,36.01-31.86,19.3.55,34.47,15.71,33.89,33.86Z"/>
              <path class="cls-16" d="m952.22,402.36c-.59,18.15-16.71,32.41-36.02,31.86-19.3-.56-34.47-15.72-33.89-33.87.59-18.15,16.71-32.41,36.02-31.86,19.31.55,34.47,15.71,33.88,33.86Z"/>
              <path class="cls-18" d="m917.57,392.06c-.58,18.15-16.71,32.41-36.02,31.86-19.3-.55-34.47-15.71-33.89-33.86.59-18.15,16.72-32.41,36.02-31.86,19.31.56,34.48,15.72,33.88,33.87Z"/>
              <path class="cls-1" d="m915.4,357.46c-.59,18.14-16.71,32.41-36.02,31.86-19.31-.55-34.48-15.71-33.88-33.86.59-18.15,16.71-32.41,36.02-31.86,19.3.55,34.47,15.71,33.88,33.87Z"/>
            </g>
          </g>
          <g class="cls-30">
            <g>
              <path class="cls-4" d="m567.98,420.01c-.59,18.15-16.71,32.42-36.02,31.86-19.3-.56-34.48-15.72-33.89-33.86.59-18.15,16.72-32.41,36.02-31.86,19.3.56,34.47,15.72,33.88,33.86Z"/>
              <path class="cls-8" d="m623.7,381.56c-.59,18.15-16.72,32.41-36.02,31.86-19.3-.55-34.47-15.71-33.89-33.86.59-18.14,16.72-32.41,36.02-31.86,19.3.55,34.47,15.72,33.88,33.86Z"/>
              <path class="cls-7" d="m491.67,431.71c-.59,18.15-16.72,32.41-36.02,31.86-19.3-.55-34.47-15.71-33.88-33.86.59-18.14,16.72-32.41,36.02-31.86,19.3.55,34.48,15.71,33.89,33.87Z"/>
              <path class="cls-19" d="m688.63,377.22c-.59,18.14-16.72,32.41-36.02,31.86-19.31-.55-34.48-15.72-33.89-33.86.59-18.15,16.72-32.41,36.02-31.86,19.31.55,34.48,15.71,33.89,33.86Z"/>
              <path class="cls-10" d="m689.67,434.19c-.59,18.15-16.72,32.41-36.02,31.86-19.31-.55-34.48-15.71-33.89-33.86.59-18.15,16.71-32.41,36.02-31.86,19.3.56,34.48,15.71,33.89,33.87Z"/>
              <path class="cls-3" d="m731.69,426.74c-.59,18.15-16.71,32.42-36.02,31.86-19.3-.55-34.47-15.71-33.88-33.86.59-18.15,16.71-32.41,36.02-31.86,19.31.56,34.48,15.72,33.88,33.87Z"/>
              <path class="cls-3" d="m639.29,355.02c-.59,18.15-16.72,32.41-36.02,31.86-19.3-.55-34.47-15.72-33.88-33.86.59-18.15,16.71-32.41,36.02-31.86,19.3.55,34.47,15.71,33.89,33.86Z"/>
              <path class="cls-6" d="m718.71,391.45c-.59,18.15-16.72,32.41-36.02,31.86-19.3-.55-34.47-15.71-33.89-33.86.59-18.15,16.72-32.41,36.02-31.86,19.31.56,34.48,15.72,33.89,33.86Z"/>
              <path class="cls-6" d="m766.71,425.72c-.59,18.15-16.71,32.41-36.02,31.86-19.3-.55-34.48-15.71-33.89-33.86.59-18.15,16.71-32.41,36.02-31.86,19.3.55,34.47,15.71,33.88,33.86Z"/>
              <path class="cls-12" d="m839.92,369.62c-.59,18.14-16.71,32.41-36.02,31.86-19.3-.56-34.47-15.71-33.89-33.86.59-18.15,16.72-32.41,36.02-31.86,19.3.55,34.48,15.71,33.88,33.86Z"/>
              <path class="cls-8" d="m657.66,413.28c-.59,18.15-16.72,32.41-36.02,31.86-19.3-.55-34.47-15.71-33.88-33.86.58-18.15,16.71-32.41,36.02-31.86,19.3.56,34.47,15.71,33.89,33.86Z"/>
              <path class="cls-17" d="m609.73,431.9c-.59,18.14-16.71,32.41-36.02,31.86-19.3-.55-34.48-15.71-33.89-33.86.59-18.15,16.71-32.41,36.02-31.86,19.31.55,34.48,15.72,33.89,33.87Z"/>
              <path class="cls-13" d="m569.35,377.85c-.59,18.15-16.71,32.42-36.02,31.86-19.3-.56-34.48-15.72-33.89-33.87.59-18.15,16.71-32.41,36.02-31.86,19.3.56,34.47,15.71,33.89,33.86Z"/>
              <path class="cls-2" d="m531.58,405.6c-.59,18.15-16.71,32.41-36.01,31.86-19.31-.56-34.48-15.72-33.89-33.87.59-18.15,16.71-32.41,36.02-31.86,19.3.55,34.48,15.72,33.88,33.86Z"/>
              <path class="cls-7" d="m515.99,360.33c-.59,18.15-16.72,32.41-36.02,31.86-19.31-.56-34.48-15.72-33.89-33.87.59-18.15,16.71-32.41,36.02-31.85,19.3.55,34.47,15.71,33.89,33.86Z"/>
              <path class="cls-4" d="m472.44,379.77c-.59,18.15-16.72,32.41-36.02,31.86-19.31-.55-34.48-15.71-33.89-33.86.59-18.15,16.71-32.41,36.02-31.86,19.3.55,34.48,15.72,33.89,33.87Z"/>
              <path class="cls-15" d="m442.23,361.31c-.59,18.15-16.71,32.41-36.02,31.86-19.3-.55-34.48-15.71-33.89-33.86.59-18.15,16.71-32.41,36.02-31.86,19.3.56,34.48,15.72,33.88,33.86Z"/>
              <path class="cls-5" d="m525.94,453.73c-.59,18.15-16.72,32.41-36.02,31.86-19.31-.55-34.48-15.72-33.89-33.86.59-18.15,16.71-32.41,36.02-31.86,19.3.56,34.48,15.72,33.89,33.86Z"/>
              <path class="cls-15" d="m448.34,403.22c-.59,18.14-16.72,32.41-36.02,31.86-19.31-.55-34.48-15.71-33.89-33.87.59-18.15,16.71-32.41,36.02-31.86,19.31.55,34.47,15.71,33.89,33.87Z"/>
              <path class="cls-4" d="m415.02,415.63c-.58,18.15-16.71,32.41-36.02,31.86-19.31-.55-34.48-15.71-33.89-33.86.59-18.15,16.71-32.41,36.02-31.86,19.3.55,34.48,15.71,33.88,33.86Z"/>
              <path class="cls-14" d="m741.67,387.49c-.59,18.15-16.72,32.41-36.02,31.86-19.31-.55-34.48-15.72-33.89-33.86.59-18.14,16.72-32.41,36.02-31.86,19.31.55,34.48,15.71,33.89,33.86Z"/>
              <path class="cls-14" d="m781.27,371.04c-.59,18.15-16.71,32.41-36.02,31.86-19.3-.55-34.47-15.71-33.89-33.86.59-18.15,16.72-32.41,36.02-31.86,19.31.56,34.48,15.72,33.89,33.86Z"/>
              <path class="cls-14" d="m815.51,394.22c-.59,18.15-16.72,32.41-36.02,31.86-19.31-.55-34.48-15.71-33.89-33.86.59-18.15,16.71-32.41,36.02-31.86,19.3.56,34.48,15.72,33.89,33.87Z"/>
              <path class="cls-6" d="m833.34,429.66c-.58,18.15-16.71,32.41-36.02,31.86-19.3-.56-34.47-15.72-33.88-33.86.59-18.15,16.71-32.41,36.02-31.86,19.3.55,34.47,15.71,33.88,33.86Z"/>
              <path class="cls-11" d="m873.6,409.77c-.59,18.15-16.71,32.41-36.02,31.86-19.3-.55-34.47-15.71-33.88-33.86.59-18.15,16.71-32.41,36.02-31.86,19.3.55,34.47,15.71,33.88,33.86Z"/>
              <path class="cls-9" d="m895.6,437c-.59,18.14-16.72,32.4-36.02,31.85-19.31-.55-34.48-15.71-33.88-33.86.58-18.15,16.71-32.41,36.01-31.86,19.31.55,34.48,15.71,33.89,33.87Z"/>
              <path class="cls-9" d="m878.36,365.32c-.59,18.15-16.71,32.41-36.02,31.86-19.31-.56-34.48-15.72-33.88-33.87.59-18.15,16.71-32.41,36.01-31.86,19.3.55,34.47,15.71,33.89,33.86Z"/>
              <path class="cls-16" d="m954.22,398.2c-.59,18.15-16.71,32.41-36.02,31.86-19.3-.56-34.47-15.72-33.89-33.87.59-18.15,16.71-32.41,36.02-31.86,19.31.55,34.47,15.71,33.88,33.86Z"/>
              <path class="cls-18" d="m919.57,387.9c-.58,18.15-16.71,32.41-36.02,31.86-19.3-.55-34.47-15.71-33.89-33.86.59-18.15,16.72-32.41,36.02-31.86,19.31.56,34.48,15.72,33.88,33.87Z"/>
              <path class="cls-1" d="m917.4,353.31c-.59,18.14-16.71,32.41-36.02,31.86-19.31-.55-34.48-15.71-33.88-33.86.59-18.15,16.71-32.41,36.02-31.86,19.3.55,34.47,15.71,33.88,33.87Z"/>
            </g>
          </g>
          <g class="cls-23">
            <g>
              <path class="cls-4" d="m563.98,423.01c-.59,18.15-16.71,32.42-36.02,31.86-19.3-.56-34.48-15.72-33.89-33.86.59-18.15,16.72-32.41,36.02-31.86,19.3.56,34.47,15.72,33.88,33.86Z"/>
              <path class="cls-8" d="m619.7,384.56c-.59,18.15-16.72,32.41-36.02,31.86-19.3-.55-34.47-15.71-33.89-33.86.59-18.14,16.72-32.41,36.02-31.86,19.3.55,34.47,15.72,33.88,33.86Z"/>
              <path class="cls-7" d="m487.67,434.71c-.59,18.15-16.72,32.41-36.02,31.86-19.3-.55-34.47-15.71-33.88-33.86.59-18.14,16.72-32.41,36.02-31.86,19.3.55,34.48,15.71,33.89,33.87Z"/>
              <path class="cls-19" d="m684.63,380.22c-.59,18.14-16.72,32.41-36.02,31.86-19.31-.55-34.48-15.72-33.89-33.86.59-18.15,16.72-32.41,36.02-31.86,19.31.55,34.48,15.71,33.89,33.86Z"/>
              <path class="cls-10" d="m685.67,437.19c-.59,18.15-16.72,32.41-36.02,31.86-19.31-.55-34.48-15.71-33.89-33.86.59-18.15,16.71-32.41,36.02-31.86,19.3.56,34.48,15.71,33.89,33.87Z"/>
              <path class="cls-3" d="m727.69,429.74c-.59,18.15-16.71,32.42-36.02,31.86-19.3-.55-34.47-15.71-33.88-33.86.59-18.15,16.71-32.41,36.02-31.86,19.31.56,34.48,15.72,33.88,33.87Z"/>
              <path class="cls-3" d="m635.29,358.02c-.59,18.15-16.72,32.41-36.02,31.86-19.3-.55-34.47-15.72-33.88-33.86.59-18.15,16.71-32.41,36.02-31.86,19.3.55,34.47,15.71,33.89,33.86Z"/>
              <path class="cls-6" d="m714.71,394.45c-.59,18.15-16.72,32.41-36.02,31.86-19.3-.55-34.47-15.71-33.89-33.86.59-18.15,16.72-32.41,36.02-31.86,19.31.56,34.48,15.72,33.89,33.86Z"/>
              <path class="cls-6" d="m762.71,428.72c-.59,18.15-16.71,32.41-36.02,31.86-19.3-.55-34.48-15.71-33.89-33.86.59-18.15,16.71-32.41,36.02-31.86,19.3.55,34.47,15.71,33.88,33.86Z"/>
              <path class="cls-12" d="m835.92,372.62c-.59,18.14-16.71,32.41-36.02,31.86-19.3-.56-34.47-15.71-33.89-33.86.59-18.15,16.72-32.41,36.02-31.86,19.3.55,34.48,15.71,33.88,33.86Z"/>
              <path class="cls-8" d="m653.66,416.28c-.59,18.15-16.72,32.41-36.02,31.86-19.3-.55-34.47-15.71-33.88-33.86.58-18.15,16.71-32.41,36.02-31.86,19.3.56,34.47,15.71,33.89,33.86Z"/>
              <path class="cls-17" d="m605.73,434.9c-.59,18.14-16.71,32.41-36.02,31.86-19.3-.55-34.48-15.71-33.89-33.86.59-18.15,16.71-32.41,36.02-31.86,19.31.55,34.48,15.72,33.89,33.87Z"/>
              <path class="cls-13" d="m565.35,380.85c-.59,18.15-16.71,32.42-36.02,31.86-19.3-.56-34.48-15.72-33.89-33.87.59-18.15,16.71-32.41,36.02-31.86,19.3.56,34.47,15.71,33.89,33.86Z"/>
              <path class="cls-2" d="m527.58,408.6c-.59,18.15-16.71,32.41-36.01,31.86-19.31-.56-34.48-15.72-33.89-33.87.59-18.15,16.71-32.41,36.02-31.86,19.3.55,34.48,15.72,33.88,33.86Z"/>
              <path class="cls-7" d="m511.99,363.33c-.59,18.15-16.72,32.41-36.02,31.86-19.31-.56-34.48-15.72-33.89-33.87.59-18.15,16.71-32.41,36.02-31.85,19.3.55,34.47,15.71,33.89,33.86Z"/>
              <path class="cls-4" d="m468.44,382.77c-.59,18.15-16.72,32.41-36.02,31.86-19.31-.55-34.48-15.71-33.89-33.86.59-18.15,16.71-32.41,36.02-31.86,19.3.55,34.48,15.72,33.89,33.87Z"/>
              <path class="cls-15" d="m438.23,364.31c-.59,18.15-16.71,32.41-36.02,31.86-19.3-.55-34.48-15.71-33.89-33.86.59-18.15,16.71-32.41,36.02-31.86,19.3.56,34.48,15.72,33.88,33.86Z"/>
              <path class="cls-5" d="m521.94,456.73c-.59,18.15-16.72,32.41-36.02,31.86-19.31-.55-34.48-15.72-33.89-33.86.59-18.15,16.71-32.41,36.02-31.86,19.3.56,34.48,15.72,33.89,33.86Z"/>
              <path class="cls-15" d="m444.34,406.22c-.59,18.14-16.72,32.41-36.02,31.86-19.31-.55-34.48-15.71-33.89-33.87.59-18.15,16.71-32.41,36.02-31.86,19.31.55,34.47,15.71,33.89,33.87Z"/>
              <path class="cls-4" d="m411.02,418.63c-.58,18.15-16.71,32.41-36.02,31.86-19.31-.55-34.48-15.71-33.89-33.86.59-18.15,16.71-32.41,36.02-31.86,19.3.55,34.48,15.71,33.88,33.86Z"/>
              <path class="cls-14" d="m737.67,390.49c-.59,18.15-16.72,32.41-36.02,31.86-19.31-.55-34.48-15.72-33.89-33.86.59-18.14,16.72-32.41,36.02-31.86,19.31.55,34.48,15.71,33.89,33.86Z"/>
              <path class="cls-14" d="m777.27,374.04c-.59,18.15-16.71,32.41-36.02,31.86-19.3-.55-34.47-15.71-33.89-33.86.59-18.15,16.72-32.41,36.02-31.86,19.31.56,34.48,15.72,33.89,33.86Z"/>
              <path class="cls-14" d="m811.51,397.22c-.59,18.15-16.72,32.41-36.02,31.86-19.31-.55-34.48-15.71-33.89-33.86.59-18.15,16.71-32.41,36.02-31.86,19.3.56,34.48,15.72,33.89,33.87Z"/>
              <path class="cls-6" d="m829.34,432.66c-.58,18.15-16.71,32.41-36.02,31.86-19.3-.56-34.47-15.72-33.88-33.86.59-18.15,16.71-32.41,36.02-31.86,19.3.55,34.47,15.71,33.88,33.86Z"/>
              <path class="cls-11" d="m869.6,412.77c-.59,18.15-16.71,32.41-36.02,31.86-19.3-.55-34.47-15.71-33.88-33.86.59-18.15,16.71-32.41,36.02-31.86,19.3.55,34.47,15.71,33.88,33.86Z"/>
              <path class="cls-9" d="m891.6,440c-.59,18.14-16.72,32.4-36.02,31.85-19.31-.55-34.48-15.71-33.88-33.86.58-18.15,16.71-32.41,36.01-31.86,19.31.55,34.48,15.71,33.89,33.87Z"/>
              <path class="cls-9" d="m874.36,368.32c-.59,18.15-16.71,32.41-36.02,31.86-19.31-.56-34.48-15.72-33.88-33.87.59-18.15,16.71-32.41,36.01-31.86,19.3.55,34.47,15.71,33.89,33.86Z"/>
              <path class="cls-16" d="m950.22,401.2c-.59,18.15-16.71,32.41-36.02,31.86-19.3-.56-34.47-15.72-33.89-33.87.59-18.15,16.71-32.41,36.02-31.86,19.31.55,34.47,15.71,33.88,33.86Z"/>
              <path class="cls-18" d="m915.57,390.9c-.58,18.15-16.71,32.41-36.02,31.86-19.3-.55-34.47-15.71-33.89-33.86.59-18.15,16.72-32.41,36.02-31.86,19.31.56,34.48,15.72,33.88,33.87Z"/>
              <path class="cls-1" d="m913.4,356.31c-.59,18.14-16.71,32.41-36.02,31.86-19.31-.55-34.48-15.71-33.88-33.86.59-18.15,16.71-32.41,36.02-31.86,19.3.55,34.47,15.71,33.88,33.87Z"/>
            </g>
          </g>
          <g class="cls-24">
            <g>
              <path class="cls-4" d="m558.98,420.01c-.59,18.15-16.71,32.42-36.02,31.86-19.3-.56-34.48-15.72-33.89-33.86.59-18.15,16.72-32.41,36.02-31.86,19.3.56,34.47,15.72,33.88,33.86Z"/>
              <path class="cls-8" d="m614.7,381.56c-.59,18.15-16.72,32.41-36.02,31.86-19.3-.55-34.47-15.71-33.89-33.86.59-18.14,16.72-32.41,36.02-31.86,19.3.55,34.47,15.72,33.88,33.86Z"/>
              <path class="cls-7" d="m482.67,431.71c-.59,18.15-16.72,32.41-36.02,31.86-19.3-.55-34.47-15.71-33.88-33.86.59-18.14,16.72-32.41,36.02-31.86,19.3.55,34.48,15.71,33.89,33.87Z"/>
              <path class="cls-19" d="m679.63,377.22c-.59,18.14-16.72,32.41-36.02,31.86-19.31-.55-34.48-15.72-33.89-33.86.59-18.15,16.72-32.41,36.02-31.86,19.31.55,34.48,15.71,33.89,33.86Z"/>
              <path class="cls-10" d="m680.67,434.19c-.59,18.15-16.72,32.41-36.02,31.86-19.31-.55-34.48-15.71-33.89-33.86.59-18.15,16.71-32.41,36.02-31.86,19.3.56,34.48,15.71,33.89,33.87Z"/>
              <path class="cls-3" d="m722.69,426.74c-.59,18.15-16.71,32.42-36.02,31.86-19.3-.55-34.47-15.71-33.88-33.86.59-18.15,16.71-32.41,36.02-31.86,19.31.56,34.48,15.72,33.88,33.87Z"/>
              <path class="cls-3" d="m630.29,355.02c-.59,18.15-16.72,32.41-36.02,31.86-19.3-.55-34.47-15.72-33.88-33.86.59-18.15,16.71-32.41,36.02-31.86,19.3.55,34.47,15.71,33.89,33.86Z"/>
              <path class="cls-6" d="m709.71,391.45c-.59,18.15-16.72,32.41-36.02,31.86-19.3-.55-34.47-15.71-33.89-33.86.59-18.15,16.72-32.41,36.02-31.86,19.31.56,34.48,15.72,33.89,33.86Z"/>
              <path class="cls-6" d="m757.71,425.72c-.59,18.15-16.71,32.41-36.02,31.86-19.3-.55-34.48-15.71-33.89-33.86.59-18.15,16.71-32.41,36.02-31.86,19.3.55,34.47,15.71,33.88,33.86Z"/>
              <path class="cls-12" d="m830.92,369.62c-.59,18.14-16.71,32.41-36.02,31.86-19.3-.56-34.47-15.71-33.89-33.86.59-18.15,16.72-32.41,36.02-31.86,19.3.55,34.48,15.71,33.88,33.86Z"/>
              <path class="cls-8" d="m648.66,413.28c-.59,18.15-16.72,32.41-36.02,31.86-19.3-.55-34.47-15.71-33.88-33.86.58-18.15,16.71-32.41,36.02-31.86,19.3.56,34.47,15.71,33.89,33.86Z"/>
              <path class="cls-17" d="m600.73,431.9c-.59,18.14-16.71,32.41-36.02,31.86-19.3-.55-34.48-15.71-33.89-33.86.59-18.15,16.71-32.41,36.02-31.86,19.31.55,34.48,15.72,33.89,33.87Z"/>
              <path class="cls-13" d="m560.35,377.85c-.59,18.15-16.71,32.42-36.02,31.86-19.3-.56-34.48-15.72-33.89-33.87.59-18.15,16.71-32.41,36.02-31.86,19.3.56,34.47,15.71,33.89,33.86Z"/>
              <path class="cls-2" d="m522.58,405.6c-.59,18.15-16.71,32.41-36.01,31.86-19.31-.56-34.48-15.72-33.89-33.87.59-18.15,16.71-32.41,36.02-31.86,19.3.55,34.48,15.72,33.88,33.86Z"/>
              <path class="cls-7" d="m506.99,360.33c-.59,18.15-16.72,32.41-36.02,31.86-19.31-.56-34.48-15.72-33.89-33.87.59-18.15,16.71-32.41,36.02-31.85,19.3.55,34.47,15.71,33.89,33.86Z"/>
              <path class="cls-4" d="m463.44,379.77c-.59,18.15-16.72,32.41-36.02,31.86-19.31-.55-34.48-15.71-33.89-33.86.59-18.15,16.71-32.41,36.02-31.86,19.3.55,34.48,15.72,33.89,33.87Z"/>
              <path class="cls-15" d="m433.23,361.31c-.59,18.15-16.71,32.41-36.02,31.86-19.3-.55-34.48-15.71-33.89-33.86.59-18.15,16.71-32.41,36.02-31.86,19.3.56,34.48,15.72,33.88,33.86Z"/>
              <path class="cls-5" d="m516.94,453.73c-.59,18.15-16.72,32.41-36.02,31.86-19.31-.55-34.48-15.72-33.89-33.86.59-18.15,16.71-32.41,36.02-31.86,19.3.56,34.48,15.72,33.89,33.86Z"/>
              <path class="cls-15" d="m439.34,403.22c-.59,18.14-16.72,32.41-36.02,31.86-19.31-.55-34.48-15.71-33.89-33.87.59-18.15,16.71-32.41,36.02-31.86,19.31.55,34.47,15.71,33.89,33.87Z"/>
              <path class="cls-4" d="m406.02,415.63c-.58,18.15-16.71,32.41-36.02,31.86-19.31-.55-34.48-15.71-33.89-33.86.59-18.15,16.71-32.41,36.02-31.86,19.3.55,34.48,15.71,33.88,33.86Z"/>
              <path class="cls-14" d="m732.67,387.49c-.59,18.15-16.72,32.41-36.02,31.86-19.31-.55-34.48-15.72-33.89-33.86.59-18.14,16.72-32.41,36.02-31.86,19.31.55,34.48,15.71,33.89,33.86Z"/>
              <path class="cls-14" d="m772.27,371.04c-.59,18.15-16.71,32.41-36.02,31.86-19.3-.55-34.47-15.71-33.89-33.86.59-18.15,16.72-32.41,36.02-31.86,19.31.56,34.48,15.72,33.89,33.86Z"/>
              <path class="cls-14" d="m806.51,394.22c-.59,18.15-16.72,32.41-36.02,31.86-19.31-.55-34.48-15.71-33.89-33.86.59-18.15,16.71-32.41,36.02-31.86,19.3.56,34.48,15.72,33.89,33.87Z"/>
              <path class="cls-6" d="m824.34,429.66c-.58,18.15-16.71,32.41-36.02,31.86-19.3-.56-34.47-15.72-33.88-33.86.59-18.15,16.71-32.41,36.02-31.86,19.3.55,34.47,15.71,33.88,33.86Z"/>
              <path class="cls-11" d="m864.6,409.77c-.59,18.15-16.71,32.41-36.02,31.86-19.3-.55-34.47-15.71-33.88-33.86.59-18.15,16.71-32.41,36.02-31.86,19.3.55,34.47,15.71,33.88,33.86Z"/>
              <path class="cls-9" d="m886.6,437c-.59,18.14-16.72,32.4-36.02,31.85-19.31-.55-34.48-15.71-33.88-33.86.58-18.15,16.71-32.41,36.01-31.86,19.31.55,34.48,15.71,33.89,33.87Z"/>
              <path class="cls-9" d="m869.36,365.32c-.59,18.15-16.71,32.41-36.02,31.86-19.31-.56-34.48-15.72-33.88-33.87.59-18.15,16.71-32.41,36.01-31.86,19.3.55,34.47,15.71,33.89,33.86Z"/>
              <path class="cls-16" d="m945.22,398.2c-.59,18.15-16.71,32.41-36.02,31.86-19.3-.56-34.47-15.72-33.89-33.87.59-18.15,16.71-32.41,36.02-31.86,19.31.55,34.47,15.71,33.88,33.86Z"/>
              <path class="cls-18" d="m910.57,387.9c-.58,18.15-16.71,32.41-36.02,31.86-19.3-.55-34.47-15.71-33.89-33.86.59-18.15,16.72-32.41,36.02-31.86,19.31.56,34.48,15.72,33.88,33.87Z"/>
              <path class="cls-1" d="m908.4,353.31c-.59,18.14-16.71,32.41-36.02,31.86-19.31-.55-34.48-15.71-33.88-33.86.59-18.15,16.71-32.41,36.02-31.86,19.3.55,34.47,15.71,33.88,33.87Z"/>
            </g>
          </g>
        </g>
      </g>
      <g>
        <path class="cls-33" d="m849.79,384.17c1.55.4,2.88,1.03,3.98,1.88,1.1.85,1.91,2.04,2.45,3.56.86,2.35,1.65,4.67,2.37,6.99.72,2.31,1.37,4.7,1.95,7.15.29,1.38.63,2.74,1.03,4.07.4,1.33.71,2.7.95,4.1.35,2.19.91,4.31,1.69,6.36.78,2.05,1.56,4.08,2.35,6.1.83,2.12,1.7,4.21,2.61,6.27.9,2.06,2.04,4.02,3.4,5.87.72.38,1.44-.18,2.16-1.65.72-1.48,1.35-3.32,1.88-5.52.53-2.21.97-4.48,1.32-6.83.35-2.34.51-4.2.48-5.56,0-.18.05-.47.18-.88.12-.41.28-.69.47-.86.19-.16.36-.1.51.2.15.3.23,1.04.26,2.23.03,1.36.02,3.27-.03,5.74-.05,2.47-.18,4.92-.39,7.36-.21,2.44-.51,4.57-.87,6.38-.37,1.82-.89,2.74-1.58,2.77-2.98.16-5.65-.25-8.01-1.24-2.36-.98-4.3-2.78-5.84-5.4-1.26-2.07-2.31-4.22-3.16-6.45s-1.55-4.55-2.12-6.95c-.27-1.02-.59-2.03-.95-3.03-.36-.99-.69-2.03-.98-3.1-.69-2.41-1.42-4.81-2.16-7.2s-1.44-4.8-2.08-7.23c-.51-1.95-.95-3.91-1.31-5.88-.36-1.97-.74-3.93-1.12-5.87-.07-.51-.15-1.02-.22-1.53-.07-.51.2-1.12.8-1.84Z"/>
        <path class="cls-33" d="m889.91,404.1c.17-.37.4-.71.69-1.03.29-.32.62-.56,1.01-.71.61-.24,1.14-.09,1.6.44.87.91,1.57,1.9,2.12,2.97.55,1.07.79,2.24.72,3.52-.05.85-.01,1.66.1,2.42.11.76.17,1.56.18,2.39.05.46.11.93.17,1.41.06.48.33.93.81,1.34.2-.14.45-.23.74-.29.29-.06.48-.16.55-.3,1.06-1.49,1.91-2.9,2.53-4.22,1.14-2.42,2.21-4.8,3.19-7.16.14-.29.29-.59.46-.9.17-.3.33-.64.51-1,.5.46.77.92.83,1.38.05.46.01.92-.12,1.39-.47,1.56-1.04,3.29-1.72,5.19-.68,1.91-1.33,3.61-1.95,5.1-.2.62-.48,1.12-.84,1.49-.79,1.38-1.54,2.22-2.26,2.5-.94.37-2.13,0-3.58-1.1-.73-.55-1.45-1.18-2.17-1.88-.72-.7-1.38-1.41-1.98-2.13-.21.44-.4.8-.58,1.08-.18.28-.36.58-.56.89-.4.75-.8,1.55-1.2,2.4-.4.84-.82,1.68-1.25,2.5-.21.44-.57.93-1.09,1.46-.52.53-1,.88-1.44,1.06-.38.15-.88.11-1.48-.13-.6-.24-1.2-.56-1.8-.95s-1.16-.8-1.67-1.22-.89-.77-1.12-1.04c-.42-.43-.8-.92-1.15-1.47-.34-.55-.56-1.11-.66-1.67-.26-1.15-.38-2.43-.37-3.84.02-1.41.18-2.81.49-4.22.31-1.4.76-2.74,1.37-4.03.61-1.28,1.36-2.4,2.25-3.35.45-.47,1-.84,1.66-1.1,1.1-.43,2.26-.32,3.47.34.64.34,1.22.73,1.74,1.15.51.42,1.11.86,1.8,1.31Zm-4.22,1.39c-.77.78-1.34,1.51-1.71,2.19s-.61,1.43-.73,2.26c.48-.55.93-1.11,1.34-1.69.41-.58.75-1.16,1.03-1.75.07-.15.1-.28.08-.39-.01-.11-.02-.32,0-.62Zm-2.05,11.99c.79-.91,1.58-2.16,2.38-3.75s1.65-3.68,2.55-6.24c.05-.2.06-.38.02-.54s-.04-.37,0-.62c-.44.17-.79.33-1.06.46-.26.14-.49.28-.68.45-.19.16-.37.37-.52.61-.16.24-.34.58-.55,1.02-.73,1.36-1.3,2.74-1.71,4.12-.41,1.38-.55,2.89-.42,4.51Z"/>
        <path class="cls-33" d="m881.59,381.96c1.32.14,2.54-.03,3.66-.5,1.12-.47,2.21-1.03,3.29-1.69.69-.51,1.4-.95,2.14-1.33.74-.38,1.47-.77,2.2-1.18,1.4-.79,1.98-2,1.72-3.63-.11-.91-.23-1.79-.37-2.63-.14-.84-.24-1.73-.28-2.66,0-.48.02-.95.06-1.41.04-.46.34-.86.91-1.21.56-.34,1.03-.36,1.4-.06.37.3.75.62,1.13.94.55.44,1.08.89,1.58,1.35.5.46.78,1.1.84,1.91.09.56.36.95.79,1.17.43.22.92.37,1.46.45,2.98-1.47,6.09-2.42,9.35-2.87.48-.07.95-.09,1.4-.06.46.03.95.06,1.47.09.56.14,1.06.33,1.51.57.44.24.77.71.98,1.4-1.31.39-2.67.69-4.08.89s-2.7.67-3.87,1.43c-1.19.7-2.39,1.31-3.62,1.82-1.23.51-2.37,1.28-3.43,2.29-.28,1.06-.3,2.1-.06,3.11.24,1.01.52,2.02.86,3.02.28.72.49,1.52.61,2.4.12.88.61,1.59,1.46,2.15l-1.12-3.58c-.28-1.2-.49-2.55-.64-4.04.52.99.94,1.9,1.26,2.73.33.83.62,1.67.89,2.51,1.25,3.98,2.55,7.92,3.92,11.79,1.36,3.88,2.84,7.74,4.41,11.6.1.26.19.49.27.7.08.21.2.43.36.67,1.27,1.95,2.39,3.95,3.36,6.02.97,2.07,2.18,3.97,3.63,5.73.07.03.14.27.19.73-.32,0-.62.07-.93.19-.3.12-.57.13-.79.04-.55-.26-1.06-.52-1.54-.78-.48-.26-.87-.6-1.16-1.02-1.15-1.63-2.23-3.27-3.26-4.89-1.02-1.63-2.05-3.28-3.09-4.96-.57-.97-1.12-1.97-1.66-3.02-.54-1.04-1.06-2.06-1.58-3.05.1.26.17.53.22.81.04.28.17.53.39.74.35.88.57,1.73.67,2.56s.02,1.71-.24,2.65c-.3.06-.51,0-.63-.16-.13-.16-.28-.32-.48-.48-2.79-3.55-4.79-7.57-5.98-12.06-.49-1.89-1.07-3.77-1.74-5.63-.67-1.85-1.33-3.7-1.98-5.53-.43-1.08-.81-2.17-1.14-3.26s-.57-2.21-.7-3.35l-.37-.93c-.29.06-.57.09-.82.1-.25,0-.47.08-.67.22-1.32.52-2.61,1.11-3.87,1.79-1.59.8-3.2,1.08-4.82.82-.3-.12-.62-.16-.95-.12-.33.04-.66.06-.97.07-.34-.05-.66-.14-.97-.29s-.51-.5-.61-1.06Z"/>
        <path class="cls-33" d="m921.18,386.98c-.73.23-1.35.23-1.85.01s-.91-.51-1.24-.86c-.38-.33-.7-.69-.96-1.1-.25-.4-.52-.79-.79-1.16-.39-.68-.75-1.38-1.06-2.09-.31-.71-.64-1.42-.98-2.12-.06-.16-.13-.34-.21-.54-.08-.21-.11-.37-.1-.5.05-.2.08-.4.09-.62.01-.21.08-.4.2-.57.4-.28.82-.32,1.28-.14.6.24,1.16.53,1.67.86,1.07.77,1.87,1.34,2.42,1.69.55.35.93.71,1.14,1.07.21.37.33.87.36,1.52.03.65.07,1.67.12,3.08-.03.25-.05.48-.06.7-.01.21-.02.47-.03.77Zm-5.15,2.65c.25.14.5.27.76.37.26.11.49.24.68.4.38.33.75.58,1.11.77.36.19.79.27,1.29.25.76,0,1.39.22,1.88.65.49.44.84,1,1.04,1.69.46,1.49.93,2.98,1.42,4.45.49,1.48,1,2.98,1.53,4.5.29.9.63,1.77,1.02,2.6.39.83.79,1.68,1.19,2.53,1.65-1.3,2.94-3.11,3.87-5.41.94-2.3,1.61-4.79,2.02-7.46.04-.38.18-.67.42-.88.23-.21.48-.16.73.16.21.69.27,1.79.19,3.28-.08,1.49-.23,3.04-.46,4.65-.22,1.61-.51,3.11-.85,4.5-.34,1.39-.69,2.36-1.04,2.92-.84,1.41-2.09,2.04-3.73,1.91-2.71-.13-5.1-.86-7.15-2.2-2.05-1.34-3.48-3.28-4.29-5.83-.58-1.8-1.08-3.63-1.49-5.5-.42-1.86-.83-3.73-1.25-5.59-.09-.56-.1-1.06-.02-1.51.08-.45.45-.86,1.13-1.25Z"/>
        <path class="cls-33" d="m942.97,380.65c-.28,1.06-.53,2.04-.75,2.93-.22.89-.52,1.74-.9,2.55-.79,1.86-1.23,3.75-1.3,5.66-.08,1.91-.09,3.81-.05,5.7.07.99.21,1.95.42,2.88.21.93.59,1.79,1.16,2.59.45.66.72,1.39.81,2.19s.28,1.56.56,2.28c-1.96.35-3.47-.1-4.53-1.35-1.06-1.25-2.02-2.55-2.86-3.89-.84-1.34-1.5-2.78-1.98-4.32-.19-.64-.39-1.31-.6-2-.21-.69-.38-1.37-.51-2.03-.27-1.5-.52-3.03-.75-4.58-.23-1.55-.45-3.09-.67-4.61-.05-.46-.13-.9-.24-1.34-.11-.43.08-.77.55-1.02.56-.34,1.03-.33,1.39.03.36.36.73.68,1.09.96,1.28,1.17,2.1,2.52,2.45,4.05.14.84.34,1.64.61,2.4.27.76.61,1.5,1.02,2.24.08-.93.17-1.84.26-2.74.09-.9.19-1.85.31-2.85.03-1.21.15-2.4.35-3.58s.51-2.36.94-3.55c.32-.96.67-1.84,1.05-2.65.6-.89,1.39-1.38,2.38-1.47,1.24.89,2.39,1.83,3.45,2.85,1.07,1.01,1.87,2.28,2.4,3.8.28.72.58,1.44.89,2.15.31.71.64,1.42.98,2.12.04.1.07.21.08.33.01.12.07.21.16.29.98.87,1.61,1.89,1.91,3.05.3,1.17.73,2.29,1.28,3.39.26.67.54,1.34.83,2,.29.66.57,1.33.83,2,.26.67.6,1.24,1,1.71.41.47.99.79,1.76.96.3.12.57.25.82.39.25.14.52.28.82.39-.28.41-.58.62-.9.62-.32,0-.63.01-.95.01-2-.41-3.83-1.02-5.48-1.83-1.65-.81-3.06-2.12-4.21-3.94-.88-1.44-1.7-2.91-2.45-4.41-.75-1.5-1.35-3.08-1.82-4.74-.09-.56-.22-1.09-.39-1.59-.17-.5-.46-.97-.88-1.4-.21-.21-.31-.55-.3-1,.01-.45-.01-.99-.07-1.63Z"/>
        <path class="cls-33" d="m972,378.91c.81,1.59,1.01,3.39.6,5.4-.06.32-.14.67-.22,1.02-.08.36-.12.69-.13.99.15,1.19.02,2.31-.4,3.33-.42,1.03-.82,2.04-1.19,3.02-.33.79-.93,1.26-1.82,1.43-.98.09-1.87.08-2.68-.02-2.82-.38-5.21-1.25-7.16-2.6-1.96-1.35-3.39-3.33-4.29-5.96-.62-1.73-.97-3.56-1.06-5.49-.09-1.93.24-3.79,1-5.58.22-.56.58-1.03,1.07-1.4.49-.37,1.06-.54,1.71-.49.82-.02,1.62-.31,2.42-.86,1.21-.95,2.73-1.22,4.54-.8,2.06.56,3.67,1.59,4.83,3.07,1.15,1.49,2.09,3.13,2.8,4.94Zm-12.09-1.69c-.04.55-.04,1.04,0,1.47.04.43.06.89.06,1.36-.14,1.91.15,3.65.87,5.25.72,1.59,1.54,3.14,2.44,4.63.76,1.13,1.53,1.55,2.3,1.25.6-.24,1.11-.73,1.51-1.49.19-.31.36-.61.51-.87.15-.27.31-.58.48-.95.36-1.34.59-2.65.69-3.94.09-1.29.05-2.58-.14-3.88-.25-1.27-.62-2.46-1.11-3.55-.49-1.09-1.17-2.09-2.04-3-1.06-1.25-2.14-1.66-3.24-1.23-.66.26-1.33.73-2.01,1.42.48.41.91.82,1.3,1.24.38.42.41,1.02.09,1.8-.22.09-.46.17-.72.24-.26.07-.59.16-.99.26Z"/>
      </g>
      <path class="cls-20" d="m964.15,298.23c-.1.18-.2.35-.3.51-.1.17-.2.34-.3.5-.2.33-.41.67-.62.99-.42.66-.84,1.31-1.28,1.95-.87,1.29-1.77,2.56-2.71,3.8-1.87,2.48-3.87,4.87-6.02,7.13-2.15,2.26-4.44,4.38-6.92,6.29-1.24.96-2.52,1.86-3.86,2.68-1.33.83-2.72,1.58-4.15,2.24-.36.16-.72.32-1.08.47l-.27.11-.14.06-.07.03h-.02s.04-.01.01,0h-.03c-.18.09-.36.17-.54.25-.72.3-1.45.59-2.19.85-1.47.53-2.95,1.01-4.45,1.43-1.5.42-3.02.79-4.55,1.1-1.53.31-3.08.55-4.64.71-.78.08-1.56.13-2.35.16l-.58.02h-.58c-.39.02-.78.03-1.17.03-.78,0-1.56,0-2.35-.05-.79-.04-1.57-.1-2.36-.21-.79-.11-1.58-.27-2.36-.5-.78-.23-1.55-.53-2.27-.93-.73-.4-1.4-.9-2-1.48-.6-.58-1.11-1.24-1.53-1.94h0s-.02-.04-.03-.06l-.02-.04-.02-.03-.03-.07s-.04-.09-.05-.13c-.03-.08-.07-.17-.1-.25-.06-.17-.12-.34-.17-.51-.11-.34-.19-.69-.26-1.04-.14-.7-.2-1.44-.14-2.18.03-.37.1-.74.2-1.11.1-.37.25-.72.43-1.06.19-.34.41-.65.67-.94.26-.28.55-.53.85-.75.15-.11.31-.21.47-.3.08-.05.16-.09.24-.13.04-.02.08-.04.12-.06l.06-.03.04-.02h.03c.33-.16.67-.29,1.03-.39.36-.1.72-.17,1.1-.2.37-.03.76-.03,1.13.02.38.05.75.14,1.1.27.36.13.69.29,1.01.49.63.39,1.18.88,1.65,1.43.23.27.45.56.65.86.1.15.19.3.28.46l.07.12.06.11c.04.08.09.16.13.25.33.67.51,1.4.59,2.12.08.72.04,1.44-.06,2.14-.1.7-.28,1.38-.51,2.04-.46,1.32-1.13,2.55-1.95,3.67-.81,1.12-1.77,2.13-2.84,3.01-1.07.87-2.26,1.61-3.53,2.16-1.27.55-2.62.92-3.99,1.09-1.37.16-2.77.12-4.13-.12-.34-.06-.68-.13-1.01-.21-.17-.04-.33-.08-.5-.13-.08-.02-.17-.05-.25-.07l-.12-.04-.06-.02h-.03s-.02-.01-.02-.01c-.01,0,.04.01.01,0l-.07-.02-.07-.02-.13-.04c-.08-.03-.17-.05-.25-.08-.17-.06-.33-.12-.49-.18-.32-.13-.64-.27-.95-.43-.62-.32-1.21-.71-1.75-1.18-.53-.47-1-1.03-1.35-1.67-.17-.32-.31-.66-.42-1-.1-.35-.17-.71-.2-1.06-.02-.18-.02-.36-.02-.54v-.07s0-.02,0-.02c0-.05,0-.02,0-.04v-.03s.01-.09.01-.13c0-.09.02-.18.03-.27.05-.35.14-.71.26-1.05.12-.34.28-.67.48-.98.2-.31.43-.59.69-.85.53-.51,1.17-.88,1.86-1.1.69-.22,1.42-.29,2.14-.19.36.05.72.14,1.06.28.34.14.66.33.95.56l-.03-.02c.3.19.56.43.79.7.23.26.42.56.57.86.31.61.5,1.27.57,1.94.07.67.04,1.35-.1,2-.14.66-.37,1.29-.69,1.87-.32.59-.72,1.12-1.17,1.6-.46.48-.97.9-1.52,1.26-.55.36-1.13.67-1.73.92-.6.26-1.22.46-1.84.63-.31.08-.63.16-.94.22-.16.03-.32.06-.48.09h-.01s0,0,0,0h-.02s-.03,0-.03,0h-.06s-.12.02-.12.02l-.24.02c-.64.06-1.28.1-1.92.11-.64.02-1.28,0-1.93-.02-.64-.03-1.28-.09-1.92-.18-.64-.09-1.27-.22-1.9-.4-.62-.18-1.24-.41-1.81-.73-.29-.16-.57-.34-.83-.55-.26-.21-.5-.44-.71-.7-.21-.26-.39-.54-.54-.85-.14-.3-.25-.62-.31-.95h0s0-.01,0-.02c-.06-.48-.03-.98.09-1.45.06-.24.15-.47.27-.68.12-.22.26-.42.43-.6.17-.18.36-.34.57-.47.21-.13.43-.24.66-.32.23-.08.46-.14.7-.19.24-.04.48-.06.73-.05.25.01.49.06.72.14.23.08.46.19.66.33.4.28.72.67.94,1.1.22.43.35.9.4,1.38.02.24.02.48,0,.72-.02.24-.05.47-.11.71-.11.46-.31.91-.58,1.3-.27.39-.61.73-.99,1.02-.38.28-.79.52-1.22.7-.43.19-.87.33-1.32.45-.9.23-1.83.34-2.75.39-.23.01-.46.02-.69.02-.23,0-.46,0-.69,0-.46,0-.92,0-1.38-.01-1.84-.03-3.68-.12-5.52-.22-1.84-.11-3.67-.24-5.51-.38-3.67-.28-7.34-.6-11.01-.93,3.67.29,7.34.59,11.01.84,1.84.13,3.67.24,5.51.33,1.84.09,3.68.16,5.52.18.46,0,.92,0,1.38,0,.23,0,.46,0,.69-.01.23,0,.46-.02.69-.03.91-.06,1.82-.18,2.7-.41.44-.12.87-.27,1.28-.45.41-.19.8-.41,1.16-.68.35-.27.67-.6.92-.96.25-.37.43-.78.53-1.21.05-.22.08-.44.09-.66.01-.22.01-.44-.01-.66-.05-.44-.17-.87-.38-1.26-.2-.39-.49-.73-.85-.97-.18-.12-.37-.22-.57-.28-.2-.07-.41-.11-.63-.11-.21,0-.43,0-.64.05-.22.04-.43.1-.63.18-.41.15-.78.39-1.07.7-.29.31-.49.7-.6,1.12-.11.42-.13.86-.07,1.29v-.02c.06.3.16.58.29.85.13.27.3.52.49.75.39.46.88.83,1.42,1.13.54.29,1.12.51,1.72.68.6.17,1.21.29,1.84.37.62.08,1.25.13,1.88.16.63.02,1.26.02,1.89,0,.63-.02,1.26-.06,1.88-.13l.23-.03h.12s.06-.02.06-.02h.03s-.02,0,0,0h0s.01,0,.01,0c.15-.03.31-.06.46-.09.31-.07.61-.14.91-.23.6-.17,1.19-.37,1.76-.62.57-.25,1.11-.54,1.62-.89.51-.34.98-.74,1.4-1.19.42-.45.78-.94,1.06-1.48.28-.53.49-1.11.61-1.7.12-.59.14-1.2.07-1.79-.07-.59-.24-1.18-.51-1.7-.14-.26-.3-.5-.49-.72-.19-.22-.4-.41-.64-.56,0,0-.02-.01-.03-.02h0c-.46-.37-1.05-.6-1.65-.67-.61-.08-1.23-.01-1.81.18-.58.19-1.12.51-1.55.94-.43.43-.76.95-.96,1.53-.1.29-.17.59-.21.9-.01.08-.02.15-.03.23,0,.04,0,.08,0,.11v.03s0,.03,0,0h0s0,.07,0,.07c0,.16,0,.31.02.46.06.61.24,1.21.54,1.74.3.54.7,1.01,1.18,1.42.47.41,1.01.75,1.58,1.04.28.14.58.27.88.39.15.06.3.11.45.16.08.02.15.05.23.07l.11.03h.06s.05.03.05.03l.26.07c.08.02.16.04.23.06.16.04.31.08.47.12.32.07.63.14.95.19,1.28.21,2.58.24,3.86.07,1.28-.16,2.53-.52,3.71-1.05,1.18-.53,2.28-1.22,3.27-2.05.99-.83,1.88-1.78,2.62-2.83.75-1.05,1.36-2.2,1.77-3.41.2-.6.36-1.22.44-1.84.09-.62.11-1.25.04-1.86-.07-.61-.23-1.2-.49-1.72-.03-.07-.07-.13-.1-.2l-.06-.11-.06-.1c-.08-.13-.16-.27-.25-.39-.17-.26-.36-.5-.57-.74-.41-.46-.87-.87-1.38-1.17-.51-.31-1.06-.5-1.64-.57-.57-.07-1.16,0-1.74.16-.29.08-.57.19-.85.32h-.03s-.02.02,0,.01h-.01s-.05.03-.05.03c-.03.02-.07.03-.1.05-.07.04-.13.07-.2.11-.13.08-.25.16-.37.24-.24.17-.45.36-.64.58-.19.21-.35.44-.49.69-.27.5-.42,1.07-.46,1.66-.05.59,0,1.21.13,1.81.06.3.14.6.24.9.05.15.1.29.15.44.03.07.06.14.08.21l.04.1.02.05.02.04-.03-.06c.38.61.82,1.17,1.33,1.66.51.49,1.09.91,1.71,1.25.63.34,1.3.6,2,.8.7.2,1.42.34,2.16.44.74.1,1.48.16,2.24.19.75.03,1.51.04,2.27.03.38,0,.76-.01,1.14-.02l.57-.02.57-.02c.75-.03,1.51-.09,2.26-.17,1.5-.16,3-.41,4.49-.72,1.49-.31,2.96-.68,4.42-1.1,1.46-.42,2.91-.9,4.33-1.43.71-.27,1.42-.54,2.11-.84.17-.07.35-.15.52-.23l.55-.23c.35-.15.69-.3,1.03-.45,1.36-.63,2.69-1.36,3.97-2.16,1.28-.8,2.52-1.67,3.71-2.6,2.39-1.86,4.62-3.94,6.71-6.15,2.09-2.21,4.04-4.56,5.87-7,.91-1.22,1.79-2.47,2.64-3.73.42-.63.84-1.27,1.24-1.92.2-.32.4-.65.6-.97.1-.16.19-.33.29-.49.1-.16.19-.33.28-.49h0c.23-.42.76-.56,1.17-.33.42.23.56.76.33,1.17h0Z"/>
      <path class="cls-20" d="m975.04,289.34l11.3,21.12.92-1.03-8.07-25.79s8.12-10.26,9.75-13.05c.53-1.11,2.74-5.58.82-7.22,0,0-.02-.01-.02-.02,0,0-.02-.01-.02-.02-2.11-1.39-5.78,1.98-6.7,2.81-2.22,2.35-9.8,13.02-9.8,13.02l-27.02-.53-.73,1.17,23.44,4.94s-3.5,5.51-5.2,8.4c-1.7,2.9-5.34,9.82-5.34,9.82l-8.43.67.12.53,7.56,2.02,3.82,5.71.55-.04-1.48-7.3s5.63-5.43,7.93-7.87c2.3-2.44,6.61-7.34,6.61-7.34Z"/>
    </g>
  </g>
</svg>