<?xml version="1.0" encoding="UTF-8"?>
<svg id="Capa_1" data-name="Capa 1" xmlns="http://www.w3.org/2000/svg" viewBox="0 0 267 150">
  <defs>
    <style>
      .cls-1 {
        fill: #87c131;
      }

      .cls-1, .cls-2, .cls-3 {
        fill-rule: evenodd;
      }

      .cls-2 {
        fill: #00a0e8;
      }

      .cls-3 {
        fill: #9e9e9f;
      }
    </style>
  </defs>
  <g>
    <path class="cls-2" d="m161.74,78.69l-10.65-25.8h5.78l7.26,18.51,7.22-18.51h5.67c-3.58,8.68-7.15,17.37-10.72,26.06h-4.46l-.11-.26h0Zm18.78-.34v-17.52l.27-.11s.42-.23,1.13-.64l3.84-2.24v20.93h-5.24v-.42h0Zm0-20.78v.71l.63-.34,1.46-.84,3.15-1.83v-2.38h-5.24v4.68h0Zm11.09,20.78v-13.05h11.26c.75,0,1.41-.09,2-.27.57-.17,1.07-.44,1.49-.78.42-.34.73-.74.93-1.18.21-.45.31-.96.31-1.53v-.07c0-.61-.1-1.14-.3-1.6-.2-.45-.5-.83-.89-1.15-.41-.32-.9-.56-1.49-.73-.6-.17-1.29-.25-2.08-.25h-11.22v-4.85h11.58c1.59,0,3.02.22,4.27.65,1.26.44,2.35,1.1,3.25,1.97h.01c1.46,1.52,2.19,3.42,2.19,5.7v.07c0,1.03-.14,1.98-.42,2.84-.28.86-.71,1.64-1.29,2.32-.57.67-1.23,1.25-1.99,1.72-.6.37-1.26.69-1.98.94l6.9,9.67h-6.26l-6.15-8.73h-4.87v8.73h-5.24v-.42h0Zm31.51-.17l5.64-12.79,5.87,13.38h-11.77l.26-.59h0Zm9.55-9.61l4.26,10.2h5.57l-11.38-26.06h-4.63c-3.79,8.69-7.59,17.37-11.38,26.06h5.43l4.29-10.2,3.91-9.11,3.94,9.11h0Zm13.06,9.78v-25.46h5.24v21.03h13.16v4.85h-18.41v-.42Z"/>
    <path class="cls-1" d="m75.13,78.35v-13.05h11.26c.75,0,1.42-.09,2-.27.57-.17,1.07-.44,1.49-.78.42-.34.73-.74.93-1.18.21-.45.31-.96.31-1.53v-.07c0-.61-.1-1.14-.3-1.6-.2-.45-.5-.83-.89-1.15-.41-.32-.9-.56-1.49-.73-.6-.17-1.29-.25-2.08-.25h-11.22v-4.85h11.58c1.59,0,3.02.22,4.27.65,1.26.44,2.35,1.1,3.25,1.97h0c1.46,1.52,2.19,3.42,2.19,5.7v.07c0,1.03-.14,1.98-.42,2.84-.28.86-.71,1.64-1.29,2.32-.57.67-1.23,1.25-1.99,1.72-.6.37-1.26.69-1.99.94l6.9,9.67h-6.26l-6.15-8.73h-4.87v8.73h-5.24v-.42h0Zm30.96-10.24v5.88h14.49v4.78h-19.59v-15.4c5.93-.01,11.86-.02,17.8-.04v4.78h-12.7Zm14.31-14.8v4.36h-19.41v-4.78h19.41v.42h0Zm4.56,25.03v-25.46h9.76c4,0,7.28,1.23,9.86,3.68,1.29,1.23,2.26,2.61,2.9,4.14.64,1.54.97,3.22.97,5.05v.07c0,3.69-1.29,6.78-3.87,9.24-1.29,1.23-2.76,2.16-4.4,2.77-1.64.61-3.46.92-5.45.92h-9.76v-.42h0Zm9.76-20.61h-4.51v16.18h4.51c1.25,0,2.38-.19,3.38-.56.99-.37,1.87-.93,2.62-1.68.76-.74,1.32-1.6,1.7-2.55.38-.96.57-2.04.57-3.23v-.07c0-1.19-.19-2.27-.57-3.24-.38-.96-.95-1.83-1.7-2.58-.76-.75-1.63-1.32-2.62-1.7-1-.38-2.12-.57-3.37-.57Z"/>
    <path class="cls-3" d="m77.49,87.42h.99v2.28c-.56.69-1.35,1.04-2.38,1.04-.87,0-1.6-.32-2.18-.97-.59-.65-.88-1.47-.88-2.46s.3-1.81.9-2.47c.6-.66,1.32-.99,2.17-.99s1.55.28,2.11.84l-.53.86c-.23-.22-.46-.38-.69-.46-.23-.09-.5-.13-.81-.13-.59,0-1.09.22-1.5.65-.4.43-.61,1.01-.61,1.71s.2,1.28.59,1.7c.39.43.87.64,1.43.64s1.03-.14,1.4-.41v-1.83h0Zm3.07,1.72l-.59,1.51h-1.06l2.59-6.65h1.06l2.59,6.65h-1.06l-.59-1.51h-2.95Zm2.54-1.04l-1.07-2.74-1.07,2.74h2.14Zm7.28-4.1h.99v6.65h-1.08l-3.33-4.85v4.85h-.99v-6.65h.99l3.42,4.97v-4.97h0Zm3.46,5.14l-.59,1.51h-1.06l2.59-6.65h1.06l2.59,6.65h-1.06l-.59-1.51h-2.95Zm2.54-1.04l-1.07-2.74-1.07,2.74h2.14Zm7.28-4.1h.99v6.65h-1.08l-3.33-4.85v4.85h-.99v-6.65h.99l3.42,4.97v-4.97h0Zm4.65,0c1.06,0,1.87.29,2.43.87.57.58.85,1.39.85,2.42s-.28,1.85-.82,2.46c-.55.6-1.39.9-2.53.9h-1.95v-6.65h2.02Zm2.28,3.32c0-1.52-.77-2.28-2.32-2.28h-.99v4.56h1.1c.71,0,1.26-.19,1.64-.58.38-.38.57-.95.57-1.7h0Zm6.48-1.75c-.4-.47-.89-.7-1.48-.7s-1.08.23-1.48.7c-.4.47-.6,1.04-.6,1.71s.2,1.24.6,1.71c.4.47.89.7,1.48.7s1.08-.24,1.48-.7c.4-.47.6-1.04.6-1.71s-.2-1.24-.6-1.71h0Zm.73,4.16c-.59.66-1.33.99-2.21.99s-1.61-.33-2.21-.99c-.59-.66-.89-1.48-.89-2.46s.3-1.8.89-2.46c.59-.66,1.33-.99,2.21-.99s1.61.33,2.21.99c.59.66.89,1.48.89,2.46s-.3,1.8-.89,2.46h0Zm6.23-4.86c-.29,0-.53.07-.71.2-.19.13-.28.33-.28.6s.09.48.28.62.58.3,1.18.46c.6.16,1.06.4,1.36.69.31.3.46.74.46,1.32s-.19,1.05-.58,1.41c-.39.36-.9.54-1.52.54-.92,0-1.74-.36-2.45-1.08l.62-.85c.59.58,1.21.88,1.85.88.32,0,.57-.08.76-.23.19-.16.28-.36.28-.62s-.09-.46-.27-.6c-.18-.14-.48-.27-.91-.39-.43-.12-.76-.23-.98-.32-.22-.1-.42-.23-.6-.39-.35-.3-.52-.76-.52-1.37s.2-1.09.59-1.42c.4-.33.89-.5,1.47-.5.38,0,.75.07,1.12.21.37.14.69.34.96.59l-.53.85c-.17-.18-.41-.32-.71-.44-.3-.11-.59-.17-.88-.17h0Zm7.66-.88v1.06h-3.14v1.76h2.82v1h-2.82v1.78h3.24v1.06h-4.23v-6.65h4.13Zm5.45,3.42h.99v2.28c-.56.69-1.35,1.04-2.38,1.04-.87,0-1.6-.32-2.18-.97-.59-.65-.88-1.47-.88-2.46s.3-1.81.9-2.47,1.32-.99,2.17-.99,1.55.28,2.11.84l-.53.86c-.23-.22-.46-.38-.69-.46-.23-.09-.5-.13-.81-.13-.59,0-1.09.22-1.5.65-.4.43-.61,1.01-.61,1.71s.2,1.28.59,1.7c.39.43.87.64,1.43.64s1.03-.14,1.4-.41v-1.83h0Zm3.62,1.71c.27.36.63.53,1.09.53s.83-.18,1.09-.53c.27-.36.4-.84.4-1.45v-3.68h.99v3.73c0,.96-.23,1.7-.7,2.21-.47.52-1.06.78-1.79.78s-1.33-.26-1.79-.78c-.47-.52-.7-1.25-.7-2.21v-3.73h.99v3.68c0,.61.13,1.09.4,1.45h0Zm5.14-5.13h.99v6.65h-.99v-6.65h0Zm4.65,0c1.06,0,1.87.29,2.43.87.57.58.85,1.39.85,2.42s-.28,1.85-.83,2.46c-.55.6-1.39.9-2.53.9h-1.95v-6.65h2.02Zm2.28,3.32c0-1.52-.77-2.28-2.32-2.28h-.99v4.56h1.1c.71,0,1.26-.19,1.64-.58.38-.38.57-.95.57-1.7h0Zm6.48-1.75c-.4-.47-.89-.7-1.48-.7s-1.08.23-1.48.7c-.4.47-.6,1.04-.6,1.71s.2,1.24.6,1.71c.4.47.89.7,1.48.7s1.08-.24,1.48-.7c.4-.47.6-1.04.6-1.71s-.2-1.24-.6-1.71h0Zm.73,4.16c-.59.66-1.33.99-2.21.99s-1.61-.33-2.21-.99c-.59-.66-.89-1.48-.89-2.46s.3-1.8.89-2.46c.59-.66,1.33-.99,2.21-.99s1.61.33,2.21.99c.59.66.89,1.48.89,2.46s-.3,1.8-.89,2.46h0Zm6.84-3.57c0,1.1-.42,1.79-1.27,2.08l1.54,2.42h-1.26l-1.41-2.24h-1.31v2.24h-.99v-6.65h2.19c.9,0,1.54.17,1.93.51.39.34.58.89.58,1.65h0Zm-2.47,1.24c.56,0,.94-.1,1.14-.3.2-.2.3-.51.3-.95s-.1-.73-.31-.89c-.21-.16-.58-.24-1.11-.24h-1.26v2.38h1.24Zm8.03-3.4v1.06h-3.14v1.76h2.82v1h-2.82v1.78h3.24v1.06h-4.23v-6.65h4.13Zm3.15.88c-.29,0-.53.07-.71.2-.19.13-.28.33-.28.6s.09.48.28.62.58.3,1.18.46c.6.16,1.06.4,1.36.69.31.3.46.74.46,1.32s-.19,1.05-.58,1.41c-.39.36-.9.54-1.52.54-.92,0-1.74-.36-2.45-1.08l.62-.85c.59.58,1.21.88,1.85.88.32,0,.57-.08.76-.23.19-.16.28-.36.28-.62s-.09-.46-.27-.6c-.18-.14-.48-.27-.91-.39-.43-.12-.76-.23-.98-.32-.22-.1-.42-.23-.6-.39-.35-.3-.52-.76-.52-1.37s.2-1.09.59-1.42c.4-.33.89-.5,1.47-.5.38,0,.75.07,1.12.21.37.14.69.34.96.59l-.53.85c-.17-.18-.41-.32-.71-.44-.3-.11-.59-.17-.88-.17h0Zm9.91,2.54h.99v2.28c-.56.69-1.35,1.04-2.38,1.04-.87,0-1.6-.32-2.18-.97-.59-.65-.88-1.47-.88-2.46s.3-1.81.9-2.47c.6-.66,1.32-.99,2.17-.99s1.55.28,2.11.84l-.53.86c-.23-.22-.46-.38-.69-.46-.23-.09-.5-.13-.81-.13-.59,0-1.09.22-1.5.65-.4.43-.61,1.01-.61,1.71s.2,1.28.59,1.7c.39.43.87.64,1.43.64s1.03-.14,1.4-.41v-1.83h0Zm3.07,1.72l-.59,1.51h-1.06l2.59-6.65h1.06l2.59,6.65h-1.06l-.59-1.51h-2.95Zm2.54-1.04l-1.07-2.74-1.07,2.74h2.14Zm7.28-4.1h.99v6.65h-1.08l-3.33-4.85v4.85h-.99v-6.65h.99l3.42,4.97v-4.97h0Zm3.46,5.14l-.59,1.51h-1.06l2.59-6.65h1.06l2.59,6.65h-1.06l-.59-1.51h-2.95Zm2.54-1.04l-1.07-2.74-1.07,2.74h2.14Zm7.28-4.1h.99v6.65h-1.08l-3.33-4.85v4.85h-.99v-6.65h.99l3.42,4.97v-4.97h0Zm4.65,0c1.06,0,1.87.29,2.43.87.57.58.85,1.39.85,2.42s-.27,1.85-.82,2.46c-.55.6-1.39.9-2.53.9h-1.95v-6.65h2.02Zm2.28,3.32c0-1.52-.77-2.28-2.32-2.28h-.99v4.56h1.1c.71,0,1.26-.19,1.64-.58s.57-.95.57-1.7h0Zm6.48-1.75c-.4-.47-.89-.7-1.48-.7s-1.08.23-1.48.7c-.4.47-.6,1.04-.6,1.71s.2,1.24.6,1.71c.4.47.89.7,1.48.7s1.08-.24,1.48-.7c.4-.47.6-1.04.6-1.71s-.2-1.24-.6-1.71h0Zm.73,4.16c-.59.66-1.33.99-2.21.99s-1.61-.33-2.21-.99c-.59-.66-.89-1.48-.89-2.46s.3-1.8.89-2.46c.59-.66,1.33-.99,2.21-.99s1.61.33,2.21.99c.59.66.89,1.48.89,2.46s-.3,1.8-.89,2.46h0Zm6.47-5.73c1.06,0,1.87.29,2.43.87.57.58.85,1.39.85,2.42s-.28,1.85-.83,2.46c-.55.6-1.39.9-2.53.9h-1.95v-6.65h2.02Zm2.28,3.32c0-1.52-.77-2.28-2.32-2.28h-.99v4.56h1.1c.71,0,1.26-.19,1.64-.58.38-.38.57-.95.57-1.7h0Zm2.28-3.32h.99v6.65h-.99v-6.65h0Zm7.04,0h.99v6.65h-1.08l-3.33-4.85v4.85h-.99v-6.65h.99l3.42,4.97v-4.97h0Zm6.76,0v1.06h-3.14v1.76h2.82v1h-2.82v1.78h3.24v1.06h-4.23v-6.65h4.13Zm6.07,2.16c0,1.1-.42,1.79-1.27,2.08l1.54,2.42h-1.26l-1.41-2.24h-1.3v2.24h-.99v-6.65h2.19c.9,0,1.54.17,1.93.51.39.34.58.89.58,1.65h0Zm-2.47,1.24c.56,0,.94-.1,1.15-.3.2-.2.3-.51.3-.95s-.1-.73-.31-.89c-.21-.16-.58-.24-1.11-.24h-1.26v2.38h1.24Zm8.1-1.83c-.4-.47-.89-.7-1.48-.7s-1.08.23-1.48.7c-.4.47-.6,1.04-.6,1.71s.2,1.24.6,1.71c.4.47.89.7,1.48.7s1.08-.24,1.48-.7c.4-.47.6-1.04.6-1.71s-.2-1.24-.6-1.71h0Zm.73,4.16c-.59.66-1.33.99-2.21.99s-1.61-.33-2.21-.99c-.59-.66-.89-1.48-.89-2.46s.3-1.8.89-2.46c.59-.66,1.33-.99,2.21-.99s1.61.33,2.21.99c.59.66.89,1.48.89,2.46s-.3,1.8-.89,2.46Z"/>
  </g>
  <path class="cls-2" d="m23.36,89.78c1.96-3.61,5.31-7.58,7.79-10.61,4.15-5.07,5.13-5.38,8.94-9.31,1.56-1.61,3.28-2.91,5-4.37,2.68-2.25,15.92-10.7,18.49-11.48-3.36.91-9.85,3.51-12.91,5.06-3.4,1.72-6.47,3.54-9.53,5.59-2.93,1.97-12.3,9.17-14.75,11.89-.6.66-1.07,1.27-1.85,1.63-.04-3.49.15-11.5-.09-14.04-2.11.76-4.15,2.79-5.19,4.56-1.44,2.45-1.7,4.56-1.7,7.85l.04,13.15,5.76.07Z"/>
  <path class="cls-1" d="m17.27,75.49c.07,0-.69-7.14,3.4-10.48,1.3-1.07,2.76-1.47,3.76-1.64l.1-6.66,23.22-.04.48,1.5,6.44-3.13c-.47-2.43-2.95-4.63-5.42-5.15-1.44-.3-29.14-.3-31.62-.07-.38,20.73-.42,25.68-.36,25.68Z"/>
  <path class="cls-1" d="m46.08,74.19c4.14-.1,6.18-.75,7.84-3.46,1.16-1.91,1.35-7.24.9-9.86-.6.39-1.71.84-2.48,1.32l-6.86,5.14c-1.77,1.59-7.25,6.33-8,7.81l12.2,14.64,5.15-4.83c-1.6-2.41-8.47-9.45-8.74-10.75Z"/>
  <path class="cls-2" d="m31.48,68.5c2.09,0,3.8-1.71,3.8-3.8s-1.71-3.8-3.8-3.8-3.8,1.71-3.8,3.8,1.71,3.8,3.8,3.8Z"/>
  <path class="cls-2" d="m34.66,38.05c8.77,0,16.72,3.56,22.47,9.31,1.56,1.56,2.96,3.28,4.16,5.13-1.75.49-3.36.97-4.49,1.38-.86-1.19-1.81-2.31-2.84-3.34-4.94-4.94-11.76-7.99-19.3-7.99s-14.36,3.05-19.3,7.99c-4.94,4.94-7.99,11.76-7.99,19.3s3.05,14.36,7.99,19.3c4.94,4.94,11.76,7.99,19.3,7.99s14.36-3.05,19.3-7.99c4.94-4.94,7.99-11.76,7.99-19.3,0-4.9-1.29-9.5-3.55-13.47l4.1-1.85c2.51,4.54,3.93,9.77,3.93,15.32,0,8.77-3.56,16.72-9.31,22.47-5.75,5.75-13.69,9.31-22.47,9.31s-16.72-3.56-22.47-9.31c-5.75-5.75-9.31-13.69-9.31-22.47s3.56-16.72,9.31-22.47c5.75-5.75,13.69-9.31,22.47-9.31Z"/>
</svg>