<?xml version="1.0" encoding="UTF-8" standalone="no"?>
<svg
   id="Capa_1"
   data-name="Capa 1"
   viewBox="0 0 225.12733 63.362831"
   version="1.1"
   sodipodi:docname="default-dark.svg"
   width="225.12733"
   height="63.362831"
   inkscape:version="1.2.2 (732a01da63, 2022-12-09, custom)"
   xmlns:inkscape="http://www.inkscape.org/namespaces/inkscape"
   xmlns:sodipodi="http://sodipodi.sourceforge.net/DTD/sodipodi-0.dtd"
   xmlns="http://www.w3.org/2000/svg"
   xmlns:svg="http://www.w3.org/2000/svg">
  <sodipodi:namedview
     id="namedview171"
     pagecolor="#505050"
     bordercolor="#eeeeee"
     borderopacity="1"
     inkscape:showpageshadow="0"
     inkscape:pageopacity="0"
     inkscape:pagecheckerboard="0"
     inkscape:deskcolor="#505050"
     showgrid="false"
     inkscape:zoom="2.6086142"
     inkscape:cx="112.1285"
     inkscape:cy="24.725772"
     inkscape:window-width="1920"
     inkscape:window-height="1020"
     inkscape:window-x="0"
     inkscape:window-y="0"
     inkscape:window-maximized="1"
     inkscape:current-layer="Capa_1" />
  <defs
     id="defs150">
    <style
       id="style148">
      .cls-1 {
        fill: #87c131;
      }

      .cls-1, .cls-2, .cls-3 {
        fill-rule: evenodd;
      }

      .cls-2 {
        fill: #00a0e8;
      }

      .cls-3 {
        fill: #9e9e9f;
      }
    </style>
  </defs>
  <g
     id="g158"
     transform="matrix(0.66853307,0,0,0.66853307,13.102123,-14.903665)"
     style="stroke-width:1.49581">
    <path
       class="cls-2"
       d="m 161.74,78.69 -10.65,-25.8 h 5.78 l 7.26,18.51 7.22,-18.51 h 5.67 c -3.58,8.68 -7.15,17.37 -10.72,26.06 h -4.46 l -0.11,-0.26 v 0 z m 18.78,-0.34 V 60.83 l 0.27,-0.11 c 0,0 0.42,-0.23 1.13,-0.64 l 3.84,-2.24 v 20.93 h -5.24 z m 0,-20.78 v 0.71 l 0.63,-0.34 1.46,-0.84 3.15,-1.83 v -2.38 h -5.24 z m 11.09,20.78 V 65.3 h 11.26 c 0.75,0 1.41,-0.09 2,-0.27 0.57,-0.17 1.07,-0.44 1.49,-0.78 0.42,-0.34 0.73,-0.74 0.93,-1.18 0.21,-0.45 0.31,-0.96 0.31,-1.53 v -0.07 c 0,-0.61 -0.1,-1.14 -0.3,-1.6 -0.2,-0.45 -0.5,-0.83 -0.89,-1.15 -0.41,-0.32 -0.9,-0.56 -1.49,-0.73 -0.6,-0.17 -1.29,-0.25 -2.08,-0.25 h -11.22 v -4.85 h 11.58 c 1.59,0 3.02,0.22 4.27,0.65 1.26,0.44 2.35,1.1 3.25,1.97 h 0.01 c 1.46,1.52 2.19,3.42 2.19,5.7 v 0.07 c 0,1.03 -0.14,1.98 -0.42,2.84 -0.28,0.86 -0.71,1.64 -1.29,2.32 -0.57,0.67 -1.23,1.25 -1.99,1.72 -0.6,0.37 -1.26,0.69 -1.98,0.94 l 6.9,9.67 h -6.26 l -6.15,-8.73 h -4.87 v 8.73 h -5.24 v -0.42 0 z m 31.51,-0.17 5.64,-12.79 5.87,13.38 h -11.77 z m 9.55,-9.61 4.26,10.2 h 5.57 L 231.12,52.71 h -4.63 c -3.79,8.69 -7.59,17.37 -11.38,26.06 h 5.43 l 4.29,-10.2 3.91,-9.11 3.94,9.11 v 0 z m 13.06,9.78 V 52.89 h 5.24 v 21.03 h 13.16 v 4.85 h -18.41 v -0.42 z"
       id="path152"
       style="stroke-width:1.49581" />
    <path
       class="cls-1"
       d="M 75.13,78.35 V 65.3 h 11.26 c 0.75,0 1.42,-0.09 2,-0.27 0.57,-0.17 1.07,-0.44 1.49,-0.78 0.42,-0.34 0.73,-0.74 0.93,-1.18 0.21,-0.45 0.31,-0.96 0.31,-1.53 v -0.07 c 0,-0.61 -0.1,-1.14 -0.3,-1.6 -0.2,-0.45 -0.5,-0.83 -0.89,-1.15 -0.41,-0.32 -0.9,-0.56 -1.49,-0.73 -0.6,-0.17 -1.29,-0.25 -2.08,-0.25 H 75.14 v -4.85 h 11.58 c 1.59,0 3.02,0.22 4.27,0.65 1.26,0.44 2.35,1.1 3.25,1.97 v 0 c 1.46,1.52 2.19,3.42 2.19,5.7 v 0.07 c 0,1.03 -0.14,1.98 -0.42,2.84 -0.28,0.86 -0.71,1.64 -1.29,2.32 -0.57,0.67 -1.23,1.25 -1.99,1.72 -0.6,0.37 -1.26,0.69 -1.99,0.94 l 6.9,9.67 h -6.26 l -6.15,-8.73 h -4.87 v 8.73 h -5.24 v -0.42 0 z m 30.96,-10.24 v 5.88 h 14.49 v 4.78 h -19.59 v -15.4 c 5.93,-0.01 11.86,-0.02 17.8,-0.04 v 4.78 z m 14.31,-14.8 v 4.36 h -19.41 v -4.78 h 19.41 z m 4.56,25.03 V 52.88 h 9.76 c 4,0 7.28,1.23 9.86,3.68 1.29,1.23 2.26,2.61 2.9,4.14 0.64,1.54 0.97,3.22 0.97,5.05 v 0.07 c 0,3.69 -1.29,6.78 -3.87,9.24 -1.29,1.23 -2.76,2.16 -4.4,2.77 -1.64,0.61 -3.46,0.92 -5.45,0.92 h -9.76 v -0.42 0 z m 9.76,-20.61 h -4.51 v 16.18 h 4.51 c 1.25,0 2.38,-0.19 3.38,-0.56 0.99,-0.37 1.87,-0.93 2.62,-1.68 0.76,-0.74 1.32,-1.6 1.7,-2.55 0.38,-0.96 0.57,-2.04 0.57,-3.23 v -0.07 c 0,-1.19 -0.19,-2.27 -0.57,-3.24 -0.38,-0.96 -0.95,-1.83 -1.7,-2.58 -0.76,-0.75 -1.63,-1.32 -2.62,-1.7 -1,-0.38 -2.12,-0.57 -3.37,-0.57 z"
       id="path154"
       style="stroke-width:1.49581" />
    <path
       class="cls-3"
       d="m 77.49,87.42 h 0.99 v 2.28 c -0.56,0.69 -1.35,1.04 -2.38,1.04 -0.87,0 -1.6,-0.32 -2.18,-0.97 -0.59,-0.65 -0.88,-1.47 -0.88,-2.46 0,-0.99 0.3,-1.81 0.9,-2.47 0.6,-0.66 1.32,-0.99 2.17,-0.99 0.85,0 1.55,0.28 2.11,0.84 l -0.53,0.86 C 77.46,85.33 77.23,85.17 77,85.09 76.77,85 76.5,84.96 76.19,84.96 c -0.59,0 -1.09,0.22 -1.5,0.65 -0.4,0.43 -0.61,1.01 -0.61,1.71 0,0.7 0.2,1.28 0.59,1.7 0.39,0.43 0.87,0.64 1.43,0.64 0.56,0 1.03,-0.14 1.4,-0.41 v -1.83 0 z m 3.07,1.72 -0.59,1.51 H 78.91 L 81.5,84 h 1.06 l 2.59,6.65 H 84.09 L 83.5,89.14 H 80.55 Z M 83.1,88.1 82.03,85.36 80.96,88.1 Z M 90.38,84 h 0.99 v 6.65 H 90.29 L 86.96,85.8 v 4.85 H 85.97 V 84 h 0.99 l 3.42,4.97 z m 3.46,5.14 -0.59,1.51 H 92.19 L 94.78,84 h 1.06 l 2.59,6.65 h -1.06 l -0.59,-1.51 h -2.95 z m 2.54,-1.04 -1.07,-2.74 -1.07,2.74 z m 7.28,-4.1 h 0.99 v 6.65 h -1.08 l -3.33,-4.85 v 4.85 H 99.25 V 84 h 0.99 l 3.42,4.97 z m 4.65,0 c 1.06,0 1.87,0.29 2.43,0.87 0.57,0.58 0.85,1.39 0.85,2.42 0,1.03 -0.28,1.85 -0.82,2.46 -0.55,0.6 -1.39,0.9 -2.53,0.9 h -1.95 V 84 Z m 2.28,3.32 c 0,-1.52 -0.77,-2.28 -2.32,-2.28 h -0.99 v 4.56 h 1.1 c 0.71,0 1.26,-0.19 1.64,-0.58 0.38,-0.38 0.57,-0.95 0.57,-1.7 z m 6.48,-1.75 c -0.4,-0.47 -0.89,-0.7 -1.48,-0.7 -0.59,0 -1.08,0.23 -1.48,0.7 -0.4,0.47 -0.6,1.04 -0.6,1.71 0,0.67 0.2,1.24 0.6,1.71 0.4,0.47 0.89,0.7 1.48,0.7 0.59,0 1.08,-0.24 1.48,-0.7 0.4,-0.47 0.6,-1.04 0.6,-1.71 0,-0.67 -0.2,-1.24 -0.6,-1.71 z m 0.73,4.16 c -0.59,0.66 -1.33,0.99 -2.21,0.99 -0.88,0 -1.61,-0.33 -2.21,-0.99 -0.59,-0.66 -0.89,-1.48 -0.89,-2.46 0,-0.98 0.3,-1.8 0.89,-2.46 0.59,-0.66 1.33,-0.99 2.21,-0.99 0.88,0 1.61,0.33 2.21,0.99 0.59,0.66 0.89,1.48 0.89,2.46 0,0.98 -0.3,1.8 -0.89,2.46 z m 6.23,-4.86 c -0.29,0 -0.53,0.07 -0.71,0.2 -0.19,0.13 -0.28,0.33 -0.28,0.6 0,0.27 0.09,0.48 0.28,0.62 0.19,0.14 0.58,0.3 1.18,0.46 0.6,0.16 1.06,0.4 1.36,0.69 0.31,0.3 0.46,0.74 0.46,1.32 0,0.58 -0.19,1.05 -0.58,1.41 -0.39,0.36 -0.9,0.54 -1.52,0.54 -0.92,0 -1.74,-0.36 -2.45,-1.08 l 0.62,-0.85 c 0.59,0.58 1.21,0.88 1.85,0.88 0.32,0 0.57,-0.08 0.76,-0.23 0.19,-0.16 0.28,-0.36 0.28,-0.62 0,-0.26 -0.09,-0.46 -0.27,-0.6 -0.18,-0.14 -0.48,-0.27 -0.91,-0.39 -0.43,-0.12 -0.76,-0.23 -0.98,-0.32 -0.22,-0.1 -0.42,-0.23 -0.6,-0.39 -0.35,-0.3 -0.52,-0.76 -0.52,-1.37 0,-0.61 0.2,-1.09 0.59,-1.42 0.4,-0.33 0.89,-0.5 1.47,-0.5 0.38,0 0.75,0.07 1.12,0.21 0.37,0.14 0.69,0.34 0.96,0.59 l -0.53,0.85 c -0.17,-0.18 -0.41,-0.32 -0.71,-0.44 -0.3,-0.11 -0.59,-0.17 -0.88,-0.17 v 0 z m 7.66,-0.88 v 1.06 h -3.14 v 1.76 h 2.82 v 1 h -2.82 v 1.78 h 3.24 v 1.06 h -4.23 V 84 h 4.13 z m 5.45,3.42 h 0.99 v 2.28 c -0.56,0.69 -1.35,1.04 -2.38,1.04 -0.87,0 -1.6,-0.32 -2.18,-0.97 -0.59,-0.65 -0.88,-1.47 -0.88,-2.46 0,-0.99 0.3,-1.81 0.9,-2.47 0.6,-0.66 1.32,-0.99 2.17,-0.99 0.85,0 1.55,0.28 2.11,0.84 l -0.53,0.86 c -0.23,-0.22 -0.46,-0.38 -0.69,-0.46 -0.23,-0.09 -0.5,-0.13 -0.81,-0.13 -0.59,0 -1.09,0.22 -1.5,0.65 -0.4,0.43 -0.61,1.01 -0.61,1.71 0,0.7 0.2,1.28 0.59,1.7 0.39,0.43 0.87,0.64 1.43,0.64 0.56,0 1.03,-0.14 1.4,-0.41 v -1.83 0 z m 3.62,1.71 c 0.27,0.36 0.63,0.53 1.09,0.53 0.46,0 0.83,-0.18 1.09,-0.53 0.27,-0.36 0.4,-0.84 0.4,-1.45 v -3.68 h 0.99 v 3.73 c 0,0.96 -0.23,1.7 -0.7,2.21 -0.47,0.52 -1.06,0.78 -1.79,0.78 -0.73,0 -1.33,-0.26 -1.79,-0.78 -0.47,-0.52 -0.7,-1.25 -0.7,-2.21 v -3.73 h 0.99 v 3.68 c 0,0.61 0.13,1.09 0.4,1.45 v 0 z m 5.14,-5.13 h 0.99 v 6.65 h -0.99 z m 4.65,0 c 1.06,0 1.87,0.29 2.43,0.87 0.57,0.58 0.85,1.39 0.85,2.42 0,1.03 -0.28,1.85 -0.83,2.46 -0.55,0.6 -1.39,0.9 -2.53,0.9 h -1.95 v -6.65 h 2.02 z m 2.28,3.32 c 0,-1.52 -0.77,-2.28 -2.32,-2.28 h -0.99 v 4.56 h 1.1 c 0.71,0 1.26,-0.19 1.64,-0.58 0.38,-0.38 0.57,-0.95 0.57,-1.7 z m 6.48,-1.75 c -0.4,-0.47 -0.89,-0.7 -1.48,-0.7 -0.59,0 -1.08,0.23 -1.48,0.7 -0.4,0.47 -0.6,1.04 -0.6,1.71 0,0.67 0.2,1.24 0.6,1.71 0.4,0.47 0.89,0.7 1.48,0.7 0.59,0 1.08,-0.24 1.48,-0.7 0.4,-0.47 0.6,-1.04 0.6,-1.71 0,-0.67 -0.2,-1.24 -0.6,-1.71 z m 0.73,4.16 c -0.59,0.66 -1.33,0.99 -2.21,0.99 -0.88,0 -1.61,-0.33 -2.21,-0.99 -0.59,-0.66 -0.89,-1.48 -0.89,-2.46 0,-0.98 0.3,-1.8 0.89,-2.46 0.59,-0.66 1.33,-0.99 2.21,-0.99 0.88,0 1.61,0.33 2.21,0.99 0.59,0.66 0.89,1.48 0.89,2.46 0,0.98 -0.3,1.8 -0.89,2.46 z m 6.84,-3.57 c 0,1.1 -0.42,1.79 -1.27,2.08 l 1.54,2.42 h -1.26 l -1.41,-2.24 h -1.31 v 2.24 h -0.99 V 84 h 2.19 c 0.9,0 1.54,0.17 1.93,0.51 0.39,0.34 0.58,0.89 0.58,1.65 v 0 z m -2.47,1.24 c 0.56,0 0.94,-0.1 1.14,-0.3 0.2,-0.2 0.3,-0.51 0.3,-0.95 0,-0.44 -0.1,-0.73 -0.31,-0.89 -0.21,-0.16 -0.58,-0.24 -1.11,-0.24 h -1.26 v 2.38 z m 8.03,-3.4 v 1.06 h -3.14 v 1.76 h 2.82 v 1 h -2.82 v 1.78 h 3.24 v 1.06 h -4.23 V 84 h 4.13 z m 3.15,0.88 c -0.29,0 -0.53,0.07 -0.71,0.2 -0.19,0.13 -0.28,0.33 -0.28,0.6 0,0.27 0.09,0.48 0.28,0.62 0.19,0.14 0.58,0.3 1.18,0.46 0.6,0.16 1.06,0.4 1.36,0.69 0.31,0.3 0.46,0.74 0.46,1.32 0,0.58 -0.19,1.05 -0.58,1.41 -0.39,0.36 -0.9,0.54 -1.52,0.54 -0.92,0 -1.74,-0.36 -2.45,-1.08 l 0.62,-0.85 c 0.59,0.58 1.21,0.88 1.85,0.88 0.32,0 0.57,-0.08 0.76,-0.23 0.19,-0.16 0.28,-0.36 0.28,-0.62 0,-0.26 -0.09,-0.46 -0.27,-0.6 -0.18,-0.14 -0.48,-0.27 -0.91,-0.39 -0.43,-0.12 -0.76,-0.23 -0.98,-0.32 -0.22,-0.1 -0.42,-0.23 -0.6,-0.39 -0.35,-0.3 -0.52,-0.76 -0.52,-1.37 0,-0.61 0.2,-1.09 0.59,-1.42 0.4,-0.33 0.89,-0.5 1.47,-0.5 0.38,0 0.75,0.07 1.12,0.21 0.37,0.14 0.69,0.34 0.96,0.59 l -0.53,0.85 c -0.17,-0.18 -0.41,-0.32 -0.71,-0.44 -0.3,-0.11 -0.59,-0.17 -0.88,-0.17 v 0 z m 9.91,2.54 h 0.99 v 2.28 c -0.56,0.69 -1.35,1.04 -2.38,1.04 -0.87,0 -1.6,-0.32 -2.18,-0.97 -0.59,-0.65 -0.88,-1.47 -0.88,-2.46 0,-0.99 0.3,-1.81 0.9,-2.47 0.6,-0.66 1.32,-0.99 2.17,-0.99 0.85,0 1.55,0.28 2.11,0.84 l -0.53,0.86 c -0.23,-0.22 -0.46,-0.38 -0.69,-0.46 -0.23,-0.09 -0.5,-0.13 -0.81,-0.13 -0.59,0 -1.09,0.22 -1.5,0.65 -0.4,0.43 -0.61,1.01 -0.61,1.71 0,0.7 0.2,1.28 0.59,1.7 0.39,0.43 0.87,0.64 1.43,0.64 0.56,0 1.03,-0.14 1.4,-0.41 v -1.83 0 z m 3.07,1.72 -0.59,1.51 h -1.06 l 2.59,-6.65 h 1.06 l 2.59,6.65 h -1.06 l -0.59,-1.51 h -2.95 z m 2.54,-1.04 -1.07,-2.74 -1.07,2.74 z m 7.28,-4.1 h 0.99 v 6.65 h -1.08 l -3.33,-4.85 v 4.85 h -0.99 v -6.65 h 0.99 l 3.42,4.97 z m 3.46,5.14 -0.59,1.51 h -1.06 l 2.59,-6.65 h 1.06 l 2.59,6.65 h -1.06 l -0.59,-1.51 h -2.95 z m 2.54,-1.04 -1.07,-2.74 -1.07,2.74 z m 7.28,-4.1 h 0.99 v 6.65 h -1.08 l -3.33,-4.85 v 4.85 h -0.99 v -6.65 h 0.99 l 3.42,4.97 z m 4.65,0 c 1.06,0 1.87,0.29 2.43,0.87 0.57,0.58 0.85,1.39 0.85,2.42 0,1.03 -0.27,1.85 -0.82,2.46 -0.55,0.6 -1.39,0.9 -2.53,0.9 h -1.95 v -6.65 z m 2.28,3.32 c 0,-1.52 -0.77,-2.28 -2.32,-2.28 h -0.99 v 4.56 h 1.1 c 0.71,0 1.26,-0.19 1.64,-0.58 0.38,-0.39 0.57,-0.95 0.57,-1.7 z m 6.48,-1.75 c -0.4,-0.47 -0.89,-0.7 -1.48,-0.7 -0.59,0 -1.08,0.23 -1.48,0.7 -0.4,0.47 -0.6,1.04 -0.6,1.71 0,0.67 0.2,1.24 0.6,1.71 0.4,0.47 0.89,0.7 1.48,0.7 0.59,0 1.08,-0.24 1.48,-0.7 0.4,-0.47 0.6,-1.04 0.6,-1.71 0,-0.67 -0.2,-1.24 -0.6,-1.71 z m 0.73,4.16 c -0.59,0.66 -1.33,0.99 -2.21,0.99 -0.88,0 -1.61,-0.33 -2.21,-0.99 -0.59,-0.66 -0.89,-1.48 -0.89,-2.46 0,-0.98 0.3,-1.8 0.89,-2.46 0.59,-0.66 1.33,-0.99 2.21,-0.99 0.88,0 1.61,0.33 2.21,0.99 0.59,0.66 0.89,1.48 0.89,2.46 0,0.98 -0.3,1.8 -0.89,2.46 z m 6.47,-5.73 c 1.06,0 1.87,0.29 2.43,0.87 0.57,0.58 0.85,1.39 0.85,2.42 0,1.03 -0.28,1.85 -0.83,2.46 -0.55,0.6 -1.39,0.9 -2.53,0.9 h -1.95 v -6.65 h 2.02 z m 2.28,3.32 c 0,-1.52 -0.77,-2.28 -2.32,-2.28 h -0.99 v 4.56 h 1.1 c 0.71,0 1.26,-0.19 1.64,-0.58 0.38,-0.38 0.57,-0.95 0.57,-1.7 z m 2.28,-3.32 h 0.99 v 6.65 h -0.99 z m 7.04,0 h 0.99 v 6.65 h -1.08 l -3.33,-4.85 v 4.85 h -0.99 v -6.65 h 0.99 l 3.42,4.97 z m 6.76,0 v 1.06 h -3.14 v 1.76 h 2.82 v 1 h -2.82 v 1.78 h 3.24 v 1.06 h -4.23 V 84 h 4.13 z m 6.07,2.16 c 0,1.1 -0.42,1.79 -1.27,2.08 l 1.54,2.42 h -1.26 l -1.41,-2.24 h -1.3 v 2.24 h -0.99 V 84 h 2.19 c 0.9,0 1.54,0.17 1.93,0.51 0.39,0.34 0.58,0.89 0.58,1.65 v 0 z m -2.47,1.24 c 0.56,0 0.94,-0.1 1.15,-0.3 0.2,-0.2 0.3,-0.51 0.3,-0.95 0,-0.44 -0.1,-0.73 -0.31,-0.89 -0.21,-0.16 -0.58,-0.24 -1.11,-0.24 h -1.26 v 2.38 h 1.24 z m 8.1,-1.83 c -0.4,-0.47 -0.89,-0.7 -1.48,-0.7 -0.59,0 -1.08,0.23 -1.48,0.7 -0.4,0.47 -0.6,1.04 -0.6,1.71 0,0.67 0.2,1.24 0.6,1.71 0.4,0.47 0.89,0.7 1.48,0.7 0.59,0 1.08,-0.24 1.48,-0.7 0.4,-0.47 0.6,-1.04 0.6,-1.71 0,-0.67 -0.2,-1.24 -0.6,-1.71 z m 0.73,4.16 c -0.59,0.66 -1.33,0.99 -2.21,0.99 -0.88,0 -1.61,-0.33 -2.21,-0.99 -0.59,-0.66 -0.89,-1.48 -0.89,-2.46 0,-0.98 0.3,-1.8 0.89,-2.46 0.59,-0.66 1.33,-0.99 2.21,-0.99 0.88,0 1.61,0.33 2.21,0.99 0.59,0.66 0.89,1.48 0.89,2.46 0,0.98 -0.3,1.8 -0.89,2.46 z"
       id="path156"
       style="stroke-width:1.49581" />
  </g>
  <path
     class="cls-2"
     d="m 28.719059,45.117237 c 1.310325,-2.413404 3.54991,-5.067481 5.207872,-7.093136 2.774413,-3.389463 3.429575,-3.596708 5.976687,-6.224044 1.042911,-1.076337 2.192788,-1.945431 3.342665,-2.92149 1.791669,-1.504198 10.643046,-7.153304 12.361177,-7.674759 -2.246272,0.608365 -6.585051,2.346551 -8.630762,3.382777 -2.273013,1.149876 -4.32541,2.366607 -6.371121,3.737101 -1.958802,1.31701 -8.222956,6.130448 -9.860864,7.948857 -0.401119,0.441233 -0.715329,0.849038 -1.236786,1.08971 -0.02674,-2.333181 0.100278,-7.68813 -0.06016,-9.386204 -1.410606,0.508085 -2.774413,1.865206 -3.469687,3.04851 -0.962688,1.637907 -1.136507,3.048511 -1.136507,5.247984 l 0.02674,8.791212 3.85075,0.0468 z"
     id="path160"
     style="stroke-width:0.999994" />
  <path
     class="cls-1"
     d="m 24.647691,35.563899 c 0.04679,0 -0.461287,-4.773326 2.273013,-7.006227 0.869093,-0.715331 1.845151,-0.982743 2.513684,-1.096394 l 0.06686,-4.452431 15.523339,-0.02674 0.320895,1.0028 4.305354,-2.092509 C 49.336624,20.26786 47.678662,18.797087 46.027385,18.449451 45.064691,18.248893 26.546326,18.248893 24.888363,18.402661 24.63432,32.261351 24.60758,35.57059 24.647691,35.57059 Z"
     id="path162"
     style="stroke-width:0.999994" />
  <path
     class="cls-1"
     d="m 43.908131,34.694805 c 2.767727,-0.06685 4.131535,-0.501399 5.241299,-2.313125 0.775498,-1.276896 0.90252,-4.840178 0.60168,-6.591735 -0.40112,0.260728 -1.143192,0.561567 -1.657962,0.882464 l -4.586136,3.436259 c -1.183306,1.062969 -4.846867,4.231815 -5.348266,5.221244 l 8.156104,9.787325 3.442945,-3.229015 C 48.688142,40.277057 44.09532,35.570584 43.914816,34.701491 Z"
     id="path164"
     style="stroke-width:0.999994" />
  <path
     class="cls-2"
     d="m 34.147548,30.890852 c 1.397233,0 2.540426,-1.143191 2.540426,-2.540426 0,-1.397234 -1.143193,-2.540426 -2.540426,-2.540426 -1.397235,0 -2.540426,1.143192 -2.540426,2.540426 0,1.397235 1.143191,2.540426 2.540426,2.540426 z"
     id="path166"
     style="stroke-width:0.999994" />
  <path
     class="cls-2"
     d="m 36.273483,10.534019 c 5.863035,0 11.177874,2.379978 15.021938,6.224044 1.042912,1.042912 1.978857,2.192788 2.781098,3.429575 -1.169932,0.327582 -2.246271,0.648477 -3.001714,0.922574 -0.574938,-0.795553 -1.210045,-1.54431 -1.898634,-2.2329 -3.302553,-3.302553 -7.861948,-5.341579 -12.902688,-5.341579 -5.040739,0 -9.600136,2.039026 -12.902689,5.341579 -3.302553,3.302554 -5.34158,7.86195 -5.34158,12.902689 0,5.04074 2.039027,9.600136 5.34158,12.90269 3.302553,3.302553 7.86195,5.341578 12.902689,5.341578 5.04074,0 9.600135,-2.039025 12.902688,-5.341578 3.302554,-3.302554 5.34158,-7.86195 5.34158,-12.90269 0,-3.275812 -0.862408,-6.351063 -2.373292,-9.00514 l 2.740985,-1.236786 c 1.678019,3.035139 2.627336,6.531568 2.627336,10.241926 0,5.863036 -2.379979,11.177874 -6.224044,15.021939 -3.844065,3.844066 -9.152218,6.224044 -15.021939,6.224044 -5.869721,0 -11.177874,-2.379978 -15.021939,-6.224044 -3.844066,-3.844065 -6.224043,-9.152218 -6.224043,-15.021939 0,-5.86972 2.379977,-11.177873 6.224043,-15.021938 3.844065,-3.844066 9.152218,-6.224044 15.021939,-6.224044 z"
     id="path168"
     style="stroke-width:0.999994" />
</svg>
