<?xml version="1.0" encoding="UTF-8"?>
<svg id="Capa_1" data-name="Capa 1" xmlns="http://www.w3.org/2000/svg" viewBox="0 0 50 50">
  <defs>
    <style>
      .cls-1 {
        fill: #87c131;
      }

      .cls-1, .cls-2 {
        fill-rule: evenodd;
      }

      .cls-2 {
        fill: #00a0e8;
      }
    </style>
  </defs>
  <path class="cls-2" d="m16.38,40.18c1.51-2.79,4.11-5.87,6.03-8.21,3.21-3.92,3.97-4.16,6.92-7.21,1.21-1.25,2.54-2.25,3.87-3.38,2.07-1.74,12.32-8.28,14.31-8.88-2.6.7-7.63,2.72-9.99,3.92-2.63,1.33-5.01,2.74-7.38,4.33-2.27,1.53-9.52,7.1-11.42,9.21-.46.51-.83.98-1.43,1.26-.03-2.7.12-8.9-.07-10.86-1.63.59-3.22,2.16-4.02,3.53-1.12,1.9-1.32,3.53-1.32,6.08l.03,10.17,4.46.05Z"/>
  <path class="cls-1" d="m11.66,29.12c.05,0-.53-5.52,2.63-8.11,1.01-.83,2.13-1.14,2.91-1.27l.08-5.16,17.98-.03.37,1.16,4.98-2.42c-.36-1.88-2.28-3.58-4.2-3.99-1.12-.24-22.56-.23-24.48-.05-.3,16.04-.32,19.88-.28,19.88Z"/>
  <path class="cls-1" d="m33.96,28.11c3.2-.08,4.79-.58,6.06-2.68.9-1.48,1.04-5.6.7-7.63-.46.3-1.32.65-1.92,1.02l-5.31,3.98c-1.37,1.23-5.61,4.9-6.19,6.04l9.44,11.33,3.99-3.74c-1.24-1.87-6.56-7.31-6.76-8.32Z"/>
  <path class="cls-2" d="m22.66,23.7c1.62,0,2.94-1.32,2.94-2.94s-1.32-2.94-2.94-2.94-2.94,1.32-2.94,2.94,1.32,2.94,2.94,2.94Z"/>
  <path class="cls-2" d="m25.12.14c6.79,0,12.94,2.75,17.39,7.2,1.21,1.21,2.29,2.54,3.22,3.97-1.36.38-2.6.75-3.48,1.07-.66-.92-1.4-1.78-2.2-2.59-3.82-3.82-9.1-6.19-14.94-6.19s-11.11,2.36-14.94,6.19c-3.82,3.82-6.19,9.1-6.19,14.94s2.36,11.11,6.19,14.94c3.82,3.82,9.1,6.19,14.94,6.19s11.11-2.36,14.94-6.19c3.82-3.82,6.19-9.1,6.19-14.94,0-3.79-1-7.35-2.75-10.43l3.18-1.43c1.94,3.52,3.04,7.56,3.04,11.86,0,6.79-2.75,12.94-7.2,17.39-4.45,4.45-10.6,7.2-17.39,7.2s-12.94-2.75-17.39-7.2C3.28,37.67.53,31.53.53,24.74S3.28,11.8,7.73,7.35C12.18,2.89,18.33.14,25.12.14Z"/>
</svg>